SplineFontDB: 1.0
FontName: DejaVuSerifCondensed-Bold
FullName: DejaVu Serif Condensed Bold
FamilyName: DejaVu Serif Condensed
Weight: Bold
Copyright: Copyright (c) 2003 by Bitstream, Inc. All Rights Reserved.\nDejaVu changes are in public domain\n
Version: 1.8
ItalicAngle: 0
UnderlinePosition: -217
UnderlineWidth: 240
Ascent: 1556
Descent: 492
Order2: 1
NeedsXUIDChange: 1
FSType: 4
PfmFamily: 17
TTFWeight: 700
TTFWidth: 5
Panose: 2 6 8 6 5 6 5 2 2 4
LineGap: 410
VLineGap: 0
OS2TypoAscent: 1556
OS2TypoDescent: -492
OS2TypoLinegap: 0
OS2WinAscent: 1923
OS2WinAOffset: 0
OS2WinDescent: 483
OS2WinDOffset: 0
HheadAscent: 1923
HheadAOffset: 0
HheadDescent: -483
HheadDOffset: 0
ScriptLang: 2
 1 latn 1 dflt 
 1 DFLT 1 dflt 
TtfTable: prep 1407
\,q1GjNmf-c:\8arWC@O"3D#Ta>*k<]*$'b"3(*=`0LMBrWC"9"2MZA"i,Ng^IJC?0E]":"2#!D
]D_oDrWB_1"1SjD[L*,E'a(fi"1&=:ZTnZ!Yo3eN)?[4I)?m>d"0WUFY+H.,Xu?HbT+(t++Tnf)
"02e3Wi6R6W\O[U&Hf"_"K3pTVj\Y1Vu?dqV%Ns/*<W,N"/M\B"f/a4UN@L[UFQG@F<(OZ]*"b"
)?li6"/$P7T+(moS\#&srWA^]>m6e2".arFS=:f.S6Z5e5QmRF*X/#Z".GVi"e$J7R^iC55lUtT
&HeC/".2=VQQ60o$NlZ["-a5sP8OIcO^nWYrWA:)*<hR9"-AQO"csE#Nsc&N5Qm+,%0_b+"-!`l
N/J#HN%tKn$3Q/+",Vh^"c<3\LiaX@Lj]A[$Nl)(",(b:"b\W5K7Xa?KDkt)E=W5)'*Ec7%0_:]
"+La^Im=-cF<(O6rW@Rr*sI)l"+20mH[<:-Hi=+nH!LT"]*!A0"F55<"aOAUGsDLW,m/?M"*Sc,
"a4Y`F`\W-Fnu2^*<UB^"*/Al"`jSEE=W.kJ-9h0/d64n")fdoDZ0`TrW?sJ")CO3C'k&VrW?d?
"(sk%Ag%7fI04$Z"$hiUCBJ%X"(?T[@/^77('@hM%g?8<"'Z?>=]c[J=Y0_X*<T@u"',d3<)X\=
<0dVb)?WkU"&Vl1"]6QJ:_"$?:_j./%M/e>(B[E,*!K)c"&2>r"\fs=9gAhT%ibaH0`t&Y&-Y]^
"%l,o"\O1F8IYbm7g]DjI02tH"%G]g"\(6L777Of71B>f\Gs?0rrb^u"%,Bl"[eRX65Tej5Rmr`
I02_m#mER("$hA>5<UG!5J%"]4XgOu>m!5#*!JJS"$AX^"[!D"4$!uX3uA&\3=5pN&d(-$"#r4M
"ZUo42`:sG2\-!LJ-7b:"#`CI2)H-R23n>$.gZA9(]uQ#*<e6b"#;;7"Z$&Z0b+:>$k!4m*Wn&@
.0V@`""k`("YLhu/M%J;/X?Ji.gZA1&HaRL"=jc\.OGE).NJU?%0J%E"=PW0"XoZ=-RK*&-P6G.
5QiD>"!o3A"XUb_,SM=),Uig?'-RN(rW=>f$3_W>"!Jcm"X+3T+b0\<#Ql27"<S:#"Wo2r5dVRE
/Hm1V"!&Ne*.7o.'a#@0!uWir(_\%r)#aUR(+BD'CBG=c+U&W1!u1tH"Vi'\'Gpoc%M/dW+Ti>h

StartChar: .notdef
Encoding: 0 -1 0
Width: 1167
Flags: HW
Fore
153.2 -362 m 1,0,-1
 153.2 1444 l 1,1,-1
 1074.8 1444 l 1,2,-1
 1074.8 -362 l 1,3,-1
 153.2 -362 l 1,0,-1
256.7 -248 m 1,4,-1
 972.2 -248 l 1,5,-1
 972.2 1329 l 1,6,-1
 256.7 1329 l 1,7,-1
 256.7 -248 l 1,4,-1
EndSplineSet
EndChar
StartChar: exclam
Encoding: 33 33 4
Width: 854
Flags: HW
Fore
278.95 162 m 0,0,1
 278.95 240 278.95 240 328.9 296 c 128,-1,2
 378.85 352 378.85 352 449.05 352 c 0,3,4
 519.25 352 519.25 352 569.65 296 c 128,-1,5
 620.05 240 620.05 240 620.05 162 c 0,6,7
 620.05 83 620.05 83 569.65 27 c 128,-1,8
 519.25 -29 519.25 -29 449.05 -29 c 0,9,10
 378.85 -29 378.85 -29 328.9 27 c 128,-1,11
 278.95 83 278.95 83 278.95 162 c 0,0,1
280.75 1493 m 1,12,-1
 618.25 1493 l 1,13,-1
 511.15 651 l 1,14,-1
 511.15 461 l 1,15,-1
 386.05 461 l 1,16,-1
 386.05 651 l 1,17,-1
 280.75 1493 l 1,12,-1
EndSplineSet
EndChar
StartChar: quotedbl
Encoding: 34 34 5
Width: 1013
Flags: HW
Fore
442.15 1493 m 1,0,-1
 442.15 938 l 1,1,-1
 228.85 938 l 1,2,-1
 228.85 1493 l 1,3,-1
 442.15 1493 l 1,0,-1
838.15 1493 m 1,4,-1
 838.15 938 l 1,5,-1
 624.85 938 l 1,6,-1
 624.85 1493 l 1,7,-1
 838.15 1493 l 1,4,-1
EndSplineSet
EndChar
StartChar: numbersign
Encoding: 35 35 6
Width: 1630
Flags: HW
Fore
1007.4 872 m 1,0,-1
 769.8 872 l 1,1,-1
 706.8 598 l 1,2,-1
 944.4 598 l 1,3,-1
 1007.4 872 l 1,0,-1
905.7 1470 m 1,4,-1
 819.3 1085 l 1,5,-1
 1056.9 1085 l 1,6,-1
 1144.2 1470 l 1,7,-1
 1343.1 1470 l 1,8,-1
 1255.8 1085 l 1,9,-1
 1505.1 1085 l 1,10,-1
 1505.1 872 l 1,11,-1
 1208.1 872 l 1,12,-1
 1146 598 l 1,13,-1
 1401.6 598 l 1,14,-1
 1401.6 383 l 1,15,-1
 1099.2 383 l 1,16,-1
 1012.8 0 l 1,17,-1
 813.9 0 l 1,18,-1
 900.3 383 l 1,19,-1
 662.7 383 l 1,20,-1
 576.3 0 l 1,21,-1
 375.6 0 l 1,22,-1
 462 383 l 1,23,-1
 210.9 383 l 1,24,-1
 210.9 598 l 1,25,-1
 506.1 598 l 1,26,-1
 569.1 872 l 1,27,-1
 314.4 872 l 1,28,-1
 314.4 1085 l 1,29,-1
 618.6 1085 l 1,30,-1
 705 1470 l 1,31,-1
 905.7 1470 l 1,4,-1
EndSplineSet
EndChar
StartChar: dollar
Encoding: 36 36 7
Width: 1354
Flags: HW
Fore
247.35 59 m 1,0,-1
 247.35 350 l 1,1,-1
 355.35 350 l 1,2,3
 370.65 216 370.65 216 441.3 150 c 128,-1,4
 511.95 84 511.95 84 641.55 84 c 2,5,-1
 654.15 84 l 1,6,-1
 654.15 489 l 1,7,8
 430.05 544 430.05 544 332.85 639 c 128,-1,9
 235.65 734 235.65 734 235.65 897 c 0,10,11
 235.65 1077 235.65 1077 345.9 1180.5 c 128,-1,12
 456.15 1284 456.15 1284 654.15 1290 c 1,13,-1
 654.15 1559 l 1,14,-1
 763.05 1559 l 1,15,-1
 763.05 1290 l 1,16,17
 863.85 1284 863.85 1284 956.1 1262.5 c 128,-1,18
 1048.35 1241 1048.35 1241 1135.65 1202 c 1,19,-1
 1135.65 930 l 1,20,-1
 1026.75 930 l 1,21,22
 1012.35 1046 1012.35 1046 943.5 1110.5 c 128,-1,23
 874.65 1175 874.65 1175 763.05 1177 c 1,24,-1
 763.05 805 l 1,25,26
 1005.15 746 1005.15 746 1103.25 646.5 c 128,-1,27
 1201.35 547 1201.35 547 1201.35 367 c 0,28,29
 1201.35 182 1201.35 182 1087.5 79.5 c 128,-1,30
 973.65 -23 973.65 -23 763.05 -29 c 1,31,-1
 763.05 -299 l 1,32,-1
 654.15 -299 l 1,33,-1
 654.15 -29 l 1,34,35
 555.15 -27 555.15 -27 453.45 -5 c 128,-1,36
 351.75 17 351.75 17 247.35 59 c 1,0,-1
654.15 1178 m 1,37,38
 577.65 1167 577.65 1167 533.1 1125 c 128,-1,39
 488.55 1083 488.55 1083 488.55 1022 c 0,40,41
 488.55 952 488.55 952 526.8 909 c 128,-1,42
 565.05 866 565.05 866 654.15 838 c 1,43,-1
 654.15 1178 l 1,37,38
763.05 84 m 1,44,45
 853.95 95 853.95 95 900.75 138.5 c 128,-1,46
 947.55 182 947.55 182 947.55 256 c 0,47,48
 947.55 330 947.55 330 903.9 378 c 128,-1,49
 860.25 426 860.25 426 763.05 457 c 1,50,-1
 763.05 84 l 1,44,45
EndSplineSet
EndChar
StartChar: percent
Encoding: 37 37 8
Width: 1848
Flags: HW
Fore
495.05 1419 m 0,0,1
 437.45 1419 437.45 1419 412.25 1349.5 c 128,-1,2
 387.05 1280 387.05 1280 387.05 1114 c 0,3,4
 387.05 947 387.05 947 412.25 877 c 128,-1,5
 437.45 807 437.45 807 495.05 807 c 0,6,7
 553.55 807 553.55 807 578.75 877 c 128,-1,8
 603.95 947 603.95 947 603.95 1114 c 0,9,10
 603.95 1280 603.95 1280 578.75 1349.5 c 128,-1,11
 553.55 1419 553.55 1419 495.05 1419 c 0,0,1
495.05 1520 m 0,12,13
 666.95 1520 666.95 1520 758.3 1415.5 c 128,-1,14
 849.65 1311 849.65 1311 849.65 1114 c 0,15,16
 849.65 917 849.65 917 758.3 812 c 128,-1,17
 666.95 707 666.95 707 495.05 707 c 0,18,19
 324.05 707 324.05 707 232.7 812 c 128,-1,20
 141.35 917 141.35 917 141.35 1114 c 0,21,22
 141.35 1311 141.35 1311 232.7 1415.5 c 128,-1,23
 324.05 1520 324.05 1520 495.05 1520 c 0,12,13
1315.85 1520 m 1,24,-1
 1470.65 1520 l 1,25,-1
 630.05 -29 l 1,26,-1
 475.25 -29 l 1,27,-1
 1315.85 1520 l 1,24,-1
1449.95 784 m 0,28,29
 1621.85 784 1621.85 784 1712.75 679.5 c 128,-1,30
 1803.65 575 1803.65 575 1803.65 379 c 0,31,32
 1803.65 182 1803.65 182 1712.75 76.5 c 128,-1,33
 1621.85 -29 1621.85 -29 1449.95 -29 c 0,34,35
 1278.95 -29 1278.95 -29 1187.6 76.5 c 128,-1,36
 1096.25 182 1096.25 182 1096.25 379 c 0,37,38
 1096.25 575 1096.25 575 1187.6 679.5 c 128,-1,39
 1278.95 784 1278.95 784 1449.95 784 c 0,28,29
1449.95 684 m 0,40,41
 1391.45 684 1391.45 684 1366.25 614.5 c 128,-1,42
 1341.05 545 1341.05 545 1341.05 379 c 0,43,44
 1341.05 212 1341.05 212 1366.7 142 c 128,-1,45
 1392.35 72 1392.35 72 1449.95 72 c 0,46,47
 1508.45 72 1508.45 72 1533.65 142 c 128,-1,48
 1558.85 212 1558.85 212 1558.85 379 c 0,49,50
 1558.85 545 1558.85 545 1533.65 614.5 c 128,-1,51
 1508.45 684 1508.45 684 1449.95 684 c 0,40,41
EndSplineSet
EndChar
StartChar: ampersand
Encoding: 38 38 9
Width: 1758
Flags: HW
Fore
1725.5 0 m 1,0,-1
 1294.4 0 l 1,1,-1
 1180.1 131 l 1,2,3
 1090.1 51 1090.1 51 981.2 11 c 128,-1,4
 872.3 -29 872.3 -29 743.6 -29 c 0,5,6
 473.6 -29 473.6 -29 321.05 99 c 128,-1,7
 168.5 227 168.5 227 168.5 451 c 0,8,9
 168.5 614 168.5 614 246.35 729.5 c 128,-1,10
 324.2 845 324.2 845 490.7 928 c 1,11,12
 444.8 995 444.8 995 421.85 1056 c 128,-1,13
 398.9 1117 398.9 1117 398.9 1174 c 0,14,15
 398.9 1338 398.9 1338 522.65 1429 c 128,-1,16
 646.4 1520 646.4 1520 870.5 1520 c 0,17,18
 937.1 1520 937.1 1520 1025.75 1508 c 128,-1,19
 1114.4 1496 1114.4 1496 1226 1473 c 1,20,-1
 1226 1161 l 1,21,-1
 1109.9 1161 l 1,22,23
 1093.7 1285 1093.7 1285 1041.5 1342 c 128,-1,24
 989.3 1399 989.3 1399 893 1399 c 0,25,26
 802.1 1399 802.1 1399 749.9 1351 c 128,-1,27
 697.7 1303 697.7 1303 697.7 1221 c 0,28,29
 697.7 1129 697.7 1129 858.8 947 c 0,30,31
 876.8 927 876.8 927 885.8 918 c 1,32,-1
 1299.8 436 l 1,33,34
 1353.8 504 1353.8 504 1384.4 593 c 128,-1,35
 1415 682 1415 682 1423.1 795 c 1,36,-1
 1259.3 795 l 1,37,-1
 1259.3 915 l 1,38,-1
 1709.3 915 l 1,39,-1
 1709.3 795 l 1,40,-1
 1550.9 795 l 1,41,42
 1535.6 649 1535.6 649 1494.65 536 c 128,-1,43
 1453.7 423 1453.7 423 1387.1 336 c 1,44,-1
 1572.5 121 l 1,45,-1
 1725.5 121 l 1,46,-1
 1725.5 0 l 1,0,-1
1095.5 229 m 1,47,-1
 587 817 l 1,48,49
 537.5 750 537.5 750 512.3 674.5 c 128,-1,50
 487.1 599 487.1 599 487.1 516 c 0,51,52
 487.1 347 487.1 347 582.95 238 c 128,-1,53
 678.8 129 678.8 129 826.4 129 c 0,54,55
 896.6 129 896.6 129 962.75 153.5 c 128,-1,56
 1028.9 178 1028.9 178 1095.5 229 c 1,47,-1
EndSplineSet
EndChar
StartChar: quotesingle
Encoding: 39 39 10
Width: 595
Flags: HW
Fore
420.15 1493 m 1,0,-1
 420.15 938 l 1,1,-1
 206.85 938 l 1,2,-1
 206.85 1493 l 1,3,-1
 420.15 1493 l 1,0,-1
EndSplineSet
EndChar
StartChar: parenleft
Encoding: 40 40 11
Width: 924
Flags: HW
Fore
828.55 -319 m 1,0,1
 525.25 -194 525.25 -194 375.85 39 c 128,-1,2
 226.45 272 226.45 272 226.45 618 c 0,3,4
 226.45 964 226.45 964 374.05 1194 c 128,-1,5
 521.65 1424 521.65 1424 828.55 1556 c 1,6,-1
 828.55 1436 l 1,7,8
 686.35 1340 686.35 1340 623.8 1151.5 c 128,-1,9
 561.25 963 561.25 963 561.25 618 c 0,10,11
 561.25 274 561.25 274 623.8 85.5 c 128,-1,12
 686.35 -103 686.35 -103 828.55 -199 c 1,13,-1
 828.55 -319 l 1,0,1
EndSplineSet
EndChar
StartChar: parenright
Encoding: 41 41 12
Width: 916
Flags: HW
Fore
137.5 -319 m 1,0,-1
 137.5 -199 l 1,1,2
 279.7 -103 279.7 -103 342.25 85.5 c 128,-1,3
 404.8 274 404.8 274 404.8 618 c 0,4,5
 404.8 963 404.8 963 342.25 1151.5 c 128,-1,6
 279.7 1340 279.7 1340 137.5 1436 c 1,7,-1
 137.5 1556 l 1,8,9
 444.4 1424 444.4 1424 592.45 1194 c 128,-1,10
 740.5 964 740.5 964 740.5 618 c 0,11,12
 740.5 272 740.5 272 590.65 39 c 128,-1,13
 440.8 -194 440.8 -194 137.5 -319 c 1,0,-1
EndSplineSet
EndChar
StartChar: asterisk
Encoding: 42 42 13
Width: 1017
Flags: HW
Fore
976.95 1212 m 1,0,-1
 652.95 1044 l 1,1,-1
 976.95 874 l 1,2,-1
 888.75 719 l 1,3,-1
 593.55 958 l 1,4,-1
 617.85 569 l 1,5,-1
 453.15 569 l 1,6,-1
 477.45 958 l 1,7,-1
 182.25 719 l 1,8,-1
 94.0498 874 l 1,9,-1
 418.95 1044 l 1,10,-1
 94.0498 1212 l 1,11,-1
 182.25 1370 l 1,12,-1
 477.45 1128 l 1,13,-1
 453.15 1520 l 1,14,-1
 617.85 1520 l 1,15,-1
 593.55 1128 l 1,16,-1
 888.75 1370 l 1,17,-1
 976.95 1212 l 1,0,-1
EndSplineSet
EndChar
StartChar: plus
Encoding: 43 43 14
Width: 1630
Flags: HW
Fore
961.5 1284 m 1,0,-1
 961.5 758 l 1,1,-1
 1434.9 758 l 1,2,-1
 1434.9 528 l 1,3,-1
 961.5 528 l 1,4,-1
 961.5 2 l 1,5,-1
 754.5 2 l 1,6,-1
 754.5 528 l 1,7,-1
 281.1 528 l 1,8,-1
 281.1 758 l 1,9,-1
 754.5 758 l 1,10,-1
 754.5 1284 l 1,11,-1
 961.5 1284 l 1,0,-1
EndSplineSet
EndChar
StartChar: comma
Encoding: 44 44 15
Width: 668
Flags: HW
Fore
51.3496 -197 m 1,0,1
 144.95 -113 144.95 -113 189.05 -9 c 128,-1,2
 233.15 95 233.15 95 233.15 233 c 2,3,-1
 233.15 319 l 1,4,-1
 489.65 319 l 1,5,-1
 489.65 311 l 2,6,7
 489.65 90 489.65 90 406.4 -69.5 c 128,-1,8
 323.15 -229 323.15 -229 150.35 -338 c 1,9,-1
 51.3496 -197 l 1,0,1
EndSplineSet
EndChar
StartChar: hyphen
Encoding: 45 45 16
Width: 807
Flags: HW
Fore
142.4 684 m 1,0,-1
 707.6 684 l 1,1,-1
 707.6 414 l 1,2,-1
 142.4 414 l 1,3,-1
 142.4 684 l 1,0,-1
EndSplineSet
KernsSLIF: 356 -339 0 0 221 -225 0 0 376 -225 0 0 89 -225 0 0 88 -149 0 0 87 -112 0 0 86 -149 0 0 84 -339 0 0
EndChar
StartChar: period
Encoding: 46 46 17
Width: 677
Flags: HW
Fore
185.05 162 m 0,0,1
 185.05 240 185.05 240 235.45 296 c 128,-1,2
 285.85 352 285.85 352 356.05 352 c 0,3,4
 427.15 352 427.15 352 477.55 296 c 128,-1,5
 527.95 240 527.95 240 527.95 162 c 0,6,7
 527.95 83 527.95 83 477.55 27 c 128,-1,8
 427.15 -29 427.15 -29 356.05 -29 c 0,9,10
 285.85 -29 285.85 -29 235.45 27 c 128,-1,11
 185.05 83 185.05 83 185.05 162 c 0,0,1
EndSplineSet
EndChar
StartChar: slash
Encoding: 47 47 18
Width: 710
Flags: HW
Fore
510.8 1493 m 1,0,-1
 710.6 1493 l 1,1,-1
 236.3 -190 l 1,2,-1
 37.4004 -190 l 1,3,-1
 510.8 1493 l 1,0,-1
EndSplineSet
EndChar
StartChar: zero
Encoding: 48 48 19
Width: 1353
Flags: HW
Fore
712.95 88 m 0,0,1
 820.95 88 820.95 88 861 197 c 128,-1,2
 901.05 306 901.05 306 901.05 745 c 0,3,4
 901.05 1181 901.05 1181 861 1292 c 128,-1,5
 820.95 1403 820.95 1403 712.95 1403 c 0,6,7
 604.95 1403 604.95 1403 564.9 1294 c 128,-1,8
 524.85 1185 524.85 1185 524.85 745 c 0,9,10
 524.85 306 524.85 306 564.9 197 c 128,-1,11
 604.95 88 604.95 88 712.95 88 c 0,0,1
712.95 -29 m 0,12,13
 443.85 -29 443.85 -29 300.75 170.5 c 128,-1,14
 157.65 370 157.65 370 157.65 745 c 0,15,16
 157.65 1120 157.65 1120 300.75 1320 c 128,-1,17
 443.85 1520 443.85 1520 712.95 1520 c 0,18,19
 981.15 1520 981.15 1520 1124.25 1320 c 128,-1,20
 1267.35 1120 1267.35 1120 1267.35 745 c 0,21,22
 1267.35 370 1267.35 370 1124.25 170.5 c 128,-1,23
 981.15 -29 981.15 -29 712.95 -29 c 0,12,13
EndSplineSet
EndChar
StartChar: one
Encoding: 49 49 20
Width: 1356
Flags: HW
Fore
326.45 0 m 1,0,-1
 326.45 121 l 1,1,-1
 578.45 121 l 1,2,-1
 578.45 1329 l 1,3,-1
 298.55 1145 l 1,4,-1
 298.55 1294 l 1,5,-1
 636.05 1520 l 1,6,-1
 919.55 1520 l 1,7,-1
 919.55 121 l 1,8,-1
 1172.45 121 l 1,9,-1
 1172.45 0 l 1,10,-1
 326.45 0 l 1,0,-1
EndSplineSet
EndChar
StartChar: two
Encoding: 50 50 21
Width: 1351
Flags: HW
Fore
311.9 1124 m 1,0,-1
 203.9 1124 l 1,1,-1
 203.9 1446 l 1,2,3
 313.7 1483 313.7 1483 421.25 1501.5 c 128,-1,4
 528.8 1520 528.8 1520 638.6 1520 c 0,5,6
 895.1 1520 895.1 1520 1038.65 1403.5 c 128,-1,7
 1182.2 1287 1182.2 1287 1182.2 1079 c 0,8,9
 1182.2 931 1182.2 931 1103 813.5 c 128,-1,10
 1023.8 696 1023.8 696 800.6 535 c 1,11,-1
 426.2 262 l 1,12,-1
 1062.5 262 l 1,13,-1
 1062.5 438 l 1,14,-1
 1185.8 438 l 1,15,-1
 1185.8 0 l 1,16,-1
 192.2 0 l 1,17,-1
 192.2 244 l 1,18,-1
 391.1 397 l 2,19,20
 645.8 592 645.8 592 730.4 729 c 128,-1,21
 815 866 815 866 815 1049 c 0,22,23
 815 1222 815 1222 750.65 1312.5 c 128,-1,24
 686.3 1403 686.3 1403 563 1403 c 0,25,26
 456.8 1403 456.8 1403 392.9 1331.5 c 128,-1,27
 329 1260 329 1260 311.9 1124 c 1,0,-1
EndSplineSet
EndChar
StartChar: three
Encoding: 51 51 22
Width: 1354
Flags: HW
Fore
230.25 1450 m 1,0,1
 349.05 1485 349.05 1485 460.65 1502.5 c 128,-1,2
 572.25 1520 572.25 1520 678.45 1520 c 0,3,4
 921.45 1520 921.45 1520 1051.5 1423.5 c 128,-1,5
 1181.55 1327 1181.55 1327 1181.55 1147 c 0,6,7
 1181.55 1012 1181.55 1012 1106.85 928 c 128,-1,8
 1032.15 844 1032.15 844 888.15 815 c 1,9,10
 1063.65 784 1063.65 784 1150.05 682 c 128,-1,11
 1236.45 580 1236.45 580 1236.45 403 c 0,12,13
 1236.45 194 1236.45 194 1087.5 82.5 c 128,-1,14
 938.55 -29 938.55 -29 655.95 -29 c 0,15,16
 549.75 -29 549.75 -29 436.8 -9 c 128,-1,17
 323.85 11 323.85 11 200.55 51 c 1,18,-1
 200.55 379 l 1,19,-1
 309.45 379 l 1,20,21
 319.35 237 319.35 237 389.55 162.5 c 128,-1,22
 459.75 88 459.75 88 583.95 88 c 0,23,24
 720.75 88 720.75 88 795.45 172.5 c 128,-1,25
 870.15 257 870.15 257 870.15 412 c 0,26,27
 870.15 574 870.15 574 792.3 662 c 128,-1,28
 714.45 750 714.45 750 571.35 750 c 2,29,-1
 511.95 750 l 1,30,-1
 511.95 870 l 1,31,-1
 558.75 870 l 2,32,33
 691.05 870 691.05 870 757.65 938 c 128,-1,34
 824.25 1006 824.25 1006 824.25 1141 c 0,35,36
 824.25 1268 824.25 1268 761.7 1335.5 c 128,-1,37
 699.15 1403 699.15 1403 582.15 1403 c 0,38,39
 475.95 1403 475.95 1403 413.85 1338.5 c 128,-1,40
 351.75 1274 351.75 1274 339.15 1151 c 1,41,-1
 230.25 1151 l 1,42,-1
 230.25 1450 l 1,0,1
EndSplineSet
EndChar
StartChar: four
Encoding: 52 52 23
Width: 1353
Flags: HW
Fore
1247.55 0 m 1,0,-1
 507.75 0 l 1,1,-1
 507.75 121 l 1,2,-1
 707.55 121 l 1,3,-1
 707.55 393 l 1,4,-1
 146.85 393 l 1,5,-1
 146.85 508 l 1,6,-1
 709.35 1520 l 1,7,-1
 1047.75 1520 l 1,8,-1
 1047.75 522 l 1,9,-1
 1278.15 522 l 1,10,-1
 1278.15 393 l 1,11,-1
 1047.75 393 l 1,12,-1
 1047.75 121 l 1,13,-1
 1247.55 121 l 1,14,-1
 1247.55 0 l 1,0,-1
707.55 522 m 1,15,-1
 707.55 1247 l 1,16,-1
 307.05 522 l 1,17,-1
 707.55 522 l 1,15,-1
EndSplineSet
EndChar
StartChar: five
Encoding: 53 53 24
Width: 1354
Flags: HW
Fore
1111.4 1493 m 1,0,-1
 1111.4 1231 l 1,1,-1
 392.3 1231 l 1,2,-1
 392.3 903 l 1,3,4
 451.7 954 451.7 954 524.6 980 c 128,-1,5
 597.5 1006 597.5 1006 678.5 1006 c 0,6,7
 926.9 1006 926.9 1006 1070.9 866.5 c 128,-1,8
 1214.9 727 1214.9 727 1214.9 487 c 0,9,10
 1214.9 243 1214.9 243 1070.9 107 c 128,-1,11
 926.9 -29 926.9 -29 667.7 -29 c 0,12,13
 557.9 -29 557.9 -29 449.45 -9 c 128,-1,14
 341 11 341 11 223.1 53 c 1,15,-1
 223.1 379 l 1,16,-1
 331.1 379 l 1,17,18
 336.5 232 336.5 232 399.95 160 c 128,-1,19
 463.4 88 463.4 88 587.6 88 c 0,20,21
 719.9 88 719.9 88 783.8 186.5 c 128,-1,22
 847.7 285 847.7 285 847.7 487 c 0,23,24
 847.7 686 847.7 686 785.15 784.5 c 128,-1,25
 722.6 883 722.6 883 595.7 883 c 0,26,27
 527.3 883 527.3 883 473.75 851.5 c 128,-1,28
 420.2 820 420.2 820 374.3 754 c 1,29,-1
 284.3 754 l 1,30,-1
 284.3 1493 l 1,31,-1
 1111.4 1493 l 1,0,-1
EndSplineSet
EndChar
StartChar: six
Encoding: 54 54 25
Width: 1354
Flags: HW
Fore
525.8 885 m 1,0,1
 584.3 937 584.3 937 656.75 963 c 128,-1,2
 729.2 989 729.2 989 814.7 989 c 0,3,4
 1020.8 989 1020.8 989 1138.25 855 c 128,-1,5
 1255.7 721 1255.7 721 1255.7 487 c 0,6,7
 1255.7 240 1255.7 240 1123.4 105.5 c 128,-1,8
 991.1 -29 991.1 -29 747.2 -29 c 0,9,10
 471.8 -29 471.8 -29 330.05 155.5 c 128,-1,11
 188.3 340 188.3 340 188.3 698 c 0,12,13
 188.3 1105 188.3 1105 345.8 1312.5 c 128,-1,14
 503.3 1520 503.3 1520 812.9 1520 c 0,15,16
 893.9 1520 893.9 1520 986.6 1505 c 128,-1,17
 1079.3 1490 1079.3 1490 1185.5 1460 c 1,18,-1
 1185.5 1196 l 1,19,-1
 1076.6 1196 l 1,20,21
 1054.1 1298 1054.1 1298 991.55 1350.5 c 128,-1,22
 929 1403 929 1403 830 1403 c 0,23,24
 669.8 1403 669.8 1403 598.25 1281 c 128,-1,25
 526.7 1159 526.7 1159 525.8 885 c 1,0,1
726.5 88 m 0,26,27
 819.2 88 819.2 88 858.8 175.5 c 128,-1,28
 898.4 263 898.4 263 898.4 479 c 0,29,30
 898.4 695 898.4 695 858.8 782.5 c 128,-1,31
 819.2 870 819.2 870 726.5 870 c 0,32,33
 633.8 870 633.8 870 594.65 782.5 c 128,-1,34
 555.5 695 555.5 695 555.5 479 c 0,35,36
 555.5 263 555.5 263 594.65 175.5 c 128,-1,37
 633.8 88 633.8 88 726.5 88 c 0,26,27
EndSplineSet
EndChar
StartChar: seven
Encoding: 55 55 26
Width: 1353
Flags: HW
Fore
1200.35 1239 m 1,0,-1
 645.95 0 l 1,1,-1
 463.25 0 l 1,2,-1
 1003.25 1210 l 1,3,-1
 339.95 1210 l 1,4,-1
 339.95 1008 l 1,5,-1
 216.65 1008 l 1,6,-1
 216.65 1493 l 1,7,-1
 1200.35 1493 l 1,8,-1
 1200.35 1239 l 1,0,-1
EndSplineSet
EndChar
StartChar: eight
Encoding: 56 56 27
Width: 1353
Flags: HW
Fore
927.85 795 m 1,0,1
 1088.05 766 1088.05 766 1171.3 664 c 128,-1,2
 1254.55 562 1254.55 562 1254.55 397 c 0,3,4
 1254.55 191 1254.55 191 1114.6 81 c 128,-1,5
 974.65 -29 974.65 -29 710.95 -29 c 0,6,7
 447.25 -29 447.25 -29 306.85 81 c 128,-1,8
 166.45 191 166.45 191 166.45 397 c 0,9,10
 166.45 562 166.45 562 250.15 664 c 128,-1,11
 333.85 766 333.85 766 493.15 795 c 1,12,13
 351.85 831 351.85 831 281.65 915.5 c 128,-1,14
 211.45 1000 211.45 1000 211.45 1130 c 0,15,16
 211.45 1320 211.45 1320 339.25 1420 c 128,-1,17
 467.05 1520 467.05 1520 710.95 1520 c 0,18,19
 953.95 1520 953.95 1520 1082.2 1420 c 128,-1,20
 1210.45 1320 1210.45 1320 1210.45 1130 c 0,21,22
 1210.45 1000 1210.45 1000 1139.8 915.5 c 128,-1,23
 1069.15 831 1069.15 831 927.85 795 c 1,0,1
862.15 1126 m 0,24,25
 862.15 1284 862.15 1284 827.95 1343.5 c 128,-1,26
 793.75 1403 793.75 1403 710.95 1403 c 0,27,28
 627.25 1403 627.25 1403 593.5 1343.5 c 128,-1,29
 559.75 1284 559.75 1284 559.75 1126 c 0,30,31
 559.75 969 559.75 969 593.5 910.5 c 128,-1,32
 627.25 852 627.25 852 710.95 852 c 0,33,34
 794.65 852 794.65 852 828.4 910.5 c 128,-1,35
 862.15 969 862.15 969 862.15 1126 c 0,24,25
897.25 414 m 0,36,37
 897.25 597 897.25 597 855.4 666 c 128,-1,38
 813.55 735 813.55 735 710.95 735 c 0,39,40
 607.45 735 607.45 735 566.05 666 c 128,-1,41
 524.65 597 524.65 597 524.65 414 c 0,42,43
 524.65 229 524.65 229 566.5 158.5 c 128,-1,44
 608.35 88 608.35 88 710.95 88 c 0,45,46
 812.65 88 812.65 88 854.95 158.5 c 128,-1,47
 897.25 229 897.25 229 897.25 414 c 0,36,37
EndSplineSet
EndChar
StartChar: nine
Encoding: 57 57 28
Width: 1352
Flags: HW
Fore
698.55 1403 m 0,0,1
 605.85 1403 605.85 1403 566.7 1315.5 c 128,-1,2
 527.55 1228 527.55 1228 527.55 1012 c 0,3,4
 527.55 796 527.55 796 566.7 708.5 c 128,-1,5
 605.85 621 605.85 621 698.55 621 c 0,6,7
 791.25 621 791.25 621 830.85 708.5 c 128,-1,8
 870.45 796 870.45 796 870.45 1012 c 0,9,10
 870.45 1228 870.45 1228 830.85 1315.5 c 128,-1,11
 791.25 1403 791.25 1403 698.55 1403 c 0,0,1
899.25 608 m 1,12,13
 839.85 555 839.85 555 767.4 528.5 c 128,-1,14
 694.95 502 694.95 502 610.35 502 c 0,15,16
 405.15 502 405.15 502 287.7 635.5 c 128,-1,17
 170.25 769 170.25 769 170.25 1004 c 0,18,19
 170.25 1252 170.25 1252 301.65 1386 c 128,-1,20
 433.05 1520 433.05 1520 676.95 1520 c 0,21,22
 952.35 1520 952.35 1520 1094.55 1335 c 128,-1,23
 1236.75 1150 1236.75 1150 1236.75 793 c 0,24,25
 1236.75 386 1236.75 386 1079.25 178.5 c 128,-1,26
 921.75 -29 921.75 -29 612.15 -29 c 0,27,28
 531.15 -29 531.15 -29 438.45 -14 c 128,-1,29
 345.75 1 345.75 1 239.55 31 c 1,30,-1
 239.55 295 l 1,31,-1
 348.45 295 l 1,32,33
 370.95 193 370.95 193 433.5 140.5 c 128,-1,34
 496.05 88 496.05 88 595.95 88 c 0,35,36
 754.35 88 754.35 88 826.35 210.5 c 128,-1,37
 898.35 333 898.35 333 899.25 608 c 1,12,13
EndSplineSet
EndChar
StartChar: colon
Encoding: 58 58 29
Width: 718
Flags: HW
Fore
206.95 813 m 0,0,1
 206.95 892 206.95 892 256.9 948 c 128,-1,2
 306.85 1004 306.85 1004 377.05 1004 c 0,3,4
 447.25 1004 447.25 1004 497.65 947.5 c 128,-1,5
 548.05 891 548.05 891 548.05 813 c 0,6,7
 548.05 735 548.05 735 498.1 680 c 128,-1,8
 448.15 625 448.15 625 377.05 625 c 0,9,10
 305.95 625 305.95 625 256.45 680 c 128,-1,11
 206.95 735 206.95 735 206.95 813 c 0,0,1
206.95 162 m 0,12,13
 206.95 240 206.95 240 256.9 296 c 128,-1,14
 306.85 352 306.85 352 377.05 352 c 0,15,16
 447.25 352 447.25 352 497.65 296 c 128,-1,17
 548.05 240 548.05 240 548.05 162 c 0,18,19
 548.05 83 548.05 83 497.65 27 c 128,-1,20
 447.25 -29 447.25 -29 377.05 -29 c 0,21,22
 306.85 -29 306.85 -29 256.9 27 c 128,-1,23
 206.95 83 206.95 83 206.95 162 c 0,12,13
EndSplineSet
EndChar
StartChar: semicolon
Encoding: 59 59 30
Width: 711
Flags: HW
Fore
200.2 813 m 0,0,1
 200.2 892 200.2 892 250.15 948 c 128,-1,2
 300.1 1004 300.1 1004 370.3 1004 c 0,3,4
 440.5 1004 440.5 1004 490.9 947.5 c 128,-1,5
 541.3 891 541.3 891 541.3 813 c 0,6,7
 541.3 735 541.3 735 491.35 680 c 128,-1,8
 441.4 625 441.4 625 370.3 625 c 0,9,10
 299.2 625 299.2 625 249.7 680 c 128,-1,11
 200.2 735 200.2 735 200.2 813 c 0,0,1
78.7002 -188 m 1,12,13
 173.2 -105 173.2 -105 217.3 -1.5 c 128,-1,14
 261.4 102 261.4 102 261.4 240 c 2,15,-1
 261.4 328 l 1,16,-1
 517.9 328 l 1,17,18
 517.9 103 517.9 103 434.2 -59 c 128,-1,19
 350.5 -221 350.5 -221 178.6 -330 c 1,20,-1
 78.7002 -188 l 1,12,13
EndSplineSet
EndChar
StartChar: less
Encoding: 60 60 31
Width: 1630
Flags: HW
Fore
1434.9 979 m 1,0,-1
 553.8 641 l 1,1,-1
 1434.9 305 l 1,2,-1
 1434.9 66 l 1,3,-1
 281.1 530 l 1,4,-1
 281.1 756 l 1,5,-1
 1434.9 1219 l 1,6,-1
 1434.9 979 l 1,0,-1
EndSplineSet
EndChar
StartChar: equal
Encoding: 61 61 32
Width: 1630
Flags: HW
Fore
281.1 528 m 1,0,-1
 1434.9 528 l 1,1,-1
 1434.9 301 l 1,2,-1
 281.1 301 l 1,3,-1
 281.1 528 l 1,0,-1
281.1 983 m 1,4,-1
 1434.9 983 l 1,5,-1
 1434.9 756 l 1,6,-1
 281.1 756 l 1,7,-1
 281.1 983 l 1,4,-1
EndSplineSet
EndChar
StartChar: greater
Encoding: 62 62 33
Width: 1630
Flags: HW
Fore
281.1 979 m 1,0,-1
 281.1 1219 l 1,1,-1
 1434.9 756 l 1,2,-1
 1434.9 530 l 1,3,-1
 281.1 66 l 1,4,-1
 281.1 305 l 1,5,-1
 1162.2 641 l 1,6,-1
 281.1 979 l 1,0,-1
EndSplineSet
EndChar
StartChar: question
Encoding: 63 63 34
Width: 1142
Flags: HW
Fore
369.85 162 m 0,0,1
 369.85 240 369.85 240 420.25 296 c 128,-1,2
 470.65 352 470.65 352 540.85 352 c 0,3,4
 611.95 352 611.95 352 662.35 296 c 128,-1,5
 712.75 240 712.75 240 712.75 162 c 0,6,7
 712.75 83 712.75 83 662.35 27 c 128,-1,8
 611.95 -29 611.95 -29 540.85 -29 c 0,9,10
 470.65 -29 470.65 -29 420.25 27 c 128,-1,11
 369.85 83 369.85 83 369.85 162 c 0,0,1
181.75 1452 m 1,12,13
 293.35 1486 293.35 1486 394.15 1503 c 128,-1,14
 494.95 1520 494.95 1520 589.45 1520 c 0,15,16
 816.25 1520 816.25 1520 937.75 1409.5 c 128,-1,17
 1059.25 1299 1059.25 1299 1059.25 1094 c 0,18,19
 1059.25 892 1059.25 892 941.8 775.5 c 128,-1,20
 824.35 659 824.35 659 603.85 641 c 1,21,-1
 603.85 436 l 1,22,-1
 478.75 436 l 1,23,-1
 478.75 735 l 1,24,25
 604.75 778 604.75 778 663.25 870 c 128,-1,26
 721.75 962 721.75 962 721.75 1116 c 0,27,28
 721.75 1260 721.75 1260 666.85 1333.5 c 128,-1,29
 611.95 1407 611.95 1407 504.85 1407 c 0,30,31
 405.85 1407 405.85 1407 352.3 1341 c 128,-1,32
 298.75 1275 298.75 1275 290.65 1145 c 1,33,-1
 181.75 1145 l 1,34,-1
 181.75 1452 l 1,12,13
EndSplineSet
EndChar
StartChar: at
Encoding: 64 64 35
Width: 1945
Flags: HW
Fore
1246.7 504 m 2,0,-1
 1246.7 580 l 2,1,2
 1246.7 709 1246.7 709 1190.9 787.5 c 128,-1,3
 1135.1 866 1135.1 866 1044.2 866 c 0,4,5
 955.1 866 955.1 866 900.65 778.5 c 128,-1,6
 846.2 691 846.2 691 846.2 543 c 0,7,8
 846.2 395 846.2 395 900.65 307 c 128,-1,9
 955.1 219 955.1 219 1044.2 219 c 0,10,11
 1135.1 219 1135.1 219 1190.9 296.5 c 128,-1,12
 1246.7 374 1246.7 374 1246.7 504 c 2,0,-1
1246.7 240 m 1,13,14
 1207.1 168 1207.1 168 1142.75 130 c 128,-1,15
 1078.4 92 1078.4 92 997.4 92 c 0,16,17
 825.5 92 825.5 92 727.4 212 c 128,-1,18
 629.3 332 629.3 332 629.3 543 c 0,19,20
 629.3 754 629.3 754 727.4 873.5 c 128,-1,21
 825.5 993 825.5 993 997.4 993 c 0,22,23
 1078.4 993 1078.4 993 1142.75 955 c 128,-1,24
 1207.1 917 1207.1 917 1246.7 846 c 1,25,-1
 1246.7 971 l 1,26,-1
 1443.8 971 l 1,27,-1
 1443.8 229 l 1,28,29
 1572.5 268 1572.5 268 1642.7 385 c 128,-1,30
 1712.9 502 1712.9 502 1712.9 678 c 0,31,32
 1712.9 821 1712.9 821 1663.4 938 c 128,-1,33
 1613.9 1055 1613.9 1055 1512.2 1151 c 0,34,35
 1429.4 1229 1429.4 1229 1317.8 1271 c 128,-1,36
 1206.2 1313 1206.2 1313 1080.2 1313 c 0,37,38
 963.2 1313 963.2 1313 861.5 1278 c 128,-1,39
 759.8 1243 759.8 1243 675.2 1174 c 0,40,41
 547.4 1068 547.4 1068 478.55 904 c 128,-1,42
 409.7 740 409.7 740 409.7 543 c 0,43,44
 409.7 388 409.7 388 453.35 250.5 c 128,-1,45
 497 113 497 113 577.1 12 c 0,46,47
 673.4 -107 673.4 -107 798.95 -168 c 128,-1,48
 924.5 -229 924.5 -229 1071.2 -229 c 0,49,50
 1181 -229 1181 -229 1283.6 -195 c 128,-1,51
 1386.2 -161 1386.2 -161 1478.9 -94 c 1,52,-1
 1530.2 -188 l 1,53,54
 1415 -272 1415 -272 1290.35 -314 c 128,-1,55
 1165.7 -356 1165.7 -356 1036.1 -356 c 0,56,57
 861.5 -356 861.5 -356 715.7 -293 c 128,-1,58
 569.9 -230 569.9 -230 455.6 -104 c 0,59,60
 342.2 20 342.2 20 282.8 185.5 c 128,-1,61
 223.4 351 223.4 351 223.4 543 c 0,62,63
 223.4 735 223.4 735 282.8 900 c 128,-1,64
 342.2 1065 342.2 1065 455.6 1190 c 0,65,66
 570.8 1316 570.8 1316 717.95 1378 c 128,-1,67
 865.1 1440 865.1 1440 1049.6 1440 c 0,68,69
 1209.8 1440 1209.8 1440 1341.2 1391.5 c 128,-1,70
 1472.6 1343 1472.6 1343 1576.1 1245 c 1,71,72
 1695.8 1134 1695.8 1134 1755.2 992 c 128,-1,73
 1814.6 850 1814.6 850 1814.6 676 c 0,74,75
 1814.6 400 1814.6 400 1672.4 246 c 128,-1,76
 1530.2 92 1530.2 92 1274.6 92 c 2,77,-1
 1246.7 92 l 1,78,-1
 1246.7 240 l 1,13,14
EndSplineSet
EndChar
StartChar: A
Encoding: 65 65 36
Width: 1509
Flags: HW
Fore
65.4004 0 m 1,0,-1
 65.4004 121 l 1,1,-1
 175.2 121 l 1,2,-1
 681 1493 l 1,3,-1
 896.1 1493 l 1,4,-1
 1402.8 121 l 1,5,-1
 1530.6 121 l 1,6,-1
 1530.6 0 l 1,7,-1
 901.5 0 l 1,8,-1
 901.5 121 l 1,9,-1
 1032.9 121 l 1,10,-1
 922.2 426 l 1,11,-1
 417.3 426 l 1,12,-1
 304.8 121 l 1,13,-1
 465 121 l 1,14,-1
 465 0 l 1,15,-1
 65.4004 0 l 1,0,-1
461.4 547 m 1,16,-1
 878.1 547 l 1,17,-1
 671.1 1118 l 1,18,-1
 461.4 547 l 1,16,-1
EndSplineSet
KernsSLIF: 357 -36 0 0 356 -112 0 0 253 -83 0 0 221 -102 0 0 64258 -36 0 0 64257 -36 0 0 376 -102 0 0 255 -83 0 0 8217 -243 0 0 8221 -243 0 0 121 -83 0 0 119 -83 0 0 118 -83 0 0 116 -36 0 0 102 -36 0 0 89 -102 0 0 87 -102 0 0 86 -149 0 0 84 -112 0 0
EndChar
StartChar: B
Encoding: 66 66 37
Width: 1643
Flags: HW
Fore
172.1 0 m 1,0,-1
 172.1 121 l 1,1,-1
 344 121 l 1,2,-1
 344 1372 l 1,3,-1
 172.1 1372 l 1,4,-1
 172.1 1493 l 1,5,-1
 968.6 1493 l 2,6,7
 1214.3 1493 1214.3 1493 1337.6 1401 c 128,-1,8
 1460.9 1309 1460.9 1309 1460.9 1124 c 0,9,10
 1460.9 991 1460.9 991 1375.85 913 c 128,-1,11
 1290.8 835 1290.8 835 1123.4 815 c 1,12,13
 1325.9 794 1325.9 794 1433.9 695 c 128,-1,14
 1541.9 596 1541.9 596 1541.9 432 c 0,15,16
 1541.9 210 1541.9 210 1391.15 105 c 128,-1,17
 1240.4 0 1240.4 0 919.1 0 c 2,18,-1
 172.1 0 l 1,0,-1
690.5 870 m 1,19,-1
 808.4 870 l 2,20,21
 963.2 870 963.2 870 1037.9 932.5 c 128,-1,22
 1112.6 995 1112.6 995 1112.6 1124 c 0,23,24
 1112.6 1254 1112.6 1254 1040.15 1313 c 128,-1,25
 967.7 1372 967.7 1372 808.4 1372 c 2,26,-1
 690.5 1372 l 1,27,-1
 690.5 870 l 1,19,-1
690.5 121 m 1,28,-1
 819.2 121 l 2,29,30
 991.1 121 991.1 121 1073.9 197 c 128,-1,31
 1156.7 273 1156.7 273 1156.7 432 c 0,32,33
 1156.7 592 1156.7 592 1073 671 c 128,-1,34
 989.3 750 989.3 750 819.2 750 c 2,35,-1
 690.5 750 l 1,36,-1
 690.5 121 l 1,28,-1
EndSplineSet
KernsSLIF: 268 38 0 0 262 38 0 0 286 38 0 0 221 -36 0 0 210 38 0 0 212 38 0 0 211 38 0 0 376 -36 0 0 338 38 0 0 213 38 0 0 216 38 0 0 214 38 0 0 199 38 0 0 89 -36 0 0 79 38 0 0 71 38 0 0 67 38 0 0 45 38 0 0
EndChar
StartChar: C
Encoding: 67 67 38
Width: 1547
Flags: HW
Fore
1454 426 m 1,0,1
 1400.9 195 1400.9 195 1263.2 83 c 128,-1,2
 1125.5 -29 1125.5 -29 893.3 -29 c 0,3,4
 553.1 -29 553.1 -29 355.55 179.5 c 128,-1,5
 158 388 158 388 158 745 c 0,6,7
 158 1103 158 1103 355.55 1311.5 c 128,-1,8
 553.1 1520 553.1 1520 893.3 1520 c 0,9,10
 1013 1520 1013 1520 1142.6 1488 c 128,-1,11
 1272.2 1456 1272.2 1456 1417.1 1391 c 1,12,-1
 1417.1 1024 l 1,13,-1
 1302.8 1024 l 1,14,15
 1267.7 1212 1267.7 1212 1175 1305.5 c 128,-1,16
 1082.3 1399 1082.3 1399 930.2 1399 c 0,17,18
 734 1399 734 1399 638.6 1238.5 c 128,-1,19
 543.2 1078 543.2 1078 543.2 745 c 0,20,21
 543.2 412 543.2 412 638.6 252 c 128,-1,22
 734 92 734 92 932 92 c 0,23,24
 1066.1 92 1066.1 92 1151.15 175 c 128,-1,25
 1236.2 258 1236.2 258 1274.9 426 c 1,26,-1
 1454 426 l 1,0,1
EndSplineSet
KernsSLIF: 46 -36 0 0 44 -36 0 0
EndChar
StartChar: D
Encoding: 68 68 39
Width: 1687
Flags: HW
Fore
694.1 121 m 1,0,-1
 819.2 121 l 2,1,2
 1029.8 121 1029.8 121 1127.45 271 c 128,-1,3
 1225.1 421 1225.1 421 1225.1 748 c 0,4,5
 1225.1 1073 1225.1 1073 1127.9 1222.5 c 128,-1,6
 1030.7 1372 1030.7 1372 819.2 1372 c 2,7,-1
 694.1 1372 l 1,8,-1
 694.1 121 l 1,0,-1
175.7 0 m 1,9,-1
 175.7 121 l 1,10,-1
 347.6 121 l 1,11,-1
 347.6 1372 l 1,12,-1
 175.7 1372 l 1,13,-1
 175.7 1493 l 1,14,-1
 865.1 1493 l 2,15,16
 1226.9 1493 1226.9 1493 1418.6 1301 c 128,-1,17
 1610.3 1109 1610.3 1109 1610.3 748 c 0,18,19
 1610.3 385 1610.3 385 1418.15 192.5 c 128,-1,20
 1226 0 1226 0 865.1 0 c 2,21,-1
 175.7 0 l 1,9,-1
EndSplineSet
KernsSLIF: 86 -36 0 0 46 -73 0 0 45 38 0 0 44 -73 0 0
EndChar
StartChar: E
Encoding: 69 69 40
Width: 1482
Flags: HW
Fore
164 0 m 1,0,-1
 164 121 l 1,1,-1
 335.9 121 l 1,2,-1
 335.9 1372 l 1,3,-1
 164 1372 l 1,4,-1
 164 1493 l 1,5,-1
 1371.8 1493 l 1,6,-1
 1371.8 1141 l 1,7,-1
 1247.6 1141 l 1,8,-1
 1247.6 1356 l 1,9,-1
 682.4 1356 l 1,10,-1
 682.4 877 l 1,11,-1
 1034.3 877 l 1,12,-1
 1034.3 1067 l 1,13,-1
 1157.6 1067 l 1,14,-1
 1157.6 551 l 1,15,-1
 1034.3 551 l 1,16,-1
 1034.3 741 l 1,17,-1
 682.4 741 l 1,18,-1
 682.4 137 l 1,19,-1
 1264.7 137 l 1,20,-1
 1264.7 352 l 1,21,-1
 1388 352 l 1,22,-1
 1388 0 l 1,23,-1
 164 0 l 1,0,-1
EndSplineSet
KernsSLIF: 45 38 0 0
EndChar
StartChar: F
Encoding: 70 70 41
Width: 1384
Flags: HW
Fore
162.55 0 m 1,0,-1
 162.55 121 l 1,1,-1
 334.45 121 l 1,2,-1
 334.45 1372 l 1,3,-1
 162.55 1372 l 1,4,-1
 162.55 1493 l 1,5,-1
 1360.45 1493 l 1,6,-1
 1360.45 1141 l 1,7,-1
 1237.15 1141 l 1,8,-1
 1237.15 1356 l 1,9,-1
 682.75 1356 l 1,10,-1
 682.75 877 l 1,11,-1
 1023.85 877 l 1,12,-1
 1023.85 1067 l 1,13,-1
 1147.15 1067 l 1,14,-1
 1147.15 551 l 1,15,-1
 1023.85 551 l 1,16,-1
 1023.85 741 l 1,17,-1
 682.75 741 l 1,18,-1
 682.75 121 l 1,19,-1
 894.25 121 l 1,20,-1
 894.25 0 l 1,21,-1
 162.55 0 l 1,0,-1
EndSplineSet
KernsSLIF: 252 -36 0 0 229 -112 0 0 230 -112 0 0 59 -73 0 0 242 -112 0 0 45 -92 0 0 46 -206 0 0 367 -36 0 0 245 -112 0 0 235 -112 0 0 249 -36 0 0 44 -206 0 0 224 -112 0 0 195 -120 0 0 234 -112 0 0 341 -36 0 0 232 -112 0 0 196 -120 0 0 193 -120 0 0 251 -36 0 0 227 -112 0 0 194 -120 0 0 248 -112 0 0 244 -112 0 0 65 -120 0 0 97 -112 0 0 228 -112 0 0 246 -112 0 0 250 -36 0 0 225 -112 0 0 345 -36 0 0 226 -112 0 0 233 -112 0 0 283 -112 0 0 101 -112 0 0 339 -112 0 0 111 -112 0 0 114 -36 0 0 117 -36 0 0 192 -120 0 0 58 -73 0 0 243 -112 0 0
EndChar
StartChar: G
Encoding: 71 71 42
Width: 1657
Flags: HW
Fore
1351.75 1024 m 1,0,1
 1311.25 1222 1311.25 1222 1216.75 1310.5 c 128,-1,2
 1122.25 1399 1122.25 1399 950.35 1399 c 0,3,4
 741.55 1399 741.55 1399 643.9 1241.5 c 128,-1,5
 546.25 1084 546.25 1084 546.25 745 c 0,6,7
 546.25 409 546.25 409 639.85 250.5 c 128,-1,8
 733.45 92 733.45 92 931.45 92 c 0,9,10
 1007.05 92 1007.05 92 1071.85 111 c 128,-1,11
 1136.65 130 1136.65 130 1189.75 168 c 1,12,-1
 1189.75 578 l 1,13,-1
 1027.75 578 l 1,14,-1
 1027.75 698 l 1,15,-1
 1511.95 698 l 1,16,-1
 1511.95 125 l 1,17,18
 1360.75 47 1360.75 47 1210 9 c 128,-1,19
 1059.25 -29 1059.25 -29 901.75 -29 c 0,20,21
 556.15 -29 556.15 -29 358.6 178 c 128,-1,22
 161.05 385 161.05 385 161.05 745 c 0,23,24
 161.05 1106 161.05 1106 358.6 1313 c 128,-1,25
 556.15 1520 556.15 1520 901.75 1520 c 0,26,27
 1045.75 1520 1045.75 1520 1185.25 1488 c 128,-1,28
 1324.75 1456 1324.75 1456 1466.05 1391 c 1,29,-1
 1466.05 1024 l 1,30,-1
 1351.75 1024 l 1,0,1
EndSplineSet
KernsSLIF: 46 -73 0 0 45 38 0 0 44 -73 0 0
EndChar
StartChar: H
Encoding: 72 72 43
Width: 1838
Flags: HW
Fore
183.35 0 m 1,0,-1
 183.35 121 l 1,1,-1
 355.25 121 l 1,2,-1
 355.25 1372 l 1,3,-1
 183.35 1372 l 1,4,-1
 183.35 1493 l 1,5,-1
 874.55 1493 l 1,6,-1
 874.55 1372 l 1,7,-1
 701.75 1372 l 1,8,-1
 701.75 870 l 1,9,-1
 1236.35 870 l 1,10,-1
 1236.35 1372 l 1,11,-1
 1064.45 1372 l 1,12,-1
 1064.45 1493 l 1,13,-1
 1755.65 1493 l 1,14,-1
 1755.65 1372 l 1,15,-1
 1582.85 1372 l 1,16,-1
 1582.85 121 l 1,17,-1
 1755.65 121 l 1,18,-1
 1755.65 0 l 1,19,-1
 1064.45 0 l 1,20,-1
 1064.45 121 l 1,21,-1
 1236.35 121 l 1,22,-1
 1236.35 733 l 1,23,-1
 701.75 733 l 1,24,-1
 701.75 121 l 1,25,-1
 874.55 121 l 1,26,-1
 874.55 0 l 1,27,-1
 183.35 0 l 1,0,-1
EndSplineSet
EndChar
StartChar: I
Encoding: 73 73 44
Width: 910
Flags: HW
Fore
134.4 0 m 1,0,-1
 134.4 121 l 1,1,-1
 306.3 121 l 1,2,-1
 306.3 1372 l 1,3,-1
 134.4 1372 l 1,4,-1
 134.4 1493 l 1,5,-1
 825.6 1493 l 1,6,-1
 825.6 1372 l 1,7,-1
 652.8 1372 l 1,8,-1
 652.8 121 l 1,9,-1
 825.6 121 l 1,10,-1
 825.6 0 l 1,11,-1
 134.4 0 l 1,0,-1
EndSplineSet
EndChar
StartChar: J
Encoding: 74 74 45
Width: 909
Flags: HW
Fore
-97.9502 -358 m 1,0,-1
 -97.9502 -123 l 1,1,-1
 19.0498 -123 l 1,2,3
 24.4502 -217 24.4502 -217 59.0996 -261 c 128,-1,4
 93.75 -305 93.75 -305 162.15 -305 c 0,5,6
 249.45 -305 249.45 -305 284.1 -230.5 c 128,-1,7
 318.75 -156 318.75 -156 318.75 49 c 2,8,-1
 318.75 1372 l 1,9,-1
 123.45 1372 l 1,10,-1
 123.45 1493 l 1,11,-1
 838.95 1493 l 1,12,-1
 838.95 1372 l 1,13,-1
 667.05 1372 l 1,14,-1
 667.05 41 l 2,15,16
 667.05 -202 667.05 -202 556.8 -314 c 128,-1,17
 446.55 -426 446.55 -426 206.25 -426 c 0,18,19
 131.55 -426 131.55 -426 55.9502 -409 c 128,-1,20
 -19.6504 -392 -19.6504 -392 -97.9502 -358 c 1,0,-1
EndSplineSet
KernsSLIF: 59 -83 0 0 58 -83 0 0 46 -159 0 0 44 -83 0 0
EndChar
StartChar: K
Encoding: 75 75 46
Width: 1698
Flags: HW
Fore
183.35 0 m 1,0,-1
 183.35 121 l 1,1,-1
 355.25 121 l 1,2,-1
 355.25 1372 l 1,3,-1
 183.35 1372 l 1,4,-1
 183.35 1493 l 1,5,-1
 874.55 1493 l 1,6,-1
 874.55 1372 l 1,7,-1
 701.75 1372 l 1,8,-1
 701.75 827 l 1,9,-1
 1271.45 1372 l 1,10,-1
 1127.45 1372 l 1,11,-1
 1127.45 1493 l 1,12,-1
 1628.75 1493 l 1,13,-1
 1628.75 1372 l 1,14,-1
 1449.65 1372 l 1,15,-1
 967.25 911 l 1,16,-1
 1623.35 121 l 1,17,-1
 1755.65 121 l 1,18,-1
 1755.65 0 l 1,19,-1
 1300.25 0 l 1,20,-1
 701.75 725 l 1,21,-1
 701.75 121 l 1,22,-1
 874.55 121 l 1,23,-1
 874.55 0 l 1,24,-1
 183.35 0 l 1,0,-1
EndSplineSet
KernsSLIF: 367 -45 0 0 366 -73 0 0 283 -45 0 0 268 -55 0 0 262 -55 0 0 253 -92 0 0 221 -55 0 0 217 -73 0 0 219 -73 0 0 218 -73 0 0 210 -55 0 0 212 -55 0 0 211 -55 0 0 193 -83 0 0 194 -83 0 0 376 -55 0 0 255 -92 0 0 339 -45 0 0 338 -55 0 0 213 -55 0 0 195 -83 0 0 192 -83 0 0 248 -36 0 0 216 -55 0 0 252 -45 0 0 251 -45 0 0 249 -45 0 0 250 -45 0 0 245 -45 0 0 246 -45 0 0 244 -45 0 0 242 -45 0 0 243 -45 0 0 235 -45 0 0 234 -45 0 0 232 -45 0 0 233 -45 0 0 220 -73 0 0 214 -55 0 0 199 -55 0 0 196 -83 0 0 121 -92 0 0 117 -45 0 0 111 -45 0 0 101 -45 0 0 89 -55 0 0 87 -73 0 0 85 -73 0 0 79 -55 0 0 67 -55 0 0 65 -83 0 0 45 -149 0 0
EndChar
StartChar: L
Encoding: 76 76 47
Width: 1370
Flags: HW
Fore
160.95 0 m 1,0,-1
 160.95 121 l 1,1,-1
 332.85 121 l 1,2,-1
 332.85 1372 l 1,3,-1
 160.95 1372 l 1,4,-1
 160.95 1493 l 1,5,-1
 852.15 1493 l 1,6,-1
 852.15 1372 l 1,7,-1
 679.35 1372 l 1,8,-1
 679.35 137 l 1,9,-1
 1208.55 137 l 1,10,-1
 1208.55 373 l 1,11,-1
 1330.05 373 l 1,12,-1
 1330.05 0 l 1,13,-1
 160.95 0 l 1,0,-1
EndSplineSet
KernsSLIF: 366 -112 0 0 356 -167 0 0 253 -73 0 0 221 -131 0 0 217 -112 0 0 219 -112 0 0 218 -112 0 0 376 -131 0 0 255 -73 0 0 8217 -491 0 0 8216 -491 0 0 8221 -491 0 0 8220 -491 0 0 220 -112 0 0 121 -73 0 0 89 -131 0 0 87 -139 0 0 86 -243 0 0 85 -112 0 0 84 -167 0 0
EndChar
StartChar: M
Encoding: 77 77 48
Width: 2153
Flags: HW
Fore
190.25 0 m 1,0,-1
 190.25 121 l 1,1,-1
 361.25 121 l 1,2,-1
 361.25 1372 l 1,3,-1
 190.25 1372 l 1,4,-1
 190.25 1493 l 1,5,-1
 744.65 1493 l 1,6,-1
 1128.05 535 l 1,7,-1
 1513.25 1493 l 1,8,-1
 2066.75 1493 l 1,9,-1
 2066.75 1372 l 1,10,-1
 1894.85 1372 l 1,11,-1
 1894.85 121 l 1,12,-1
 2066.75 121 l 1,13,-1
 2066.75 0 l 1,14,-1
 1375.55 0 l 1,15,-1
 1375.55 121 l 1,16,-1
 1546.55 121 l 1,17,-1
 1546.55 1260 l 1,18,-1
 1129.85 219 l 1,19,-1
 902.15 219 l 1,20,-1
 487.25 1260 l 1,21,-1
 487.25 121 l 1,22,-1
 658.25 121 l 1,23,-1
 658.25 0 l 1,24,-1
 190.25 0 l 1,0,-1
EndSplineSet
EndChar
StartChar: N
Encoding: 78 78 49
Width: 1778
Flags: HW
Fore
175 0 m 1,0,-1
 175 121 l 1,1,-1
 346.9 121 l 1,2,-1
 346.9 1372 l 1,3,-1
 175 1372 l 1,4,-1
 175 1493 l 1,5,-1
 595.3 1493 l 1,6,-1
 1406.2 436 l 1,7,-1
 1406.2 1372 l 1,8,-1
 1235.2 1372 l 1,9,-1
 1235.2 1493 l 1,10,-1
 1705 1493 l 1,11,-1
 1705 1372 l 1,12,-1
 1533.1 1372 l 1,13,-1
 1533.1 0 l 1,14,-1
 1297.3 0 l 1,15,-1
 473.8 1079 l 1,16,-1
 473.8 121 l 1,17,-1
 644.8 121 l 1,18,-1
 644.8 0 l 1,19,-1
 175 0 l 1,0,-1
EndSplineSet
KernsSLIF: 59 -73 0 0 58 -73 0 0 46 -131 0 0 44 -131 0 0
EndChar
StartChar: O
Encoding: 79 79 50
Width: 1694
Flags: HW
Fore
891 92 m 0,0,1
 1062.9 92 1062.9 92 1146.6 253 c 128,-1,2
 1230.3 414 1230.3 414 1230.3 745 c 0,3,4
 1230.3 1077 1230.3 1077 1146.6 1238 c 128,-1,5
 1062.9 1399 1062.9 1399 891 1399 c 0,6,7
 720 1399 720 1399 635.85 1236.5 c 128,-1,8
 551.7 1074 551.7 1074 551.7 745 c 0,9,10
 551.7 417 551.7 417 635.85 254.5 c 128,-1,11
 720 92 720 92 891 92 c 0,0,1
891 -29 m 0,12,13
 551.7 -29 551.7 -29 359.1 177 c 128,-1,14
 166.5 383 166.5 383 166.5 745 c 0,15,16
 166.5 1107 166.5 1107 359.55 1313.5 c 128,-1,17
 552.6 1520 552.6 1520 891 1520 c 0,18,19
 1230.3 1520 1230.3 1520 1422.9 1314 c 128,-1,20
 1615.5 1108 1615.5 1108 1615.5 745 c 0,21,22
 1615.5 383 1615.5 383 1422.45 177 c 128,-1,23
 1229.4 -29 1229.4 -29 891 -29 c 0,12,13
EndSplineSet
KernsSLIF: 88 -36 0 0 86 -36 0 0 46 -120 0 0 45 75 0 0 44 -120 0 0
EndChar
StartChar: P
Encoding: 80 80 51
Width: 1465
Flags: HW
Fore
165.65 0 m 1,0,-1
 165.65 121 l 1,1,-1
 337.55 121 l 1,2,-1
 337.55 1372 l 1,3,-1
 165.65 1372 l 1,4,-1
 165.65 1493 l 1,5,-1
 930.65 1493 l 2,6,7
 1154.75 1493 1154.75 1493 1287.05 1374.5 c 128,-1,8
 1419.35 1256 1419.35 1256 1419.35 1057 c 0,9,10
 1419.35 857 1419.35 857 1286.6 737.5 c 128,-1,11
 1153.85 618 1153.85 618 930.65 618 c 2,12,-1
 684.05 618 l 1,13,-1
 684.05 121 l 1,14,-1
 900.95 121 l 1,15,-1
 900.95 0 l 1,16,-1
 165.65 0 l 1,0,-1
684.05 739 m 1,17,-1
 784.85 739 l 2,18,19
 901.85 739 901.85 739 971.6 825.5 c 128,-1,20
 1041.35 912 1041.35 912 1041.35 1057 c 0,21,22
 1041.35 1201 1041.35 1201 972.05 1286.5 c 128,-1,23
 902.75 1372 902.75 1372 784.85 1372 c 2,24,-1
 684.05 1372 l 1,25,-1
 684.05 739 l 1,17,-1
EndSplineSet
KernsSLIF: 283 -55 0 0 193 -149 0 0 194 -149 0 0 8222 -264 0 0 8218 -264 0 0 339 -55 0 0 195 -149 0 0 192 -149 0 0 248 -55 0 0 230 -55 0 0 245 -55 0 0 246 -55 0 0 244 -55 0 0 242 -55 0 0 243 -55 0 0 235 -55 0 0 234 -55 0 0 232 -55 0 0 233 -55 0 0 229 -55 0 0 227 -55 0 0 228 -55 0 0 226 -55 0 0 224 -55 0 0 225 -55 0 0 196 -149 0 0 111 -55 0 0 101 -55 0 0 97 -55 0 0 65 -149 0 0 59 -73 0 0 58 -73 0 0 46 -339 0 0 45 -112 0 0 44 -264 0 0
EndChar
StartChar: Q
Encoding: 81 81 52
Width: 1694
Flags: HW
Fore
885.6 -29 m 1,0,1
 545.4 -23 545.4 -23 355.95 181 c 128,-1,2
 166.5 385 166.5 385 166.5 745 c 0,3,4
 166.5 1107 166.5 1107 359.55 1313.5 c 128,-1,5
 552.6 1520 552.6 1520 891 1520 c 0,6,7
 1230.3 1520 1230.3 1520 1422.9 1314 c 128,-1,8
 1615.5 1108 1615.5 1108 1615.5 745 c 0,9,10
 1615.5 427 1615.5 427 1467.45 229 c 128,-1,11
 1319.4 31 1319.4 31 1045.8 -16 c 1,12,13
 1093.5 -73 1093.5 -73 1161.9 -98 c 128,-1,14
 1230.3 -123 1230.3 -123 1339.2 -123 c 2,15,-1
 1385.1 -123 l 1,16,-1
 1385.1 -369 l 1,17,-1
 1359 -369 l 2,18,19
 1188 -369 1188 -369 1073.7 -287 c 128,-1,20
 959.4 -205 959.4 -205 885.6 -29 c 1,0,1
891 92 m 0,21,22
 1062.9 92 1062.9 92 1146.6 253 c 128,-1,23
 1230.3 414 1230.3 414 1230.3 745 c 0,24,25
 1230.3 1077 1230.3 1077 1146.6 1238 c 128,-1,26
 1062.9 1399 1062.9 1399 891 1399 c 0,27,28
 720 1399 720 1399 635.85 1236.5 c 128,-1,29
 551.7 1074 551.7 1074 551.7 745 c 0,30,31
 551.7 417 551.7 417 635.85 254.5 c 128,-1,32
 720 92 720 92 891 92 c 0,21,22
EndSplineSet
KernsSLIF: 46 -102 0 0 45 75 0 0 44 -102 0 0
EndChar
StartChar: R
Encoding: 82 82 53
Width: 1622
Flags: HW
Fore
1068.8 729 m 1,0,1
 1148.9 716 1148.9 716 1203.8 670 c 128,-1,2
 1258.7 624 1258.7 624 1299.2 537 c 2,3,-1
 1495.4 121 l 1,4,-1
 1633.1 121 l 1,5,-1
 1633.1 0 l 1,6,-1
 1191.2 0 l 1,7,-1
 977 451 l 1,8,9
 914.9 591 914.9 591 871.25 629.5 c 128,-1,10
 827.6 668 827.6 668 750.2 668 c 2,11,-1
 695.3 668 l 1,12,-1
 695.3 121 l 1,13,-1
 868.1 121 l 1,14,-1
 868.1 0 l 1,15,-1
 176.9 0 l 1,16,-1
 176.9 121 l 1,17,-1
 348.8 121 l 1,18,-1
 348.8 1372 l 1,19,-1
 176.9 1372 l 1,20,-1
 176.9 1493 l 1,21,-1
 943.7 1493 l 2,22,23
 1177.7 1493 1177.7 1493 1305.05 1388.5 c 128,-1,24
 1432.4 1284 1432.4 1284 1432.4 1092 c 0,25,26
 1432.4 936 1432.4 936 1341.95 845.5 c 128,-1,27
 1251.5 755 1251.5 755 1068.8 729 c 1,0,1
695.3 788 m 1,28,-1
 813.2 788 l 2,29,30
 939.2 788 939.2 788 1007.15 864 c 128,-1,31
 1075.1 940 1075.1 940 1075.1 1081 c 0,32,33
 1075.1 1222 1075.1 1222 1007.15 1297 c 128,-1,34
 939.2 1372 939.2 1372 813.2 1372 c 2,35,-1
 695.3 1372 l 1,36,-1
 695.3 788 l 1,28,-1
EndSplineSet
KernsSLIF: 356 -36 0 0 253 -36 0 0 221 -63 0 0 376 -63 0 0 255 -36 0 0 8217 -73 0 0 8221 -73 0 0 248 38 0 0 230 47 0 0 229 47 0 0 227 47 0 0 228 47 0 0 226 47 0 0 224 47 0 0 225 47 0 0 121 -36 0 0 97 47 0 0 89 -63 0 0 87 -45 0 0 86 -73 0 0 84 -36 0 0
EndChar
StartChar: S
Encoding: 83 83 54
Width: 1405
Flags: HW
Fore
216.75 72 m 1,0,-1
 216.75 426 l 1,1,-1
 331.05 426 l 1,2,3
 357.15 258 357.15 258 454.35 175 c 128,-1,4
 551.55 92 551.55 92 723.45 92 c 0,5,6
 862.95 92 862.95 92 935.85 151 c 128,-1,7
 1008.75 210 1008.75 210 1008.75 324 c 0,8,9
 1008.75 414 1008.75 414 959.25 464 c 128,-1,10
 909.75 514 909.75 514 754.95 557 c 2,11,-1
 553.35 612 l 1,12,13
 356.25 668 356.25 668 276.15 767.5 c 128,-1,14
 196.05 867 196.05 867 196.05 1051 c 0,15,16
 196.05 1273 196.05 1273 328.8 1396.5 c 128,-1,17
 461.55 1520 461.55 1520 700.95 1520 c 0,18,19
 818.85 1520 818.85 1520 946.2 1498 c 128,-1,20
 1073.55 1476 1073.55 1476 1210.35 1432 c 1,21,-1
 1210.35 1102 l 1,22,-1
 1096.05 1102 l 1,23,24
 1069.95 1256 1069.95 1256 981.75 1327.5 c 128,-1,25
 893.55 1399 893.55 1399 730.65 1399 c 0,26,27
 597.45 1399 597.45 1399 529.5 1347.5 c 128,-1,28
 461.55 1296 461.55 1296 461.55 1194 c 0,29,30
 461.55 1101 461.55 1101 508.35 1052.5 c 128,-1,31
 555.15 1004 555.15 1004 737.85 952 c 1,32,-1
 939.45 897 l 2,33,34
 1126.65 845 1126.65 845 1210.8 735 c 128,-1,35
 1294.95 625 1294.95 625 1294.95 432 c 0,36,37
 1294.95 206 1294.95 206 1154.55 88.5 c 128,-1,38
 1014.15 -29 1014.15 -29 741.45 -29 c 0,39,40
 610.05 -29 610.05 -29 480.45 -4 c 128,-1,41
 350.85 21 350.85 21 216.75 72 c 1,0,-1
EndSplineSet
KernsSLIF: 350 -45 0 0 352 -45 0 0 83 -45 0 0 46 -73 0 0 45 75 0 0 44 -73 0 0
EndChar
StartChar: T
Encoding: 84 84 55
Width: 1447
Flags: HW
Fore
410.2 0 m 1,0,-1
 410.2 121 l 1,1,-1
 588.4 121 l 1,2,-1
 588.4 1356 l 1,3,-1
 220.3 1356 l 1,4,-1
 220.3 1120 l 1,5,-1
 97 1120 l 1,6,-1
 97 1493 l 1,7,-1
 1429 1493 l 1,8,-1
 1429 1120 l 1,9,-1
 1307.5 1120 l 1,10,-1
 1307.5 1356 l 1,11,-1
 936.7 1356 l 1,12,-1
 936.7 121 l 1,13,-1
 1115.8 121 l 1,14,-1
 1115.8 0 l 1,15,-1
 410.2 0 l 1,0,-1
EndSplineSet
KernsSLIF: 252 -188 0 0 229 -196 0 0 230 -159 0 0 59 -73 0 0 242 -235 0 0 255 -225 0 0 45 -339 0 0 8222 -149 0 0 367 -188 0 0 245 -235 0 0 235 -235 0 0 249 -188 0 0 44 -225 0 0 224 -196 0 0 195 -112 0 0 234 -235 0 0 231 -235 0 0 341 -149 0 0 232 -235 0 0 196 -112 0 0 193 -112 0 0 269 -235 0 0 345 -149 0 0 233 -235 0 0 251 -188 0 0 253 -225 0 0 8218 -149 0 0 227 -196 0 0 194 -112 0 0 248 -159 0 0 244 -235 0 0 353 -188 0 0 65 -112 0 0 283 -235 0 0 187 -149 0 0 351 -188 0 0 228 -196 0 0 119 -225 0 0 246 -235 0 0 250 -188 0 0 8250 -149 0 0 263 -235 0 0 225 -196 0 0 46 -264 0 0 84 -73 0 0 226 -196 0 0 101 -235 0 0 356 -73 0 0 97 -196 0 0 99 -235 0 0 171 -149 0 0 339 -159 0 0 8249 -149 0 0 111 -235 0 0 115 -188 0 0 114 -149 0 0 117 -188 0 0 192 -112 0 0 121 -225 0 0 58 -73 0 0 243 -235 0 0
EndChar
StartChar: U
Encoding: 85 85 56
Width: 1697
Flags: HW
Fore
324.55 1372 m 1,0,-1
 153.55 1372 l 1,1,-1
 153.55 1493 l 1,2,-1
 844.75 1493 l 1,3,-1
 844.75 1372 l 1,4,-1
 672.85 1372 l 1,5,-1
 672.85 625 l 2,6,7
 672.85 346 672.85 346 751.15 234.5 c 128,-1,8
 829.45 123 829.45 123 1019.35 123 c 0,9,10
 1204.75 123 1204.75 123 1282.6 235.5 c 128,-1,11
 1360.45 348 1360.45 348 1360.45 625 c 2,12,-1
 1360.45 1372 l 1,13,-1
 1189.45 1372 l 1,14,-1
 1189.45 1493 l 1,15,-1
 1657.45 1493 l 1,16,-1
 1657.45 1372 l 1,17,-1
 1485.55 1372 l 1,18,-1
 1485.55 604 l 2,19,20
 1485.55 262 1485.55 262 1352.35 116.5 c 128,-1,21
 1219.15 -29 1219.15 -29 905.05 -29 c 0,22,23
 592.75 -29 592.75 -29 458.65 118 c 128,-1,24
 324.55 265 324.55 265 324.55 606 c 2,25,-1
 324.55 1372 l 1,0,-1
EndSplineSet
KernsSLIF: 193 -63 0 0 194 -63 0 0 195 -63 0 0 192 -63 0 0 196 -63 0 0 65 -63 0 0 59 -73 0 0 58 -73 0 0 46 -188 0 0 45 -36 0 0 44 -188 0 0
EndChar
StartChar: V
Encoding: 86 86 57
Width: 1510
Flags: HW
Fore
1536.5 1493 m 1,0,-1
 1536.5 1372 l 1,1,-1
 1424 1372 l 1,2,-1
 917.3 0 l 1,3,-1
 703.1 0 l 1,4,-1
 196.4 1372 l 1,5,-1
 69.5 1372 l 1,6,-1
 69.5 1493 l 1,7,-1
 699.5 1493 l 1,8,-1
 699.5 1372 l 1,9,-1
 569 1372 l 1,10,-1
 931.7 383 l 1,11,-1
 1297.1 1372 l 1,12,-1
 1136.9 1372 l 1,13,-1
 1136.9 1493 l 1,14,-1
 1536.5 1493 l 1,0,-1
EndSplineSet
KernsSLIF: 367 -131 0 0 283 -188 0 0 253 -83 0 0 210 -36 0 0 212 -36 0 0 211 -36 0 0 193 -159 0 0 194 -159 0 0 8222 -264 0 0 8218 -264 0 0 255 -83 0 0 8217 38 0 0 8221 38 0 0 339 -188 0 0 338 -36 0 0 213 -36 0 0 195 -159 0 0 192 -159 0 0 248 -188 0 0 230 -188 0 0 216 -36 0 0 252 -131 0 0 251 -131 0 0 249 -131 0 0 250 -131 0 0 245 -188 0 0 246 -188 0 0 244 -188 0 0 242 -188 0 0 243 -188 0 0 235 -188 0 0 234 -188 0 0 232 -188 0 0 233 -188 0 0 229 -188 0 0 227 -188 0 0 228 -188 0 0 226 -188 0 0 224 -188 0 0 225 -188 0 0 214 -36 0 0 196 -159 0 0 121 -83 0 0 117 -131 0 0 111 -188 0 0 105 -36 0 0 101 -188 0 0 97 -188 0 0 79 -36 0 0 65 -159 0 0 59 -206 0 0 58 -206 0 0 46 -358 0 0 45 -149 0 0 44 -358 0 0
EndChar
StartChar: W
Encoding: 87 87 58
Width: 2185
Flags: HW
Fore
1685.8 0 m 1,0,-1
 1453.6 0 l 1,1,-1
 1149.4 1087 l 1,2,-1
 845.2 0 l 1,3,-1
 613 0 l 1,4,-1
 229.6 1372 l 1,5,-1
 99.0996 1372 l 1,6,-1
 99.0996 1493 l 1,7,-1
 736.3 1493 l 1,8,-1
 736.3 1372 l 1,9,-1
 592.3 1372 l 1,10,-1
 848.8 455 l 1,11,-1
 1138.6 1493 l 1,12,-1
 1394.2 1493 l 1,13,-1
 1689.4 438 l 1,14,-1
 1951.3 1372 l 1,15,-1
 1791.1 1372 l 1,16,-1
 1791.1 1493 l 1,17,-1
 2206.9 1493 l 1,18,-1
 2206.9 1372 l 1,19,-1
 2069.2 1372 l 1,20,-1
 1685.8 0 l 1,0,-1
EndSplineSet
KernsSLIF: 252 -83 0 0 229 -178 0 0 230 -139 0 0 59 -139 0 0 242 -167 0 0 45 -112 0 0 8222 -225 0 0 367 -83 0 0 245 -167 0 0 235 -167 0 0 249 -83 0 0 44 -319 0 0 224 -178 0 0 195 -131 0 0 234 -167 0 0 341 -92 0 0 8221 38 0 0 232 -167 0 0 196 -131 0 0 193 -131 0 0 8217 38 0 0 251 -83 0 0 253 -45 0 0 8218 -225 0 0 227 -178 0 0 194 -131 0 0 248 -167 0 0 244 -167 0 0 65 -131 0 0 97 -178 0 0 228 -178 0 0 246 -167 0 0 250 -83 0 0 225 -178 0 0 345 -92 0 0 46 -319 0 0 226 -178 0 0 233 -167 0 0 283 -167 0 0 101 -167 0 0 105 -36 0 0 339 -167 0 0 255 -45 0 0 111 -167 0 0 114 -92 0 0 117 -83 0 0 192 -131 0 0 121 -45 0 0 58 -139 0 0 243 -167 0 0
EndChar
StartChar: X
Encoding: 88 88 59
Width: 1509
Flags: HW
Fore
704.45 575 m 1,0,-1
 424.55 121 l 1,1,-1
 590.15 121 l 1,2,-1
 590.15 0 l 1,3,-1
 113.15 0 l 1,4,-1
 113.15 121 l 1,5,-1
 278.75 121 l 1,6,-1
 632.45 692 l 1,7,-1
 212.15 1372 l 1,8,-1
 88.8496 1372 l 1,9,-1
 88.8496 1493 l 1,10,-1
 756.65 1493 l 1,11,-1
 756.65 1372 l 1,12,-1
 609.05 1372 l 1,13,-1
 869.15 952 l 1,14,-1
 1126.55 1372 l 1,15,-1
 969.95 1372 l 1,16,-1
 969.95 1493 l 1,17,-1
 1437.95 1493 l 1,18,-1
 1437.95 1372 l 1,19,-1
 1272.35 1372 l 1,20,-1
 940.25 836 l 1,21,-1
 1381.25 121 l 1,22,-1
 1508.15 121 l 1,23,-1
 1508.15 0 l 1,24,-1
 837.65 0 l 1,25,-1
 837.65 121 l 1,26,-1
 987.05 121 l 1,27,-1
 704.45 575 l 1,0,-1
EndSplineSet
KernsSLIF: 268 -36 0 0 262 -36 0 0 210 -36 0 0 212 -36 0 0 211 -36 0 0 193 -73 0 0 194 -73 0 0 338 -36 0 0 213 -36 0 0 195 -73 0 0 192 -73 0 0 216 -36 0 0 214 -36 0 0 199 -36 0 0 196 -73 0 0 79 -36 0 0 67 -36 0 0 65 -73 0 0 45 -73 0 0
EndChar
StartChar: Y
Encoding: 89 89 60
Width: 1388
Flags: HW
Fore
389.95 0 m 1,0,-1
 389.95 121 l 1,1,-1
 570.85 121 l 1,2,-1
 570.85 618 l 1,3,-1
 171.25 1372 l 1,4,-1
 56.9502 1372 l 1,5,-1
 56.9502 1493 l 1,6,-1
 701.35 1493 l 1,7,-1
 701.35 1372 l 1,8,-1
 551.95 1372 l 1,9,-1
 854.35 803 l 1,10,-1
 1154.95 1372 l 1,11,-1
 1020.85 1372 l 1,12,-1
 1020.85 1493 l 1,13,-1
 1406.05 1493 l 1,14,-1
 1406.05 1372 l 1,15,-1
 1291.75 1372 l 1,16,-1
 919.15 670 l 1,17,-1
 919.15 121 l 1,18,-1
 1100.05 121 l 1,19,-1
 1100.05 0 l 1,20,-1
 389.95 0 l 1,0,-1
EndSplineSet
KernsSLIF: 367 -178 0 0 283 -178 0 0 268 -36 0 0 262 -36 0 0 193 -131 0 0 194 -131 0 0 339 -178 0 0 195 -131 0 0 192 -131 0 0 248 -178 0 0 230 -159 0 0 252 -178 0 0 251 -178 0 0 249 -178 0 0 250 -178 0 0 245 -178 0 0 246 -178 0 0 244 -178 0 0 242 -178 0 0 243 -178 0 0 235 -178 0 0 234 -178 0 0 232 -178 0 0 233 -178 0 0 229 -159 0 0 227 -159 0 0 228 -159 0 0 226 -159 0 0 224 -159 0 0 225 -159 0 0 199 -36 0 0 196 -131 0 0 117 -178 0 0 111 -178 0 0 105 -36 0 0 101 -178 0 0 97 -159 0 0 67 -36 0 0 65 -131 0 0 59 -253 0 0 58 -253 0 0 46 -264 0 0 45 -206 0 0 44 -264 0 0
EndChar
StartChar: Z
Encoding: 90 90 61
Width: 1420
Flags: HW
Fore
143.25 0 m 1,0,-1
 143.25 141 l 1,1,-1
 945.15 1356 l 1,2,-1
 301.65 1356 l 1,3,-1
 301.65 1133 l 1,4,-1
 178.35 1133 l 1,5,-1
 178.35 1493 l 1,6,-1
 1344.75 1493 l 1,7,-1
 1344.75 1352 l 1,8,-1
 551.85 137 l 1,9,-1
 1230.45 137 l 1,10,-1
 1230.45 346 l 1,11,-1
 1353.75 346 l 1,12,-1
 1353.75 0 l 1,13,-1
 143.25 0 l 1,0,-1
EndSplineSet
KernsSLIF: 46 -36 0 0 44 -36 0 0
EndChar
StartChar: bracketleft
Encoding: 91 91 62
Width: 926
Flags: HW
Fore
284.35 1556 m 1,0,-1
 794.65 1556 l 1,1,-1
 794.65 1436 l 1,2,-1
 602.95 1436 l 1,3,-1
 602.95 -150 l 1,4,-1
 794.65 -150 l 1,5,-1
 794.65 -270 l 1,6,-1
 284.35 -270 l 1,7,-1
 284.35 1556 l 1,0,-1
EndSplineSet
EndChar
StartChar: backslash
Encoding: 92 92 63
Width: 710
Flags: HW
Fore
236.3 1493 m 1,0,-1
 710.6 -190 l 1,1,-1
 510.8 -190 l 1,2,-1
 37.4004 1493 l 1,3,-1
 236.3 1493 l 1,0,-1
EndSplineSet
EndChar
StartChar: bracketright
Encoding: 93 93 64
Width: 915
Flags: HW
Fore
684.6 1556 m 1,0,-1
 684.6 -270 l 1,1,-1
 173.4 -270 l 1,2,-1
 173.4 -150 l 1,3,-1
 365.1 -150 l 1,4,-1
 365.1 1436 l 1,5,-1
 173.4 1436 l 1,6,-1
 173.4 1556 l 1,7,-1
 684.6 1556 l 1,0,-1
EndSplineSet
EndChar
StartChar: asciicircum
Encoding: 94 94 65
Width: 1630
Flags: HW
Fore
961.5 1493 m 1,0,-1
 1443.9 936 l 1,1,-1
 1252.2 936 l 1,2,-1
 858 1251 l 1,3,-1
 463.8 936 l 1,4,-1
 272.1 936 l 1,5,-1
 760.8 1493 l 1,6,-1
 961.5 1493 l 1,0,-1
EndSplineSet
EndChar
StartChar: underscore
Encoding: 95 95 66
Width: 972
Flags: HW
Fore
972.8 -293 m 1,0,-1
 972.8 -483 l 1,1,-1
 51.2002 -483 l 1,2,-1
 51.2002 -293 l 1,3,-1
 972.8 -293 l 1,0,-1
EndSplineSet
EndChar
StartChar: grave
Encoding: 96 96 67
Width: 962
Flags: HW
Fore
418.95 1638 m 1,0,-1
 651.15 1262 l 1,1,-1
 503.55 1262 l 1,2,-1
 167.85 1638 l 1,3,-1
 418.95 1638 l 1,0,-1
EndSplineSet
EndChar
StartChar: a
Encoding: 97 97 68
Width: 1262
Flags: HW
Fore
1083.4 653 m 2,0,-1
 1083.4 121 l 1,1,-1
 1220.2 121 l 1,2,-1
 1220.2 0 l 1,3,-1
 764.8 0 l 1,4,-1
 764.8 135 l 1,5,6
 701.8 51 701.8 51 624.4 11 c 128,-1,7
 547 -29 547 -29 448 -29 c 0,8,9
 301.3 -29 301.3 -29 222.55 58.5 c 128,-1,10
 143.8 146 143.8 146 143.8 309 c 0,11,12
 143.8 488 143.8 488 256.75 577 c 128,-1,13
 369.7 666 369.7 666 597.4 666 c 2,14,-1
 764.8 666 l 1,15,-1
 764.8 729 l 2,16,17
 764.8 858 764.8 858 709.9 919.5 c 128,-1,18
 655 981 655 981 539.8 981 c 0,19,20
 444.4 981 444.4 981 392.65 937.5 c 128,-1,21
 340.9 894 340.9 894 319.3 795 c 1,22,-1
 217.6 795 l 1,23,-1
 217.6 1024 l 1,24,25
 303.1 1058 303.1 1058 394.9 1075 c 128,-1,26
 486.7 1092 486.7 1092 588.4 1092 c 0,27,28
 844.9 1092 844.9 1092 964.15 986 c 128,-1,29
 1083.4 880 1083.4 880 1083.4 653 c 2,0,-1
764.8 334 m 2,30,-1
 764.8 547 l 1,31,-1
 645.1 547 l 2,32,33
 556 547 556 547 508.3 493 c 128,-1,34
 460.6 439 460.6 439 460.6 338 c 0,35,36
 460.6 237 460.6 237 495.25 187 c 128,-1,37
 529.9 137 529.9 137 601 137 c 0,38,39
 674.8 137 674.8 137 719.8 191 c 128,-1,40
 764.8 245 764.8 245 764.8 334 c 2,30,-1
EndSplineSet
EndChar
StartChar: b
Encoding: 98 98 69
Width: 1358
Flags: HW
Fore
248.95 121 m 1,0,-1
 248.95 1436 l 1,1,-1
 112.15 1436 l 1,2,-1
 112.15 1556 l 1,3,-1
 567.55 1556 l 1,4,-1
 567.55 928 l 1,5,6
 608.05 1011 608.05 1011 676.45 1051.5 c 128,-1,7
 744.85 1092 744.85 1092 845.65 1092 c 0,8,9
 1049.95 1092 1049.95 1092 1167.4 942.5 c 128,-1,10
 1284.85 793 1284.85 793 1284.85 532 c 0,11,12
 1284.85 271 1284.85 271 1167.4 121 c 128,-1,13
 1049.95 -29 1049.95 -29 845.65 -29 c 0,14,15
 744.85 -29 744.85 -29 676.45 11.5 c 128,-1,16
 608.05 52 608.05 52 567.55 135 c 1,17,-1
 567.55 0 l 1,18,-1
 112.15 0 l 1,19,-1
 112.15 121 l 1,20,-1
 248.95 121 l 1,0,-1
567.55 479 m 2,21,22
 567.55 293 567.55 293 610.3 210 c 128,-1,23
 653.05 127 653.05 127 748.45 127 c 0,24,25
 846.55 127 846.55 127 886.6 215 c 128,-1,26
 926.65 303 926.65 303 926.65 532 c 0,27,28
 926.65 761 926.65 761 886.6 848.5 c 128,-1,29
 846.55 936 846.55 936 748.45 936 c 0,30,31
 653.05 936 653.05 936 610.3 853 c 128,-1,32
 567.55 770 567.55 770 567.55 584 c 2,33,-1
 567.55 479 l 2,21,22
EndSplineSet
EndChar
StartChar: c
Encoding: 99 99 70
Width: 1184
Flags: HW
Fore
1101.45 332 m 1,0,1
 1067.25 150 1067.25 150 961.5 60.5 c 128,-1,2
 855.75 -29 855.75 -29 673.95 -29 c 0,3,4
 418.35 -29 418.35 -29 277.95 118 c 128,-1,5
 137.55 265 137.55 265 137.55 532 c 0,6,7
 137.55 796 137.55 796 276.15 944 c 128,-1,8
 414.75 1092 414.75 1092 661.35 1092 c 0,9,10
 761.25 1092 761.25 1092 862.95 1071 c 128,-1,11
 964.65 1050 964.65 1050 1069.95 1008 c 1,12,-1
 1069.95 713 l 1,13,-1
 969.15 713 l 1,14,15
 954.75 848 954.75 848 898.05 913.5 c 128,-1,16
 841.35 979 841.35 979 738.75 979 c 0,17,18
 605.55 979 605.55 979 549.3 879 c 128,-1,19
 493.05 779 493.05 779 493.05 532 c 0,20,21
 493.05 291 493.05 291 547.95 187.5 c 128,-1,22
 602.85 84 602.85 84 727.05 84 c 0,23,24
 823.35 84 823.35 84 881.4 148 c 128,-1,25
 939.45 212 939.45 212 952.05 332 c 1,26,-1
 1101.45 332 l 1,0,1
EndSplineSet
EndChar
StartChar: d
Encoding: 100 100 71
Width: 1362
Flags: HW
Fore
864.5 479 m 2,0,-1
 864.5 584 l 2,1,2
 864.5 770 864.5 770 821.3 853 c 128,-1,3
 778.1 936 778.1 936 683.6 936 c 0,4,5
 584.6 936 584.6 936 544.55 848.5 c 128,-1,6
 504.5 761 504.5 761 504.5 532 c 0,7,8
 504.5 303 504.5 303 545 215 c 128,-1,9
 585.5 127 585.5 127 683.6 127 c 0,10,11
 778.1 127 778.1 127 821.3 210 c 128,-1,12
 864.5 293 864.5 293 864.5 479 c 2,0,-1
1183.1 121 m 1,13,-1
 1319 121 l 1,14,-1
 1319 0 l 1,15,-1
 864.5 0 l 1,16,-1
 864.5 135 l 1,17,18
 824 52 824 52 755.15 11.5 c 128,-1,19
 686.3 -29 686.3 -29 585.5 -29 c 0,20,21
 382.1 -29 382.1 -29 265.55 121 c 128,-1,22
 149 271 149 271 149 532 c 0,23,24
 149 794 149 794 265.55 943 c 128,-1,25
 382.1 1092 382.1 1092 585.5 1092 c 0,26,27
 686.3 1092 686.3 1092 755.15 1051.5 c 128,-1,28
 824 1011 824 1011 864.5 928 c 1,29,-1
 864.5 1436 l 1,30,-1
 727.7 1436 l 1,31,-1
 727.7 1556 l 1,32,-1
 1183.1 1556 l 1,33,-1
 1183.1 121 l 1,13,-1
EndSplineSet
EndChar
StartChar: e
Encoding: 101 101 72
Width: 1237
Flags: HW
Fore
803.6 600 m 1,0,1
 803.6 810 803.6 810 768.5 894.5 c 128,-1,2
 733.4 979 733.4 979 648.8 979 c 0,3,4
 566.9 979 566.9 979 531.35 896 c 128,-1,5
 495.8 813 495.8 813 495.8 618 c 2,6,-1
 495.8 600 l 1,7,-1
 803.6 600 l 1,0,1
1153.7 481 m 1,8,-1
 495.8 481 l 1,9,-1
 495.8 473 l 2,10,11
 495.8 267 495.8 267 551.6 175.5 c 128,-1,12
 607.4 84 607.4 84 731.6 84 c 0,13,14
 835.1 84 835.1 84 899 145 c 128,-1,15
 962.9 206 962.9 206 980.9 322 c 1,16,-1
 1130.3 322 l 1,17,18
 1091.6 141 1091.6 141 976.4 56 c 128,-1,19
 861.2 -29 861.2 -29 654.2 -29 c 0,20,21
 405.8 -29 405.8 -29 273.05 116.5 c 128,-1,22
 140.3 262 140.3 262 140.3 532 c 0,23,24
 140.3 796 140.3 796 276.2 944 c 128,-1,25
 412.1 1092 412.1 1092 654.2 1092 c 0,26,27
 891.8 1092 891.8 1092 1018.7 936.5 c 128,-1,28
 1145.6 781 1145.6 781 1153.7 481 c 1,8,-1
EndSplineSet
EndChar
StartChar: f
Encoding: 102 102 73
Width: 845
Flags: HW
Fore
944.6 1290 m 1,0,-1
 843.8 1290 l 1,1,2
 836.6 1368 836.6 1368 802.85 1406 c 128,-1,3
 769.1 1444 769.1 1444 707 1444 c 0,4,5
 635 1444 635 1444 602.6 1386.5 c 128,-1,6
 570.2 1329 570.2 1329 570.2 1200 c 2,7,-1
 570.2 1063 l 1,8,-1
 810.5 1063 l 1,9,-1
 810.5 942 l 1,10,-1
 570.2 942 l 1,11,-1
 570.2 121 l 1,12,-1
 754.7 121 l 1,13,-1
 754.7 0 l 1,14,-1
 115.7 0 l 1,15,-1
 115.7 121 l 1,16,-1
 251.6 121 l 1,17,-1
 251.6 942 l 1,18,-1
 109.4 942 l 1,19,-1
 109.4 1063 l 1,20,-1
 251.6 1063 l 1,21,-1
 251.6 1196 l 2,22,23
 251.6 1373 251.6 1373 353.3 1464.5 c 128,-1,24
 455 1556 455 1556 652.1 1556 c 0,25,26
 728.6 1556 728.6 1556 801.5 1546.5 c 128,-1,27
 874.4 1537 874.4 1537 944.6 1518 c 1,28,-1
 944.6 1290 l 1,0,-1
EndSplineSet
KernsSLIF: 8217 151 0 0 8221 151 0 0 8220 65 0 0 46 -73 0 0 45 -73 0 0 44 -45 0 0
EndChar
StartChar: g
Encoding: 103 103 74
Width: 1362
Flags: HW
Fore
1183.1 942 m 1,0,-1
 1183.1 14 l 2,1,2
 1183.1 -210 1183.1 -210 1039.55 -332.5 c 128,-1,3
 896 -455 896 -455 634.1 -455 c 0,4,5
 538.7 -455 538.7 -455 440.6 -438.5 c 128,-1,6
 342.5 -422 342.5 -422 239 -389 c 1,7,-1
 239 -135 l 1,8,-1
 340.7 -135 l 1,9,10
 354.2 -240 354.2 -240 416.75 -291 c 128,-1,11
 479.3 -342 479.3 -342 595.4 -342 c 0,12,13
 743 -342 743 -342 803.75 -263.5 c 128,-1,14
 864.5 -185 864.5 -185 864.5 14 c 2,15,-1
 864.5 135 l 1,16,17
 824 52 824 52 755.15 11.5 c 128,-1,18
 686.3 -29 686.3 -29 585.5 -29 c 0,19,20
 382.1 -29 382.1 -29 265.55 121 c 128,-1,21
 149 271 149 271 149 532 c 0,22,23
 149 794 149 794 265.55 943 c 128,-1,24
 382.1 1092 382.1 1092 585.5 1092 c 0,25,26
 686.3 1092 686.3 1092 755.15 1051.5 c 128,-1,27
 824 1011 824 1011 864.5 928 c 1,28,-1
 864.5 1063 l 1,29,-1
 1319 1063 l 1,30,-1
 1319 942 l 1,31,-1
 1183.1 942 l 1,0,-1
864.5 584 m 2,32,33
 864.5 770 864.5 770 821.3 853 c 128,-1,34
 778.1 936 778.1 936 683.6 936 c 0,35,36
 584.6 936 584.6 936 544.55 848.5 c 128,-1,37
 504.5 761 504.5 761 504.5 532 c 0,38,39
 504.5 303 504.5 303 545 215 c 128,-1,40
 585.5 127 585.5 127 683.6 127 c 0,41,42
 778.1 127 778.1 127 821.3 210 c 128,-1,43
 864.5 293 864.5 293 864.5 479 c 2,44,-1
 864.5 584 l 2,32,33
EndSplineSet
EndChar
StartChar: h
Encoding: 104 104 75
Width: 1415
Flags: HW
Fore
138.25 0 m 1,0,-1
 138.25 121 l 1,1,-1
 274.15 121 l 1,2,-1
 274.15 1436 l 1,3,-1
 131.95 1436 l 1,4,-1
 131.95 1556 l 1,5,-1
 592.75 1556 l 1,6,-1
 592.75 913 l 1,7,8
 650.35 1008 650.35 1008 724.15 1050 c 128,-1,9
 797.95 1092 797.95 1092 910.45 1092 c 0,10,11
 1071.55 1092 1071.55 1092 1153.9 986.5 c 128,-1,12
 1236.25 881 1236.25 881 1236.25 676 c 2,13,-1
 1236.25 121 l 1,14,-1
 1373.05 121 l 1,15,-1
 1373.05 0 l 1,16,-1
 801.55 0 l 1,17,-1
 801.55 121 l 1,18,-1
 917.65 121 l 1,19,-1
 917.65 686 l 2,20,21
 917.65 821 917.65 821 886.6 873.5 c 128,-1,22
 855.55 926 855.55 926 779.05 926 c 0,23,24
 682.75 926 682.75 926 637.75 847.5 c 128,-1,25
 592.75 769 592.75 769 592.75 598 c 2,26,-1
 592.75 121 l 1,27,-1
 709.75 121 l 1,28,-1
 709.75 0 l 1,29,-1
 138.25 0 l 1,0,-1
EndSplineSet
EndChar
StartChar: i
Encoding: 105 105 76
Width: 740
Flags: HW
Fore
209.05 1364 m 0,0,1
 209.05 1445 209.05 1445 259.45 1500.5 c 128,-1,2
 309.85 1556 309.85 1556 382.75 1556 c 0,3,4
 453.85 1556 453.85 1556 503.8 1500.5 c 128,-1,5
 553.75 1445 553.75 1445 553.75 1364 c 0,6,7
 553.75 1285 553.75 1285 503.8 1229.5 c 128,-1,8
 453.85 1174 453.85 1174 382.75 1174 c 0,9,10
 309.85 1174 309.85 1174 259.45 1229 c 128,-1,11
 209.05 1284 209.05 1284 209.05 1364 c 0,0,1
557.35 121 m 1,12,-1
 694.15 121 l 1,13,-1
 694.15 0 l 1,14,-1
 102.85 0 l 1,15,-1
 102.85 121 l 1,16,-1
 238.75 121 l 1,17,-1
 238.75 942 l 1,18,-1
 102.85 942 l 1,19,-1
 102.85 1063 l 1,20,-1
 557.35 1063 l 1,21,-1
 557.35 121 l 1,12,-1
EndSplineSet
EndChar
StartChar: j
Encoding: 106 106 77
Width: 687
Flags: HW
Fore
181.25 1364 m 0,0,1
 181.25 1445 181.25 1445 231.2 1500.5 c 128,-1,2
 281.15 1556 281.15 1556 354.95 1556 c 0,3,4
 425.15 1556 425.15 1556 475.55 1500 c 128,-1,5
 525.95 1444 525.95 1444 525.95 1364 c 0,6,7
 525.95 1285 525.95 1285 476 1229.5 c 128,-1,8
 426.05 1174 426.05 1174 354.95 1174 c 0,9,10
 282.05 1174 282.05 1174 231.65 1229 c 128,-1,11
 181.25 1284 181.25 1284 181.25 1364 c 0,0,1
218.15 942 m 1,12,-1
 82.25 942 l 1,13,-1
 82.25 1063 l 1,14,-1
 536.75 1063 l 1,15,-1
 536.75 -125 l 2,16,17
 536.75 -288 536.75 -288 432.8 -371.5 c 128,-1,18
 328.85 -455 328.85 -455 126.35 -455 c 0,19,20
 72.3496 -455 72.3496 -455 11.1504 -445 c 128,-1,21
 -50.0498 -435 -50.0498 -435 -115.75 -416 c 1,22,-1
 -115.75 -190 l 1,23,-1
 -14.0498 -191 l 1,24,25
 -12.25 -271 -12.25 -271 14.2998 -306.5 c 128,-1,26
 40.8496 -342 40.8496 -342 100.25 -342 c 0,27,28
 165.95 -342 165.95 -342 192.05 -295 c 128,-1,29
 218.15 -248 218.15 -248 218.15 -125 c 2,30,-1
 218.15 942 l 1,12,-1
EndSplineSet
EndChar
StartChar: k
Encoding: 107 107 78
Width: 1353
Flags: HW
Fore
714.3 0 m 1,0,-1
 139.2 0 l 1,1,-1
 139.2 121 l 1,2,-1
 275.1 121 l 1,3,-1
 275.1 1436 l 1,4,-1
 139.2 1436 l 1,5,-1
 139.2 1556 l 1,6,-1
 593.7 1556 l 1,7,-1
 593.7 557 l 1,8,-1
 979.8 942 l 1,9,-1
 865.5 942 l 1,10,-1
 865.5 1063 l 1,11,-1
 1302 1063 l 1,12,-1
 1302 942 l 1,13,-1
 1124.7 942 l 1,14,-1
 878.1 696 l 1,15,-1
 1281.3 121 l 1,16,-1
 1384.8 121 l 1,17,-1
 1384.8 0 l 1,18,-1
 835.8 0 l 1,19,-1
 835.8 121 l 1,20,-1
 948.3 121 l 1,21,-1
 682.8 500 l 1,22,-1
 593.7 412 l 1,23,-1
 593.7 121 l 1,24,-1
 714.3 121 l 1,25,-1
 714.3 0 l 1,0,-1
EndSplineSet
KernsSLIF: 45 -83 0 0
EndChar
StartChar: l
Encoding: 108 108 79
Width: 740
Flags: HW
Fore
557.35 121 m 1,0,-1
 694.15 121 l 1,1,-1
 694.15 0 l 1,2,-1
 102.85 0 l 1,3,-1
 102.85 121 l 1,4,-1
 238.75 121 l 1,5,-1
 238.75 1436 l 1,6,-1
 102.85 1436 l 1,7,-1
 102.85 1556 l 1,8,-1
 557.35 1556 l 1,9,-1
 557.35 121 l 1,0,-1
EndSplineSet
EndChar
StartChar: m
Encoding: 109 109 80
Width: 2059
Flags: HW
Fore
1228.2 889 m 1,0,1
 1294.8 995 1294.8 995 1372.2 1043.5 c 128,-1,2
 1449.6 1092 1449.6 1092 1553.1 1092 c 0,3,4
 1717.8 1092 1717.8 1092 1799.25 988.5 c 128,-1,5
 1880.7 885 1880.7 885 1880.7 676 c 2,6,-1
 1880.7 121 l 1,7,-1
 2017.5 121 l 1,8,-1
 2017.5 0 l 1,9,-1
 1447.8 0 l 1,10,-1
 1447.8 121 l 1,11,-1
 1562.1 121 l 1,12,-1
 1562.1 623 l 2,13,14
 1562.1 822 1562.1 822 1534.65 874 c 128,-1,15
 1507.2 926 1507.2 926 1432.5 926 c 0,16,17
 1347.9 926 1347.9 926 1301.1 853.5 c 128,-1,18
 1254.3 781 1254.3 781 1254.3 647 c 2,19,-1
 1254.3 121 l 1,20,-1
 1368.6 121 l 1,21,-1
 1368.6 0 l 1,22,-1
 821.4 0 l 1,23,-1
 821.4 121 l 1,24,-1
 935.7 121 l 1,25,-1
 935.7 623 l 2,26,27
 935.7 822 935.7 822 907.8 874 c 128,-1,28
 879.9 926 879.9 926 806.1 926 c 0,29,30
 720.6 926 720.6 926 673.8 853.5 c 128,-1,31
 627 781 627 781 627 647 c 2,32,-1
 627 121 l 1,33,-1
 741.3 121 l 1,34,-1
 741.3 0 l 1,35,-1
 172.5 0 l 1,36,-1
 172.5 121 l 1,37,-1
 308.4 121 l 1,38,-1
 308.4 942 l 1,39,-1
 172.5 942 l 1,40,-1
 172.5 1063 l 1,41,-1
 627 1063 l 1,42,-1
 627 913 l 1,43,44
 682.8 1006 682.8 1006 754.8 1049 c 128,-1,45
 826.8 1092 826.8 1092 925.8 1092 c 0,46,47
 1042.8 1092 1042.8 1092 1115.7 1042.5 c 128,-1,48
 1188.6 993 1188.6 993 1228.2 889 c 1,0,1
EndSplineSet
EndChar
StartChar: n
Encoding: 110 110 81
Width: 1415
Flags: HW
Fore
138.6 0 m 1,0,-1
 138.6 121 l 1,1,-1
 274.5 121 l 1,2,-1
 274.5 942 l 1,3,-1
 138.6 942 l 1,4,-1
 138.6 1063 l 1,5,-1
 593.1 1063 l 1,6,-1
 593.1 913 l 1,7,8
 650.7 1008 650.7 1008 724.5 1050 c 128,-1,9
 798.3 1092 798.3 1092 910.8 1092 c 0,10,11
 1071.9 1092 1071.9 1092 1154.25 986.5 c 128,-1,12
 1236.6 881 1236.6 881 1236.6 676 c 2,13,-1
 1236.6 121 l 1,14,-1
 1373.4 121 l 1,15,-1
 1373.4 0 l 1,16,-1
 801.9 0 l 1,17,-1
 801.9 121 l 1,18,-1
 918 121 l 1,19,-1
 918 686 l 2,20,21
 918 821 918 821 886.95 873.5 c 128,-1,22
 855.9 926 855.9 926 779.4 926 c 0,23,24
 683.1 926 683.1 926 638.1 847.5 c 128,-1,25
 593.1 769 593.1 769 593.1 598 c 2,26,-1
 593.1 121 l 1,27,-1
 710.1 121 l 1,28,-1
 710.1 0 l 1,29,-1
 138.6 0 l 1,0,-1
EndSplineSet
EndChar
StartChar: o
Encoding: 111 111 82
Width: 1297
Flags: HW
Fore
684 84 m 0,0,1
 784.8 84 784.8 84 825.75 180 c 128,-1,2
 866.7 276 866.7 276 866.7 532 c 0,3,4
 866.7 788 866.7 788 826.2 883.5 c 128,-1,5
 785.7 979 785.7 979 684 979 c 0,6,7
 582.3 979 582.3 979 540.9 882.5 c 128,-1,8
 499.5 786 499.5 786 499.5 532 c 0,9,10
 499.5 278 499.5 278 540.9 181 c 128,-1,11
 582.3 84 582.3 84 684 84 c 0,0,1
684 -29 m 0,12,13
 431.1 -29 431.1 -29 287.55 120.5 c 128,-1,14
 144 270 144 270 144 532 c 0,15,16
 144 795 144 795 287.55 943.5 c 128,-1,17
 431.1 1092 431.1 1092 684 1092 c 0,18,19
 937.8 1092 937.8 1092 1080.9 943.5 c 128,-1,20
 1224 795 1224 795 1224 532 c 0,21,22
 1224 270 1224 270 1080.45 120.5 c 128,-1,23
 936.9 -29 936.9 -29 684 -29 c 0,12,13
EndSplineSet
KernsSLIF: 46 -36 0 0
EndChar
StartChar: p
Encoding: 112 112 83
Width: 1358
Flags: HW
Fore
567.55 584 m 2,0,-1
 567.55 479 l 2,1,2
 567.55 293 567.55 293 610.3 210 c 128,-1,3
 653.05 127 653.05 127 748.45 127 c 0,4,5
 846.55 127 846.55 127 886.6 215 c 128,-1,6
 926.65 303 926.65 303 926.65 532 c 0,7,8
 926.65 761 926.65 761 886.6 848.5 c 128,-1,9
 846.55 936 846.55 936 748.45 936 c 0,10,11
 653.05 936 653.05 936 610.3 853 c 128,-1,12
 567.55 770 567.55 770 567.55 584 c 2,0,-1
248.95 942 m 1,13,-1
 112.15 942 l 1,14,-1
 112.15 1063 l 1,15,-1
 567.55 1063 l 1,16,-1
 567.55 928 l 1,17,18
 608.05 1011 608.05 1011 676.45 1051.5 c 128,-1,19
 744.85 1092 744.85 1092 845.65 1092 c 0,20,21
 1049.95 1092 1049.95 1092 1167.4 942.5 c 128,-1,22
 1284.85 793 1284.85 793 1284.85 532 c 0,23,24
 1284.85 271 1284.85 271 1167.4 121 c 128,-1,25
 1049.95 -29 1049.95 -29 845.65 -29 c 0,26,27
 744.85 -29 744.85 -29 676.45 11.5 c 128,-1,28
 608.05 52 608.05 52 567.55 135 c 1,29,-1
 567.55 -305 l 1,30,-1
 715.15 -305 l 1,31,-1
 715.15 -426 l 1,32,-1
 112.15 -426 l 1,33,-1
 112.15 -305 l 1,34,-1
 248.95 -305 l 1,35,-1
 248.95 942 l 1,13,-1
EndSplineSet
EndChar
StartChar: q
Encoding: 113 113 84
Width: 1362
Flags: HW
Fore
1183.1 942 m 1,0,-1
 1183.1 -305 l 1,1,-1
 1319 -305 l 1,2,-1
 1319 -426 l 1,3,-1
 716.9 -426 l 1,4,-1
 716.9 -305 l 1,5,-1
 864.5 -305 l 1,6,-1
 864.5 135 l 1,7,8
 824 52 824 52 755.15 11.5 c 128,-1,9
 686.3 -29 686.3 -29 585.5 -29 c 0,10,11
 382.1 -29 382.1 -29 265.55 121 c 128,-1,12
 149 271 149 271 149 532 c 0,13,14
 149 794 149 794 265.55 943 c 128,-1,15
 382.1 1092 382.1 1092 585.5 1092 c 0,16,17
 686.3 1092 686.3 1092 755.15 1051.5 c 128,-1,18
 824 1011 824 1011 864.5 928 c 1,19,-1
 864.5 1063 l 1,20,-1
 1319 1063 l 1,21,-1
 1319 942 l 1,22,-1
 1183.1 942 l 1,0,-1
864.5 584 m 2,23,24
 864.5 770 864.5 770 821.3 853 c 128,-1,25
 778.1 936 778.1 936 683.6 936 c 0,26,27
 584.6 936 584.6 936 544.55 848.5 c 128,-1,28
 504.5 761 504.5 761 504.5 532 c 0,29,30
 504.5 303 504.5 303 545 215 c 128,-1,31
 585.5 127 585.5 127 683.6 127 c 0,32,33
 778.1 127 778.1 127 821.3 210 c 128,-1,34
 864.5 293 864.5 293 864.5 479 c 2,35,-1
 864.5 584 l 2,23,24
EndSplineSet
EndChar
StartChar: r
Encoding: 114 114 85
Width: 1029
Flags: HW
Fore
1047.95 1075 m 1,0,-1
 1047.95 758 l 1,1,-1
 946.25 758 l 1,2,3
 940.85 843 940.85 843 904.85 884.5 c 128,-1,4
 868.85 926 868.85 926 800.45 926 c 0,5,6
 696.05 926 696.05 926 635.75 824 c 128,-1,7
 575.45 722 575.45 722 575.45 541 c 2,8,-1
 575.45 121 l 1,9,-1
 749.15 121 l 1,10,-1
 749.15 0 l 1,11,-1
 120.95 0 l 1,12,-1
 120.95 121 l 1,13,-1
 256.85 121 l 1,14,-1
 256.85 942 l 1,15,-1
 111.05 942 l 1,16,-1
 111.05 1063 l 1,17,-1
 575.45 1063 l 1,18,-1
 575.45 874 l 1,19,20
 622.25 985 622.25 985 699.2 1038.5 c 128,-1,21
 776.15 1092 776.15 1092 887.75 1092 c 0,22,23
 915.65 1092 915.65 1092 955.7 1087.5 c 128,-1,24
 995.75 1083 995.75 1083 1047.95 1075 c 1,0,-1
EndSplineSet
KernsSLIF: 8217 75 0 0 8216 75 0 0 8221 75 0 0 8220 75 0 0 46 -188 0 0 44 -149 0 0
EndChar
StartChar: s
Encoding: 115 115 86
Width: 1095
Flags: HW
Fore
144.25 31 m 1,0,-1
 144.25 328 l 1,1,-1
 245.95 328 l 1,2,3
 258.55 209 258.55 209 326.05 146.5 c 128,-1,4
 393.55 84 393.55 84 509.65 84 c 0,5,6
 606.85 84 606.85 84 658.6 121.5 c 128,-1,7
 710.35 159 710.35 159 710.35 229 c 0,8,9
 710.35 293 710.35 293 677.5 328 c 128,-1,10
 644.65 363 644.65 363 550.15 389 c 2,11,-1
 418.75 426 l 2,12,13
 270.25 467 270.25 467 203.65 543.5 c 128,-1,14
 137.05 620 137.05 620 137.05 750 c 0,15,16
 137.05 923 137.05 923 245.05 1007.5 c 128,-1,17
 353.05 1092 353.05 1092 578.05 1092 c 0,18,19
 662.65 1092 662.65 1092 758.5 1076.5 c 128,-1,20
 854.35 1061 854.35 1061 970.45 1028 c 1,21,-1
 970.45 760 l 1,22,-1
 868.75 760 l 1,23,24
 860.65 869 860.65 869 799 924 c 128,-1,25
 737.35 979 737.35 979 622.15 979 c 0,26,27
 524.95 979 524.95 979 475 944.5 c 128,-1,28
 425.05 910 425.05 910 425.05 844 c 0,29,30
 425.05 790 425.05 790 453.85 759 c 128,-1,31
 482.65 728 482.65 728 557.35 707 c 2,32,-1
 687.85 670 l 2,33,34
 875.95 617 875.95 617 947.95 539 c 128,-1,35
 1019.95 461 1019.95 461 1019.95 322 c 0,36,37
 1019.95 142 1019.95 142 904.3 56.5 c 128,-1,38
 788.65 -29 788.65 -29 544.75 -29 c 0,39,40
 455.65 -29 455.65 -29 355.75 -14 c 128,-1,41
 255.85 1 255.85 1 144.25 31 c 1,0,-1
EndSplineSet
EndChar
StartChar: t
Encoding: 116 116 87
Width: 900
Flags: HW
Fore
231.95 942 m 1,0,-1
 93.3496 942 l 1,1,-1
 93.3496 1063 l 1,2,-1
 231.95 1063 l 1,3,-1
 231.95 1393 l 1,4,-1
 550.55 1393 l 1,5,-1
 550.55 1063 l 1,6,-1
 816.05 1063 l 1,7,-1
 816.05 942 l 1,8,-1
 550.55 942 l 1,9,-1
 550.55 291 l 2,10,11
 550.55 152 550.55 152 570.35 118 c 128,-1,12
 590.15 84 590.15 84 642.35 84 c 0,13,14
 699.95 84 699.95 84 727.85 127 c 128,-1,15
 755.75 170 755.75 170 757.55 260 c 1,16,-1
 891.65 260 l 1,17,18
 883.55 100 883.55 100 812.9 35.5 c 128,-1,19
 742.25 -29 742.25 -29 569.45 -29 c 0,20,21
 372.35 -29 372.35 -29 302.15 39.5 c 128,-1,22
 231.95 108 231.95 108 231.95 291 c 2,23,-1
 231.95 942 l 1,0,-1
EndSplineSet
EndChar
StartChar: u
Encoding: 117 117 88
Width: 1413
Flags: HW
Fore
1214.5 1063 m 1,0,-1
 1214.5 121 l 1,1,-1
 1350.4 121 l 1,2,-1
 1350.4 0 l 1,3,-1
 895 0 l 1,4,-1
 895 150 l 1,5,6
 838.3 55 838.3 55 764.5 13 c 128,-1,7
 690.7 -29 690.7 -29 578.2 -29 c 0,8,9
 417.1 -29 417.1 -29 334.75 76.5 c 128,-1,10
 252.4 182 252.4 182 252.4 387 c 2,11,-1
 252.4 942 l 1,12,-1
 115.6 942 l 1,13,-1
 115.6 1063 l 1,14,-1
 571 1063 l 1,15,-1
 571 442 l 2,16,17
 571 244 571 244 600.7 190.5 c 128,-1,18
 630.4 137 630.4 137 709.6 137 c 0,19,20
 805.9 137 805.9 137 850.45 216 c 128,-1,21
 895 295 895 295 895 467 c 2,22,-1
 895 942 l 1,23,-1
 778.9 942 l 1,24,-1
 778.9 1063 l 1,25,-1
 1214.5 1063 l 1,0,-1
EndSplineSet
EndChar
StartChar: v
Encoding: 118 118 89
Width: 1131
Flags: HW
Fore
471.5 0 m 1,0,-1
 132.2 942 l 1,1,-1
 26.9004 942 l 1,2,-1
 26.9004 1063 l 1,3,-1
 575.9 1063 l 1,4,-1
 575.9 942 l 1,5,-1
 459.8 942 l 1,6,-1
 701.9 270 l 1,7,-1
 943.1 942 l 1,8,-1
 818 942 l 1,9,-1
 818 1063 l 1,10,-1
 1177.1 1063 l 1,11,-1
 1177.1 942 l 1,12,-1
 1066.4 942 l 1,13,-1
 727.1 0 l 1,14,-1
 471.5 0 l 1,0,-1
EndSplineSet
KernsSLIF: 8217 75 0 0 8216 75 0 0 8221 75 0 0 8220 75 0 0 46 -206 0 0 44 -167 0 0
EndChar
StartChar: w
Encoding: 119 119 90
Width: 1676
Flags: HW
Fore
1082.9 1063 m 1,0,-1
 1300.7 354 l 1,1,-1
 1480.7 942 l 1,2,-1
 1355.6 942 l 1,3,-1
 1355.6 1063 l 1,4,-1
 1712.9 1063 l 1,5,-1
 1712.9 942 l 1,6,-1
 1600.4 942 l 1,7,-1
 1311.5 0 l 1,8,-1
 1091.9 0 l 1,9,-1
 889.4 666 l 1,10,-1
 685.1 0 l 1,11,-1
 467.3 0 l 1,12,-1
 177.5 942 l 1,13,-1
 73.0996 942 l 1,14,-1
 73.0996 1063 l 1,15,-1
 614.9 1063 l 1,16,-1
 614.9 942 l 1,17,-1
 502.4 942 l 1,18,-1
 678.8 367 l 1,19,-1
 893 1063 l 1,20,-1
 1082.9 1063 l 1,0,-1
EndSplineSet
KernsSLIF: 8217 75 0 0 8216 75 0 0 8221 75 0 0 8220 75 0 0 46 -206 0 0 44 -167 0 0
EndChar
StartChar: x
Encoding: 120 120 91
Width: 1160
Flags: HW
Fore
708.85 678 m 1,0,-1
 878.05 942 l 1,1,-1
 760.15 942 l 1,2,-1
 760.15 1063 l 1,3,-1
 1132.75 1063 l 1,4,-1
 1132.75 942 l 1,5,-1
 1005.85 942 l 1,6,-1
 761.95 563 l 1,7,-1
 1046.35 121 l 1,8,-1
 1173.25 121 l 1,9,-1
 1173.25 0 l 1,10,-1
 564.85 0 l 1,11,-1
 564.85 121 l 1,12,-1
 688.15 121 l 1,13,-1
 508.15 401 l 1,14,-1
 327.25 121 l 1,15,-1
 455.95 121 l 1,16,-1
 455.95 0 l 1,17,-1
 61.75 0 l 1,18,-1
 61.75 121 l 1,19,-1
 198.55 121 l 1,20,-1
 452.35 518 l 1,21,-1
 177.85 942 l 1,22,-1
 70.75 942 l 1,23,-1
 70.75 1063 l 1,24,-1
 654.85 1063 l 1,25,-1
 654.85 942 l 1,26,-1
 538.75 942 l 1,27,-1
 708.85 678 l 1,0,-1
EndSplineSet
KernsSLIF: 45 -36 0 0
EndChar
StartChar: y
Encoding: 121 121 92
Width: 1131
Flags: HW
Fore
635.7 -240 m 1,0,1
 592.5 -357 592.5 -357 531.3 -406 c 128,-1,2
 470.1 -455 470.1 -455 366.6 -455 c 0,3,4
 322.5 -455 322.5 -455 268.5 -444 c 128,-1,5
 214.5 -433 214.5 -433 150.6 -412 c 1,6,-1
 150.6 -190 l 1,7,-1
 252.3 -191 l 1,8,9
 255 -268 255 -268 285.15 -305 c 128,-1,10
 315.3 -342 315.3 -342 375.6 -342 c 0,11,12
 434.1 -342 434.1 -342 470.1 -306.5 c 128,-1,13
 506.1 -271 506.1 -271 542.1 -172 c 1,14,-1
 556.5 -135 l 1,15,-1
 139.8 942 l 1,16,-1
 36.2998 942 l 1,17,-1
 36.2998 1063 l 1,18,-1
 588 1063 l 1,19,-1
 588 942 l 1,20,-1
 473.7 942 l 1,21,-1
 716.7 313 l 1,22,-1
 943.5 942 l 1,23,-1
 816.6 942 l 1,24,-1
 816.6 1063 l 1,25,-1
 1175.7 1063 l 1,26,-1
 1175.7 942 l 1,27,-1
 1059.6 942 l 1,28,-1
 635.7 -240 l 1,0,1
EndSplineSet
KernsSLIF: 8217 75 0 0 8216 75 0 0 8221 75 0 0 8220 75 0 0 46 -235 0 0 44 -196 0 0
EndChar
StartChar: z
Encoding: 122 122 93
Width: 1105
Flags: HW
Fore
123.1 0 m 1,0,-1
 123.1 121 l 1,1,-1
 672.1 946 l 1,2,-1
 259 946 l 1,3,-1
 259 764 l 1,4,-1
 151.9 764 l 1,5,-1
 151.9 1063 l 1,6,-1
 1042.9 1063 l 1,7,-1
 1042.9 944 l 1,8,-1
 493 119 l 1,9,-1
 935.8 119 l 1,10,-1
 935.8 311 l 1,11,-1
 1042.9 311 l 1,12,-1
 1042.9 0 l 1,13,-1
 123.1 0 l 1,0,-1
EndSplineSet
EndChar
StartChar: braceleft
Encoding: 123 123 94
Width: 1250
Flags: HW
Fore
1084.95 -213 m 1,0,-1
 1084.95 -334 l 1,1,-1
 951.75 -334 l 2,2,3
 739.35 -334 739.35 -334 665.55 -309.5 c 128,-1,4
 591.75 -285 591.75 -285 546.75 -223 c 0,5,6
 520.65 -187 520.65 -187 509.4 -132 c 128,-1,7
 498.15 -77 498.15 -77 498.15 35 c 2,8,-1
 498.15 285 l 2,9,10
 498.15 436 498.15 436 450 493.5 c 128,-1,11
 401.85 551 401.85 551 274.95 551 c 2,12,-1
 220.05 551 l 1,13,-1
 220.05 672 l 1,14,-1
 274.95 672 l 2,15,16
 401.85 672 401.85 672 450 729.5 c 128,-1,17
 498.15 787 498.15 787 498.15 938 c 2,18,-1
 498.15 1188 l 2,19,20
 498.15 1300 498.15 1300 509.4 1354.5 c 128,-1,21
 520.65 1409 520.65 1409 546.75 1446 c 0,22,23
 591.75 1507 591.75 1507 665.55 1531.5 c 128,-1,24
 739.35 1556 739.35 1556 951.75 1556 c 2,25,-1
 1084.95 1556 l 1,26,-1
 1084.95 1436 l 1,27,-1
 992.25 1436 l 2,28,29
 891.45 1436 891.45 1436 854.55 1389 c 128,-1,30
 817.65 1342 817.65 1342 817.65 1206 c 2,31,-1
 817.65 936 l 2,32,33
 817.65 777 817.65 777 773.1 709.5 c 128,-1,34
 728.55 642 728.55 642 612.45 612 c 1,35,36
 730.35 578 730.35 578 774 512 c 128,-1,37
 817.65 446 817.65 446 817.65 287 c 2,38,-1
 817.65 16 l 2,39,40
 817.65 -119 817.65 -119 854.55 -166 c 128,-1,41
 891.45 -213 891.45 -213 992.25 -213 c 2,42,-1
 1084.95 -213 l 1,0,-1
EndSplineSet
EndChar
StartChar: bar
Encoding: 124 124 95
Width: 707
Flags: HW
Fore
468.25 1565 m 1,0,-1
 468.25 -483 l 1,1,-1
 274.75 -483 l 1,2,-1
 274.75 1565 l 1,3,-1
 468.25 1565 l 1,0,-1
EndSplineSet
EndChar
StartChar: braceright
Encoding: 125 125 96
Width: 1251
Flags: HW
Fore
233.95 -213 m 1,0,-1
 324.85 -213 l 2,1,2
 424.75 -213 424.75 -213 462.1 -166 c 128,-1,3
 499.45 -119 499.45 -119 499.45 16 c 2,4,-1
 499.45 287 l 2,5,6
 499.45 444 499.45 444 543.55 511 c 128,-1,7
 587.65 578 587.65 578 706.45 612 c 1,8,9
 589.45 642 589.45 642 544.45 710 c 128,-1,10
 499.45 778 499.45 778 499.45 936 c 2,11,-1
 499.45 1206 l 2,12,13
 499.45 1342 499.45 1342 462.1 1389 c 128,-1,14
 424.75 1436 424.75 1436 324.85 1436 c 2,15,-1
 233.95 1436 l 1,16,-1
 233.95 1556 l 1,17,-1
 365.35 1556 l 2,18,19
 577.75 1556 577.75 1556 651.55 1531.5 c 128,-1,20
 725.35 1507 725.35 1507 770.35 1446 c 0,21,22
 796.45 1409 796.45 1409 807.7 1354.5 c 128,-1,23
 818.95 1300 818.95 1300 818.95 1188 c 2,24,-1
 818.95 938 l 2,25,26
 818.95 787 818.95 787 867.1 729.5 c 128,-1,27
 915.25 672 915.25 672 1041.25 672 c 2,28,-1
 1097.05 672 l 1,29,-1
 1097.05 551 l 1,30,-1
 1041.25 551 l 2,31,32
 915.25 551 915.25 551 867.1 493.5 c 128,-1,33
 818.95 436 818.95 436 818.95 285 c 2,34,-1
 818.95 35 l 2,35,36
 818.95 -77 818.95 -77 807.7 -132 c 128,-1,37
 796.45 -187 796.45 -187 770.35 -223 c 0,38,39
 725.35 -285 725.35 -285 651.55 -309.5 c 128,-1,40
 577.75 -334 577.75 -334 365.35 -334 c 2,41,-1
 233.95 -334 l 1,42,-1
 233.95 -213 l 1,0,-1
EndSplineSet
EndChar
StartChar: asciitilde
Encoding: 126 126 97
Width: 1630
Flags: HW
Fore
1434.9 831 m 1,0,-1
 1434.9 625 l 1,1,2
 1351.2 539 1351.2 539 1267.05 498 c 128,-1,3
 1182.9 457 1182.9 457 1092 457 c 0,4,5
 1006.5 457 1006.5 457 869.7 515 c 0,6,7
 854.4 521 854.4 521 847.2 524 c 0,8,9
 840.9 527 840.9 527 829.2 532 c 0,10,11
 674.4 598 674.4 598 587.1 598 c 0,12,13
 517.8 598 517.8 598 442.65 562 c 128,-1,14
 367.5 526 367.5 526 281.1 453 c 1,15,-1
 281.1 659 l 1,16,17
 367.5 746 367.5 746 450.75 786.5 c 128,-1,18
 534 827 534 827 624 827 c 0,19,20
 709.5 827 709.5 827 845.4 770 c 0,21,22
 861.6 763 861.6 763 868.8 760 c 2,23,-1
 882.3 754 l 2,24,25
 1038 686 1038 686 1128.9 686 c 0,26,27
 1198.2 686 1198.2 686 1273.35 722 c 128,-1,28
 1348.5 758 1348.5 758 1434.9 831 c 1,0,-1
EndSplineSet
EndChar
StartChar: exclamdown
Encoding: 161 161 163
Width: 854
Flags: HW
Fore
620.05 1329 m 0,0,1
 620.05 1251 620.05 1251 569.65 1196 c 128,-1,2
 519.25 1141 519.25 1141 449.05 1141 c 0,3,4
 377.95 1141 377.95 1141 328.45 1196 c 128,-1,5
 278.95 1251 278.95 1251 278.95 1329 c 0,6,7
 278.95 1408 278.95 1408 328.9 1464 c 128,-1,8
 378.85 1520 378.85 1520 449.05 1520 c 0,9,10
 519.25 1520 519.25 1520 569.65 1463.5 c 128,-1,11
 620.05 1407 620.05 1407 620.05 1329 c 0,0,1
618.25 0 m 1,12,-1
 280.75 0 l 1,13,-1
 386.05 842 l 1,14,-1
 386.05 1032 l 1,15,-1
 511.15 1032 l 1,16,-1
 511.15 842 l 1,17,-1
 618.25 0 l 1,12,-1
EndSplineSet
EndChar
StartChar: cent
Encoding: 162 162 132
Width: 1352
Flags: HW
Fore
734.75 94 m 1,0,-1
 734.75 969 l 1,1,2
 645.65 944 645.65 944 606.5 843.5 c 128,-1,3
 567.35 743 567.35 743 567.35 532 c 0,4,5
 567.35 321 567.35 321 606.05 221 c 128,-1,6
 644.75 121 644.75 121 734.75 94 c 1,0,-1
1179.35 332 m 1,7,8
 1150.55 175 1150.55 175 1065.5 85.5 c 128,-1,9
 980.45 -4 980.45 -4 843.65 -23 c 1,10,-1
 843.65 -299 l 1,11,-1
 734.75 -299 l 1,12,-1
 734.75 -29 l 1,13,14
 485.45 -23 485.45 -23 349.55 123.5 c 128,-1,15
 213.65 270 213.65 270 213.65 532 c 0,16,17
 213.65 794 213.65 794 349.55 939.5 c 128,-1,18
 485.45 1085 485.45 1085 734.75 1092 c 1,19,-1
 734.75 1356 l 1,20,-1
 843.65 1356 l 1,21,-1
 843.65 1087 l 1,22,23
 896.75 1083 896.75 1083 969.2 1064 c 128,-1,24
 1041.65 1045 1041.65 1045 1147.85 1008 c 1,25,-1
 1147.85 713 l 1,26,-1
 1046.15 713 l 1,27,28
 1032.65 839 1032.65 839 983.15 903.5 c 128,-1,29
 933.65 968 933.65 968 843.65 979 c 1,30,-1
 843.65 88 l 1,31,32
 925.55 104 925.55 104 972.35 165 c 128,-1,33
 1019.15 226 1019.15 226 1029.95 332 c 1,34,-1
 1179.35 332 l 1,7,8
EndSplineSet
EndChar
StartChar: sterling
Encoding: 163 163 133
Width: 1353
Flags: HW
Fore
1193.45 1202 m 1,0,-1
 1085.45 1202 l 1,1,2
 1080.05 1299 1080.05 1299 1035.5 1353 c 128,-1,3
 990.95 1407 990.95 1407 915.35 1407 c 0,4,5
 810.05 1407 810.05 1407 764.15 1332.5 c 128,-1,6
 718.25 1258 718.25 1258 718.25 1083 c 2,7,-1
 718.25 815 l 1,8,-1
 1035.05 815 l 1,9,-1
 1035.05 694 l 1,10,-1
 718.25 694 l 1,11,-1
 718.25 137 l 1,12,-1
 1096.25 137 l 1,13,-1
 1096.25 365 l 1,14,-1
 1219.55 365 l 1,15,-1
 1219.55 0 l 1,16,-1
 203.45 0 l 1,17,-1
 203.45 121 l 1,18,-1
 377.15 121 l 1,19,-1
 377.15 694 l 1,20,-1
 203.45 694 l 1,21,-1
 203.45 815 l 1,22,-1
 377.15 815 l 1,23,-1
 377.15 1092 l 2,24,25
 377.15 1308 377.15 1308 497.3 1414 c 128,-1,26
 617.45 1520 617.45 1520 864.05 1520 c 0,27,28
 922.55 1520 922.55 1520 1004 1511 c 128,-1,29
 1085.45 1502 1085.45 1502 1193.45 1485 c 1,30,-1
 1193.45 1202 l 1,0,-1
EndSplineSet
EndChar
StartChar: currency
Encoding: 164 164 189
Width: 1238
Flags: HW
Fore
653.05 422 m 0,0,1
 734.95 422 734.95 422 792.55 485.5 c 128,-1,2
 850.15 549 850.15 549 850.15 641 c 0,3,4
 850.15 733 850.15 733 793 796.5 c 128,-1,5
 735.85 860 735.85 860 653.05 860 c 0,6,7
 571.15 860 571.15 860 513.55 796.5 c 128,-1,8
 455.95 733 455.95 733 455.95 641 c 0,9,10
 455.95 548 455.95 548 512.65 485 c 128,-1,11
 569.35 422 569.35 422 653.05 422 c 0,0,1
457.75 268 m 1,12,-1
 269.65 61 l 1,13,-1
 133.75 215 l 1,14,-1
 321.85 424 l 1,15,16
 293.95 470 293.95 470 280.9 523.5 c 128,-1,17
 267.85 577 267.85 577 267.85 641 c 0,18,19
 267.85 704 267.85 704 281.35 758 c 128,-1,20
 294.85 812 294.85 812 321.85 858 c 1,21,-1
 133.75 1063 l 1,22,-1
 271.45 1221 l 1,23,-1
 457.75 1010 l 1,24,25
 500.95 1040 500.95 1040 549.55 1054.5 c 128,-1,26
 598.15 1069 598.15 1069 653.05 1069 c 0,27,28
 702.55 1069 702.55 1069 751.6 1054.5 c 128,-1,29
 800.65 1040 800.65 1040 851.95 1010 c 1,30,-1
 1036.45 1221 l 1,31,-1
 1173.25 1067 l 1,32,-1
 985.15 862 l 1,33,34
 1012.15 806 1012.15 806 1025.2 750.5 c 128,-1,35
 1038.25 695 1038.25 695 1038.25 641 c 0,36,37
 1038.25 578 1038.25 578 1025.2 525.5 c 128,-1,38
 1012.15 473 1012.15 473 985.15 426 c 1,39,-1
 1173.25 215 l 1,40,-1
 1032.85 61 l 1,41,-1
 846.55 272 l 1,42,43
 805.15 242 805.15 242 757.45 227.5 c 128,-1,44
 709.75 213 709.75 213 653.05 213 c 0,45,46
 600.85 213 600.85 213 552.25 227 c 128,-1,47
 503.65 241 503.65 241 457.75 268 c 1,12,-1
EndSplineSet
EndChar
StartChar: yen
Encoding: 165 165 150
Width: 1352
Flags: HW
Fore
363.45 0 m 1,0,-1
 363.45 121 l 1,1,-1
 534.45 121 l 1,2,-1
 534.45 467 l 1,3,-1
 171.75 467 l 1,4,-1
 171.75 584 l 1,5,-1
 534.45 584 l 1,6,-1
 534.45 643 l 1,7,-1
 479.55 778 l 1,8,-1
 171.75 778 l 1,9,-1
 171.75 895 l 1,10,-1
 429.15 895 l 1,11,-1
 228.45 1372 l 1,12,-1
 105.15 1372 l 1,13,-1
 105.15 1493 l 1,14,-1
 729.75 1493 l 1,15,-1
 729.75 1372 l 1,16,-1
 576.75 1372 l 1,17,-1
 808.95 821 l 1,18,-1
 1039.35 1372 l 1,19,-1
 903.45 1372 l 1,20,-1
 903.45 1493 l 1,21,-1
 1295.85 1493 l 1,22,-1
 1295.85 1372 l 1,23,-1
 1174.35 1372 l 1,24,-1
 975.45 895 l 1,25,-1
 1238.25 895 l 1,26,-1
 1238.25 778 l 1,27,-1
 923.25 778 l 1,28,-1
 875.55 662 l 1,29,-1
 875.55 584 l 1,30,-1
 1238.25 584 l 1,31,-1
 1238.25 467 l 1,32,-1
 875.55 467 l 1,33,-1
 875.55 121 l 1,34,-1
 1046.55 121 l 1,35,-1
 1046.55 0 l 1,36,-1
 363.45 0 l 1,0,-1
EndSplineSet
EndChar
StartChar: brokenbar
Encoding: 166 166 231
Width: 707
Flags: HW
Fore
468.25 1432 m 1,0,-1
 468.25 674 l 1,1,-1
 274.75 674 l 1,2,-1
 274.75 1432 l 1,3,-1
 468.25 1432 l 1,0,-1
468.25 408 m 1,4,-1
 468.25 -350 l 1,5,-1
 274.75 -350 l 1,6,-1
 274.75 408 l 1,7,-1
 468.25 408 l 1,4,-1
EndSplineSet
EndChar
StartChar: section
Encoding: 167 167 134
Width: 1017
Flags: HW
Fore
860.85 1475 m 1,0,-1
 860.85 1235 l 1,1,-1
 753.75 1235 l 1,2,3
 748.35 1321 748.35 1321 701.55 1364 c 128,-1,4
 654.75 1407 654.75 1407 567.45 1407 c 0,5,6
 494.55 1407 494.55 1407 453.6 1370 c 128,-1,7
 412.65 1333 412.65 1333 412.65 1266 c 0,8,9
 412.65 1219 412.65 1219 436.95 1186 c 128,-1,10
 461.25 1153 461.25 1153 542.25 1106 c 2,11,-1
 663.75 1034 l 1,12,13
 833.85 936 833.85 936 897.3 852 c 128,-1,14
 960.75 768 960.75 768 960.75 653 c 0,15,16
 960.75 549 960.75 549 909.45 475 c 128,-1,17
 858.15 401 858.15 401 755.55 358 c 1,18,19
 830.25 311 830.25 311 864.9 247.5 c 128,-1,20
 899.55 184 899.55 184 899.55 94 c 0,21,22
 899.55 -43 899.55 -43 801.45 -119 c 128,-1,23
 703.35 -195 703.35 -195 523.35 -195 c 0,24,25
 448.65 -195 448.65 -195 367.2 -183.5 c 128,-1,26
 285.75 -172 285.75 -172 193.95 -150 c 1,27,-1
 193.95 90 l 1,28,-1
 300.15 90 l 1,29,30
 307.35 0 307.35 0 354.15 -41 c 128,-1,31
 400.95 -82 400.95 -82 496.35 -82 c 0,32,33
 574.65 -82 574.65 -82 616.5 -45 c 128,-1,34
 658.35 -8 658.35 -8 658.35 61 c 0,35,36
 658.35 108 658.35 108 634.5 141 c 128,-1,37
 610.65 174 610.65 174 528.75 221 c 2,38,-1
 407.25 293 l 2,39,40
 238.05 392 238.05 392 174.15 476 c 128,-1,41
 110.25 560 110.25 560 110.25 674 c 0,42,43
 110.25 777 110.25 777 162 850 c 128,-1,44
 213.75 923 213.75 923 317.25 967 c 1,45,46
 242.55 1013 242.55 1013 207 1077.5 c 128,-1,47
 171.45 1142 171.45 1142 171.45 1231 c 0,48,49
 171.45 1367 171.45 1367 269.55 1443.5 c 128,-1,50
 367.65 1520 367.65 1520 544.05 1520 c 0,51,52
 610.65 1520 610.65 1520 688.95 1508.5 c 128,-1,53
 767.25 1497 767.25 1497 860.85 1475 c 1,0,-1
409.05 901 m 1,54,55
 369.45 868 369.45 868 348.75 829 c 128,-1,56
 328.05 790 328.05 790 328.05 745 c 0,57,58
 328.05 684 328.05 684 369 633 c 128,-1,59
 409.95 582 409.95 582 508.95 524 c 2,60,-1
 660.15 436 l 1,61,62
 700.65 471 700.65 471 721.8 510.5 c 128,-1,63
 742.95 550 742.95 550 742.95 592 c 0,64,65
 742.95 652 742.95 652 701.1 703 c 128,-1,66
 659.25 754 659.25 754 558.45 813 c 2,67,-1
 409.05 901 l 1,54,55
EndSplineSet
EndChar
StartChar: dieresis
Encoding: 168 168 142
Width: 972
Flags: HW
Fore
178.1 1468 m 0,0,1
 178.1 1528 178.1 1528 217.7 1571 c 128,-1,2
 257.3 1614 257.3 1614 311.3 1614 c 0,3,4
 365.3 1614 365.3 1614 403.55 1571 c 128,-1,5
 441.8 1528 441.8 1528 441.8 1468 c 0,6,7
 441.8 1408 441.8 1408 403.1 1364.5 c 128,-1,8
 364.4 1321 364.4 1321 311.3 1321 c 0,9,10
 257.3 1321 257.3 1321 217.7 1365 c 128,-1,11
 178.1 1409 178.1 1409 178.1 1468 c 0,0,1
580.4 1468 m 0,12,13
 580.4 1528 580.4 1528 619.55 1571 c 128,-1,14
 658.7 1614 658.7 1614 712.7 1614 c 0,15,16
 766.7 1614 766.7 1614 806.3 1571 c 128,-1,17
 845.9 1528 845.9 1528 845.9 1468 c 0,18,19
 845.9 1409 845.9 1409 806.3 1365 c 128,-1,20
 766.7 1321 766.7 1321 712.7 1321 c 0,21,22
 658.7 1321 658.7 1321 619.55 1365 c 128,-1,23
 580.4 1409 580.4 1409 580.4 1468 c 0,12,13
EndSplineSet
Ligature: 0 1 'liga' space uni0308
EndChar
StartChar: copyright
Encoding: 169 169 139
Width: 1945
Flags: HW
Fore
1024 1485 m 0,0,1
 1160.8 1485 1160.8 1485 1279.15 1430 c 128,-1,2
 1397.5 1375 1397.5 1375 1495.6 1266 c 0,3,4
 1593.7 1157 1593.7 1157 1642.3 1026 c 128,-1,5
 1690.9 895 1690.9 895 1690.9 741 c 0,6,7
 1690.9 589 1690.9 589 1642.3 458.5 c 128,-1,8
 1593.7 328 1593.7 328 1495.6 219 c 0,9,10
 1397.5 110 1397.5 110 1279.15 55 c 128,-1,11
 1160.8 0 1160.8 0 1024 0 c 0,12,13
 887.2 0 887.2 0 768.85 55 c 128,-1,14
 650.5 110 650.5 110 552.4 219 c 0,15,16
 454.3 328 454.3 328 405.7 458.5 c 128,-1,17
 357.1 589 357.1 589 357.1 741 c 0,18,19
 357.1 895 357.1 895 405.7 1026 c 128,-1,20
 454.3 1157 454.3 1157 552.4 1266 c 0,21,22
 650.5 1375 650.5 1375 768.85 1430 c 128,-1,23
 887.2 1485 887.2 1485 1024 1485 c 0,0,1
1024 1331 m 0,24,25
 915.1 1331 915.1 1331 821.5 1287.5 c 128,-1,26
 727.9 1244 727.9 1244 649.6 1157 c 0,27,28
 572.2 1071 572.2 1071 533.5 967.5 c 128,-1,29
 494.8 864 494.8 864 494.8 741 c 0,30,31
 494.8 619 494.8 619 533.5 515.5 c 128,-1,32
 572.2 412 572.2 412 649.6 326 c 0,33,34
 727 240 727 240 821.05 197 c 128,-1,35
 915.1 154 915.1 154 1024 154 c 0,36,37
 1134.7 154 1134.7 154 1227.4 196.5 c 128,-1,38
 1320.1 239 1320.1 239 1398.4 326 c 0,39,40
 1475.8 412 1475.8 412 1514.5 515.5 c 128,-1,41
 1553.2 619 1553.2 619 1553.2 741 c 0,42,43
 1553.2 864 1553.2 864 1514.5 967.5 c 128,-1,44
 1475.8 1071 1475.8 1071 1398.4 1157 c 0,45,46
 1319.2 1245 1319.2 1245 1226.05 1288 c 128,-1,47
 1132.9 1331 1132.9 1331 1024 1331 c 0,24,25
1354.3 580 m 1,48,49
 1330 441 1330 441 1247.65 371 c 128,-1,50
 1165.3 301 1165.3 301 1025.8 301 c 0,51,52
 856.6 301 856.6 301 752.2 422 c 128,-1,53
 647.8 543 647.8 543 647.8 741 c 0,54,55
 647.8 943 647.8 943 753.1 1063.5 c 128,-1,56
 858.4 1184 858.4 1184 1034.8 1184 c 0,57,58
 1105.9 1184 1105.9 1184 1177.9 1165.5 c 128,-1,59
 1249.9 1147 1249.9 1147 1328.2 1108 c 1,60,-1
 1328.2 885 l 1,61,-1
 1233.7 885 l 1,62,63
 1222.9 979 1222.9 979 1175.65 1032 c 128,-1,64
 1128.4 1085 1128.4 1085 1055.5 1085 c 0,65,66
 961.9 1085 961.9 1085 908.35 993.5 c 128,-1,67
 854.8 902 854.8 902 854.8 741 c 0,68,69
 854.8 580 854.8 580 907.9 489.5 c 128,-1,70
 961 399 961 399 1055.5 399 c 0,71,72
 1121.2 399 1121.2 399 1165.3 445 c 128,-1,73
 1209.4 491 1209.4 491 1230.1 580 c 1,74,-1
 1354.3 580 l 1,48,49
EndSplineSet
EndChar
StartChar: ordfeminine
Encoding: 170 170 157
Width: 948
Flags: HW
Fore
152.8 639 m 1,0,-1
 871 639 l 1,1,-1
 871 504 l 1,2,-1
 152.8 504 l 1,3,-1
 152.8 639 l 1,0,-1
812.5 1212 m 2,4,-1
 812.5 850 l 1,5,-1
 916 850 l 1,6,-1
 916 756 l 1,7,-1
 574.9 756 l 1,8,-1
 574.9 848 l 1,9,10
 529 791 529 791 470.95 764 c 128,-1,11
 412.9 737 412.9 737 336.4 737 c 0,12,13
 225.7 737 225.7 737 165.85 798 c 128,-1,14
 106 859 106 859 106 973 c 0,15,16
 106 1101 106 1101 191.05 1164 c 128,-1,17
 276.1 1227 276.1 1227 448.9 1227 c 2,18,-1
 574.9 1227 l 1,19,-1
 574.9 1255 l 2,20,21
 574.9 1345 574.9 1345 532.6 1389.5 c 128,-1,22
 490.3 1434 490.3 1434 404.8 1434 c 0,23,24
 336.4 1434 336.4 1434 296.8 1401.5 c 128,-1,25
 257.2 1369 257.2 1369 248.2 1307 c 1,26,-1
 161.8 1307 l 1,27,-1
 161.8 1473 l 1,28,29
 227.5 1496 227.5 1496 296.8 1508 c 128,-1,30
 366.1 1520 366.1 1520 441.7 1520 c 0,31,32
 634.3 1520 634.3 1520 723.4 1446 c 128,-1,33
 812.5 1372 812.5 1372 812.5 1212 c 2,4,-1
574.9 1001 m 2,34,-1
 574.9 1133 l 1,35,-1
 484 1133 l 2,36,37
 419.2 1133 419.2 1133 381.85 1095.5 c 128,-1,38
 344.5 1058 344.5 1058 344.5 993 c 0,39,40
 344.5 931 344.5 931 371.95 897.5 c 128,-1,41
 399.4 864 399.4 864 450.7 864 c 0,42,43
 507.4 864 507.4 864 541.15 901 c 128,-1,44
 574.9 938 574.9 938 574.9 1001 c 2,34,-1
EndSplineSet
EndChar
StartChar: guillemotleft
Encoding: 171 171 169
Width: 1214
Flags: HW
Fore
1040.55 1069 m 1,0,-1
 1040.55 922 l 1,1,-1
 825.45 600 l 1,2,-1
 1040.55 279 l 1,3,-1
 1040.55 131 l 1,4,-1
 618.45 516 l 1,5,-1
 618.45 684 l 1,6,-1
 1040.55 1069 l 1,0,-1
626.55 1069 m 1,7,-1
 626.55 922 l 1,8,-1
 410.55 600 l 1,9,-1
 626.55 279 l 1,10,-1
 626.55 131 l 1,11,-1
 204.45 516 l 1,12,-1
 204.45 684 l 1,13,-1
 626.55 1069 l 1,7,-1
EndSplineSet
KernsSLIF: 356 -149 0 0 84 -149 0 0 74 -73 0 0
EndChar
StartChar: logicalnot
Encoding: 172 172 164
Width: 1630
Flags: HW
Fore
281.1 903 m 1,0,-1
 1434.9 903 l 1,1,-1
 1434.9 287 l 1,2,-1
 1228.8 287 l 1,3,-1
 1228.8 676 l 1,4,-1
 281.1 676 l 1,5,-1
 281.1 903 l 1,0,-1
EndSplineSet
EndChar
StartChar: sfthyphen
Encoding: 173 173 256
Width: 807
Flags: HW
Fore
142.4 684 m 1,0,-1
 707.6 684 l 1,1,-1
 707.6 414 l 1,2,-1
 142.4 414 l 1,3,-1
 142.4 684 l 1,0,-1
EndSplineSet
EndChar
StartChar: registered
Encoding: 174 174 138
Width: 1945
Flags: HW
Fore
1151.8 754 m 1,0,1
 1186.9 743 1186.9 743 1213.9 716.5 c 128,-1,2
 1240.9 690 1240.9 690 1258 649 c 2,3,-1
 1348 434 l 1,4,-1
 1402 434 l 1,5,-1
 1402 352 l 1,6,-1
 1201.3 352 l 1,7,-1
 1096 606 l 1,8,9
 1067.2 674 1067.2 674 1040.65 695.5 c 128,-1,10
 1014.1 717 1014.1 717 964.6 717 c 2,11,-1
 941.2 717 l 1,12,-1
 941.2 434 l 1,13,-1
 1018.6 434 l 1,14,-1
 1018.6 352 l 1,15,-1
 686.5 352 l 1,16,-1
 686.5 434 l 1,17,-1
 763.9 434 l 1,18,-1
 763.9 1077 l 1,19,-1
 686.5 1077 l 1,20,-1
 686.5 1159 l 1,21,-1
 1094.2 1159 l 2,22,23
 1202.2 1159 1202.2 1159 1264.3 1104 c 128,-1,24
 1326.4 1049 1326.4 1049 1326.4 954 c 0,25,26
 1326.4 865 1326.4 865 1281.85 814 c 128,-1,27
 1237.3 763 1237.3 763 1151.8 754 c 1,0,1
941.2 799 m 1,28,-1
 1001.5 799 l 2,29,30
 1072.6 799 1072.6 799 1110.85 835 c 128,-1,31
 1149.1 871 1149.1 871 1149.1 938 c 0,32,33
 1149.1 1005 1149.1 1005 1110.85 1041 c 128,-1,34
 1072.6 1077 1072.6 1077 1001.5 1077 c 2,35,-1
 941.2 1077 l 1,36,-1
 941.2 799 l 1,28,-1
1024 1485 m 0,37,38
 1160.8 1485 1160.8 1485 1279.15 1430 c 128,-1,39
 1397.5 1375 1397.5 1375 1495.6 1266 c 0,40,41
 1593.7 1157 1593.7 1157 1642.3 1026 c 128,-1,42
 1690.9 895 1690.9 895 1690.9 741 c 0,43,44
 1690.9 589 1690.9 589 1642.3 458.5 c 128,-1,45
 1593.7 328 1593.7 328 1495.6 219 c 0,46,47
 1397.5 110 1397.5 110 1279.15 55 c 128,-1,48
 1160.8 0 1160.8 0 1024 0 c 0,49,50
 887.2 0 887.2 0 768.85 55 c 128,-1,51
 650.5 110 650.5 110 552.4 219 c 0,52,53
 454.3 328 454.3 328 405.7 458.5 c 128,-1,54
 357.1 589 357.1 589 357.1 741 c 0,55,56
 357.1 895 357.1 895 405.7 1026 c 128,-1,57
 454.3 1157 454.3 1157 552.4 1266 c 0,58,59
 650.5 1375 650.5 1375 768.85 1430 c 128,-1,60
 887.2 1485 887.2 1485 1024 1485 c 0,37,38
1024 1331 m 0,61,62
 915.1 1331 915.1 1331 821.5 1287.5 c 128,-1,63
 727.9 1244 727.9 1244 649.6 1157 c 0,64,65
 572.2 1071 572.2 1071 533.5 967.5 c 128,-1,66
 494.8 864 494.8 864 494.8 741 c 0,67,68
 494.8 619 494.8 619 533.5 515.5 c 128,-1,69
 572.2 412 572.2 412 649.6 326 c 0,70,71
 727 240 727 240 821.05 197 c 128,-1,72
 915.1 154 915.1 154 1024 154 c 0,73,74
 1134.7 154 1134.7 154 1227.4 196.5 c 128,-1,75
 1320.1 239 1320.1 239 1398.4 326 c 0,76,77
 1475.8 412 1475.8 412 1514.5 515.5 c 128,-1,78
 1553.2 619 1553.2 619 1553.2 741 c 0,79,80
 1553.2 864 1553.2 864 1514.5 967.5 c 128,-1,81
 1475.8 1071 1475.8 1071 1398.4 1157 c 0,82,83
 1319.2 1245 1319.2 1245 1226.05 1288 c 128,-1,84
 1132.9 1331 1132.9 1331 1024 1331 c 0,61,62
EndSplineSet
EndChar
StartChar: macron
Encoding: 175 175 217
Width: 972
Flags: HW
Fore
228.5 1548 m 1,0,-1
 795.5 1548 l 1,1,-1
 795.5 1360 l 1,2,-1
 228.5 1360 l 1,3,-1
 228.5 1548 l 1,0,-1
EndSplineSet
Ligature: 0 1 'liga' space uni0304
EndChar
StartChar: degree
Encoding: 176 176 131
Width: 972
Flags: HW
Fore
511.9 1534 m 0,0,1
 571.3 1534 571.3 1534 626.2 1508.5 c 128,-1,2
 681.1 1483 681.1 1483 724.3 1436 c 1,3,4
 766.6 1388 766.6 1388 788.65 1328 c 128,-1,5
 810.7 1268 810.7 1268 810.7 1200 c 0,6,7
 810.7 1133 810.7 1133 788.65 1072.5 c 128,-1,8
 766.6 1012 766.6 1012 726.1 967 c 0,9,10
 682.9 919 682.9 919 627.1 893.5 c 128,-1,11
 571.3 868 571.3 868 510.1 868 c 0,12,13
 383.2 868 383.2 868 297.25 963.5 c 128,-1,14
 211.3 1059 211.3 1059 211.3 1200 c 0,15,16
 211.3 1341 211.3 1341 298.15 1437.5 c 128,-1,17
 385 1534 385 1534 511.9 1534 c 0,0,1
511.9 1372 m 0,18,19
 447.1 1372 447.1 1372 402.1 1322 c 128,-1,20
 357.1 1272 357.1 1272 357.1 1200 c 0,21,22
 357.1 1128 357.1 1128 401.65 1079 c 128,-1,23
 446.2 1030 446.2 1030 511.9 1030 c 0,24,25
 576.7 1030 576.7 1030 621.7 1079.5 c 128,-1,26
 666.7 1129 666.7 1129 666.7 1200 c 0,27,28
 666.7 1272 666.7 1272 621.25 1322 c 128,-1,29
 575.8 1372 575.8 1372 511.9 1372 c 0,18,19
EndSplineSet
EndChar
StartChar: plusminus
Encoding: 177 177 147
Width: 1630
Flags: HW
Fore
281.1 227 m 1,0,-1
 1434.9 227 l 1,1,-1
 1434.9 0 l 1,2,-1
 281.1 0 l 1,3,-1
 281.1 227 l 1,0,-1
961.5 1284 m 1,4,-1
 961.5 926 l 1,5,-1
 1434.9 926 l 1,6,-1
 1434.9 698 l 1,7,-1
 961.5 698 l 1,8,-1
 961.5 340 l 1,9,-1
 754.5 340 l 1,10,-1
 754.5 698 l 1,11,-1
 281.1 698 l 1,12,-1
 281.1 926 l 1,13,-1
 754.5 926 l 1,14,-1
 754.5 1284 l 1,15,-1
 961.5 1284 l 1,4,-1
EndSplineSet
EndChar
StartChar: twosuperior
Encoding: 178 178 241
Width: 850
Flags: HW
Fore
212.6 1284 m 1,0,-1
 128 1284 l 1,1,-1
 128 1479 l 1,2,3
 192.8 1499 192.8 1499 260.75 1509.5 c 128,-1,4
 328.7 1520 328.7 1520 400.7 1520 c 0,5,6
 563.6 1520 563.6 1520 653.6 1456 c 128,-1,7
 743.6 1392 743.6 1392 743.6 1278 c 0,8,9
 743.6 1196 743.6 1196 694.55 1131.5 c 128,-1,10
 645.5 1067 645.5 1067 504.2 977 c 2,11,-1
 284.6 838 l 1,12,-1
 657.2 838 l 1,13,-1
 657.2 934 l 1,14,-1
 747.2 934 l 1,15,-1
 747.2 684 l 1,16,-1
 120.8 684 l 1,17,-1
 120.8 817 l 1,18,-1
 236.9 901 l 2,19,20
 405.2 1024 405.2 1024 450.2 1094 c 128,-1,21
 495.2 1164 495.2 1164 495.2 1257 c 0,22,23
 495.2 1341 495.2 1341 457.85 1388.5 c 128,-1,24
 420.5 1436 420.5 1436 354.8 1436 c 0,25,26
 298.1 1436 298.1 1436 258.95 1394.5 c 128,-1,27
 219.8 1353 219.8 1353 212.6 1284 c 1,0,-1
EndSplineSet
EndChar
StartChar: threesuperior
Encoding: 179 179 242
Width: 852
Flags: HW
Fore
145.15 1481 m 1,0,1
 224.35 1500 224.35 1500 291.4 1510 c 128,-1,2
 358.45 1520 358.45 1520 416.05 1520 c 0,3,4
 578.05 1520 578.05 1520 661.75 1467.5 c 128,-1,5
 745.45 1415 745.45 1415 745.45 1315 c 0,6,7
 745.45 1243 745.45 1243 698.2 1196 c 128,-1,8
 650.95 1149 650.95 1149 559.15 1133 c 1,9,10
 667.15 1117 667.15 1117 722.95 1061.5 c 128,-1,11
 778.75 1006 778.75 1006 778.75 913 c 0,12,13
 778.75 791 778.75 791 686.95 729.5 c 128,-1,14
 595.15 668 595.15 668 414.25 668 c 0,15,16
 342.25 668 342.25 668 270.25 678.5 c 128,-1,17
 198.25 689 198.25 689 126.25 711 c 1,18,-1
 126.25 911 l 1,19,-1
 212.65 911 l 1,20,21
 218.95 831 218.95 831 257.65 791.5 c 128,-1,22
 296.35 752 296.35 752 367.45 752 c 0,23,24
 446.65 752 446.65 752 488.5 795 c 128,-1,25
 530.35 838 530.35 838 530.35 920 c 0,26,27
 530.35 1000 530.35 1000 486.25 1043.5 c 128,-1,28
 442.15 1087 442.15 1087 360.25 1087 c 2,29,-1
 323.35 1087 l 1,30,-1
 323.35 1171 l 1,31,-1
 351.25 1171 l 2,32,33
 424.15 1171 424.15 1171 463.3 1205 c 128,-1,34
 502.45 1239 502.45 1239 502.45 1303 c 0,35,36
 502.45 1366 502.45 1366 467.35 1401 c 128,-1,37
 432.25 1436 432.25 1436 367.45 1436 c 0,38,39
 308.05 1436 308.05 1436 272.05 1399.5 c 128,-1,40
 236.05 1363 236.05 1363 231.55 1299 c 1,41,-1
 145.15 1298 l 1,42,-1
 145.15 1481 l 1,0,1
EndSplineSet
EndChar
StartChar: acute
Encoding: 180 180 141
Width: 983
Flags: HW
Fore
605.05 1638 m 1,0,-1
 856.15 1638 l 1,1,-1
 520.45 1262 l 1,2,-1
 372.85 1262 l 1,3,-1
 605.05 1638 l 1,0,-1
EndSplineSet
LCarets: 0 65535 '    ' 1 0 
Ligature: 0 1 'liga' space acutecomb
EndChar
StartChar: mu
Encoding: 181 181 151
Width: 1423
Flags: HW
Fore
1224.55 1063 m 1,0,-1
 1224.55 121 l 1,1,-1
 1361.35 121 l 1,2,-1
 1361.35 0 l 1,3,-1
 905.95 0 l 1,4,-1
 905.95 125 l 1,5,6
 856.45 42 856.45 42 807.4 6.5 c 128,-1,7
 758.35 -29 758.35 -29 691.75 -29 c 0,8,9
 663.85 -29 663.85 -29 637.3 -19 c 128,-1,10
 610.75 -9 610.75 -9 581.05 12 c 1,11,-1
 581.05 -305 l 1,12,-1
 717.85 -305 l 1,13,-1
 717.85 -426 l 1,14,-1
 125.65 -426 l 1,15,-1
 125.65 -305 l 1,16,-1
 262.45 -305 l 1,17,-1
 262.45 942 l 1,18,-1
 125.65 942 l 1,19,-1
 125.65 1063 l 1,20,-1
 581.05 1063 l 1,21,-1
 581.05 467 l 2,22,23
 581.05 247 581.05 247 611.65 192 c 128,-1,24
 642.25 137 642.25 137 721.45 137 c 0,25,26
 816.85 137 816.85 137 861.4 216.5 c 128,-1,27
 905.95 296 905.95 296 905.95 467 c 2,28,-1
 905.95 942 l 1,29,-1
 788.05 942 l 1,30,-1
 788.05 1063 l 1,31,-1
 1224.55 1063 l 1,0,-1
EndSplineSet
EndChar
StartChar: paragraph
Encoding: 182 182 136
Width: 1238
Flags: HW
Fore
626.95 1493 m 2,0,-1
 1126.45 1493 l 1,1,-1
 1126.45 1368 l 1,2,-1
 1024.75 1368 l 1,3,-1
 1024.75 -197 l 1,4,-1
 887.95 -197 l 1,5,-1
 887.95 1368 l 1,6,-1
 741.25 1368 l 1,7,-1
 741.25 -197 l 1,8,-1
 604.45 -197 l 1,9,-1
 604.45 649 l 1,10,11
 410.95 666 410.95 666 304.75 776.5 c 128,-1,12
 198.55 887 198.55 887 198.55 1071 c 0,13,14
 198.55 1261 198.55 1261 315.55 1377 c 128,-1,15
 432.55 1493 432.55 1493 626.95 1493 c 2,0,-1
EndSplineSet
EndChar
StartChar: periodcentered
Encoding: 183 183 195
Width: 677
Flags: HW
Fore
185.05 711 m 0,0,1
 185.05 789 185.05 789 235.45 845 c 128,-1,2
 285.85 901 285.85 901 356.05 901 c 0,3,4
 427.15 901 427.15 901 477.55 845 c 128,-1,5
 527.95 789 527.95 789 527.95 711 c 0,6,7
 527.95 633 527.95 633 477.55 577.5 c 128,-1,8
 427.15 522 427.15 522 356.05 522 c 0,9,10
 285.85 522 285.85 522 235.45 577.5 c 128,-1,11
 185.05 633 185.05 633 185.05 711 c 0,0,1
EndSplineSet
EndChar
StartChar: cedilla
Encoding: 184 184 221
Width: 970
Flags: HW
Fore
583.45 0 m 1,0,1
 639.25 -64 639.25 -64 665.8 -118.5 c 128,-1,2
 692.35 -173 692.35 -173 692.35 -225 c 0,3,4
 692.35 -311 692.35 -311 634.3 -356 c 128,-1,5
 576.25 -401 576.25 -401 467.35 -401 c 0,6,7
 424.15 -401 424.15 -401 378.25 -394.5 c 128,-1,8
 332.35 -388 332.35 -388 285.55 -375 c 1,9,-1
 284.65 -219 l 1,10,11
 325.15 -236 325.15 -236 363.4 -245 c 128,-1,12
 401.65 -254 401.65 -254 434.05 -254 c 0,13,14
 488.05 -254 488.05 -254 516.4 -230.5 c 128,-1,15
 544.75 -207 544.75 -207 544.75 -162 c 0,16,17
 544.75 -134 544.75 -134 529.9 -101 c 128,-1,18
 515.05 -68 515.05 -68 469.15 0 c 1,19,-1
 583.45 0 l 1,0,1
EndSplineSet
Ligature: 0 1 'liga' space uni0327
EndChar
StartChar: onesuperior
Encoding: 185 185 240
Width: 852
Flags: HW
Fore
190.75 684 m 1,0,-1
 190.75 778 l 1,1,-1
 338.35 778 l 1,2,-1
 338.35 1391 l 1,3,-1
 173.65 1290 l 1,4,-1
 173.65 1395 l 1,5,-1
 373.45 1520 l 1,6,-1
 577.75 1520 l 1,7,-1
 577.75 778 l 1,8,-1
 725.35 778 l 1,9,-1
 725.35 684 l 1,10,-1
 190.75 684 l 1,0,-1
EndSplineSet
EndChar
StartChar: ordmasculine
Encoding: 186 186 158
Width: 972
Flags: HW
Fore
152.9 639 m 1,0,-1
 871.1 639 l 1,1,-1
 871.1 504 l 1,2,-1
 152.9 504 l 1,3,-1
 152.9 639 l 1,0,-1
512 823 m 0,4,5
 580.4 823 580.4 823 610.55 894 c 128,-1,6
 640.7 965 640.7 965 640.7 1128 c 0,7,8
 640.7 1292 640.7 1292 610.55 1363 c 128,-1,9
 580.4 1434 580.4 1434 512 1434 c 0,10,11
 442.7 1434 442.7 1434 413 1364 c 128,-1,12
 383.3 1294 383.3 1294 383.3 1128 c 0,13,14
 383.3 963 383.3 963 413 893 c 128,-1,15
 442.7 823 442.7 823 512 823 c 0,4,5
512 737 m 0,16,17
 321.2 737 321.2 737 213.65 841 c 128,-1,18
 106.1 945 106.1 945 106.1 1128 c 0,19,20
 106.1 1311 106.1 1311 213.65 1415.5 c 128,-1,21
 321.2 1520 321.2 1520 512 1520 c 0,22,23
 702.8 1520 702.8 1520 810.35 1415.5 c 128,-1,24
 917.9 1311 917.9 1311 917.9 1128 c 0,25,26
 917.9 945 917.9 945 810.35 841 c 128,-1,27
 702.8 737 702.8 737 512 737 c 0,16,17
EndSplineSet
EndChar
StartChar: guillemotright
Encoding: 187 187 170
Width: 1217
Flags: HW
Fore
239.45 1069 m 1,0,-1
 661.55 684 l 1,1,-1
 661.55 516 l 1,2,-1
 239.45 131 l 1,3,-1
 239.45 279 l 1,4,-1
 454.55 600 l 1,5,-1
 239.45 922 l 1,6,-1
 239.45 1069 l 1,0,-1
653.45 1069 m 1,7,-1
 1075.55 684 l 1,8,-1
 1075.55 516 l 1,9,-1
 653.45 131 l 1,10,-1
 653.45 279 l 1,11,-1
 869.45 600 l 1,12,-1
 653.45 922 l 1,13,-1
 653.45 1069 l 1,7,-1
EndSplineSet
KernsSLIF: 356 -149 0 0 84 -149 0 0 74 -73 0 0
EndChar
StartChar: questiondown
Encoding: 191 191 162
Width: 1137
Flags: HW
Fore
830.15 1329 m 0,0,1
 830.15 1251 830.15 1251 779.75 1196 c 128,-1,2
 729.35 1141 729.35 1141 659.15 1141 c 0,3,4
 588.05 1141 588.05 1141 538.55 1196 c 128,-1,5
 489.05 1251 489.05 1251 489.05 1329 c 0,6,7
 489.05 1408 489.05 1408 539 1464 c 128,-1,8
 588.95 1520 588.95 1520 659.15 1520 c 0,9,10
 729.35 1520 729.35 1520 779.75 1463.5 c 128,-1,11
 830.15 1407 830.15 1407 830.15 1329 c 0,0,1
1018.25 39 m 1,12,13
 906.65 5 906.65 5 805.85 -12 c 128,-1,14
 705.05 -29 705.05 -29 610.55 -29 c 0,15,16
 383.75 -29 383.75 -29 262.25 81.5 c 128,-1,17
 140.75 192 140.75 192 140.75 397 c 0,18,19
 140.75 599 140.75 599 258.2 715.5 c 128,-1,20
 375.65 832 375.65 832 596.15 850 c 1,21,-1
 596.15 1055 l 1,22,-1
 721.25 1055 l 1,23,-1
 721.25 756 l 1,24,25
 596.15 713 596.15 713 537.2 620.5 c 128,-1,26
 478.25 528 478.25 528 478.25 375 c 0,27,28
 478.25 230 478.25 230 533.15 157 c 128,-1,29
 588.05 84 588.05 84 696.05 84 c 0,30,31
 794.15 84 794.15 84 847.7 150 c 128,-1,32
 901.25 216 901.25 216 910.25 346 c 1,33,-1
 1018.25 346 l 1,34,-1
 1018.25 39 l 1,12,13
EndSplineSet
EndChar
StartChar: Aring
Encoding: 197 197 99
Width: 1509
Flags: HW
Fore
671.1 1616 m 0,0,1
 671.1 1562 671.1 1562 706.2 1523.5 c 128,-1,2
 741.3 1485 741.3 1485 789 1485 c 0,3,4
 838.5 1485 838.5 1485 873.15 1523.5 c 128,-1,5
 907.8 1562 907.8 1562 907.8 1616 c 0,6,7
 907.8 1670 907.8 1670 872.7 1708.5 c 128,-1,8
 837.6 1747 837.6 1747 789 1747 c 0,9,10
 741.3 1747 741.3 1747 706.2 1708.5 c 128,-1,11
 671.1 1670 671.1 1670 671.1 1616 c 0,0,1
65.4004 0 m 1,12,-1
 65.4004 121 l 1,13,-1
 175.2 121 l 1,14,-1
 642.3 1384 l 1,15,16
 590.1 1421 590.1 1421 561.75 1481.5 c 128,-1,17
 533.4 1542 533.4 1542 533.4 1616 c 0,18,19
 533.4 1733 533.4 1733 608.55 1817 c 128,-1,20
 683.7 1901 683.7 1901 789 1901 c 0,21,22
 895.2 1901 895.2 1901 970.35 1817 c 128,-1,23
 1045.5 1733 1045.5 1733 1045.5 1616 c 0,24,25
 1045.5 1542 1045.5 1542 1018.05 1483 c 128,-1,26
 990.6 1424 990.6 1424 936.6 1384 c 1,27,-1
 1402.8 121 l 1,28,-1
 1530.6 121 l 1,29,-1
 1530.6 0 l 1,30,-1
 901.5 0 l 1,31,-1
 901.5 121 l 1,32,-1
 1032.9 121 l 1,33,-1
 922.2 426 l 1,34,-1
 417.3 426 l 1,35,-1
 304.8 121 l 1,36,-1
 465 121 l 1,37,-1
 465 0 l 1,38,-1
 65.4004 0 l 1,12,-1
461.4 547 m 1,39,-1
 878.1 547 l 1,40,-1
 672.9 1118 l 1,41,-1
 461.4 547 l 1,39,-1
EndSplineSet
Ligature: 0 0 'liga' A uni030A
EndChar
StartChar: AE
Encoding: 198 198 144
Width: 2003
Flags: HW
Fore
458.3 545 m 1,0,-1
 876.8 545 l 1,1,-1
 876.8 1372 l 1,2,-1
 809.3 1372 l 1,3,-1
 458.3 545 l 1,0,-1
705.8 0 m 1,4,-1
 705.8 121 l 1,5,-1
 876.8 121 l 1,6,-1
 876.8 424 l 1,7,-1
 407 424 l 1,8,-1
 278.3 121 l 1,9,-1
 425.9 121 l 1,10,-1
 425.9 0 l 1,11,-1
 40.7002 0 l 1,12,-1
 40.7002 121 l 1,13,-1
 143.3 121 l 1,14,-1
 676.1 1372 l 1,15,-1
 495.2 1372 l 1,16,-1
 495.2 1493 l 1,17,-1
 1891.1 1493 l 1,18,-1
 1891.1 1141 l 1,19,-1
 1766.9 1141 l 1,20,-1
 1766.9 1356 l 1,21,-1
 1225.1 1356 l 1,22,-1
 1225.1 877 l 1,23,-1
 1555.4 877 l 1,24,-1
 1555.4 1067 l 1,25,-1
 1676.9 1067 l 1,26,-1
 1676.9 551 l 1,27,-1
 1555.4 551 l 1,28,-1
 1555.4 741 l 1,29,-1
 1225.1 741 l 1,30,-1
 1225.1 137 l 1,31,-1
 1785.8 137 l 1,32,-1
 1785.8 352 l 1,33,-1
 1907.3 352 l 1,34,-1
 1907.3 0 l 1,35,-1
 705.8 0 l 1,4,-1
EndSplineSet
KernsSLIF: 45 38 0 0
EndChar
StartChar: Eth
Encoding: 208 208 232
Width: 1700
Flags: HW
Fore
706.9 121 m 1,0,-1
 832 121 l 2,1,2
 1042.6 121 1042.6 121 1139.35 270.5 c 128,-1,3
 1236.1 420 1236.1 420 1236.1 748 c 0,4,5
 1236.1 1074 1236.1 1074 1139.35 1223 c 128,-1,6
 1042.6 1372 1042.6 1372 832 1372 c 2,7,-1
 706.9 1372 l 1,8,-1
 706.9 850 l 1,9,-1
 1005.7 850 l 1,10,-1
 1005.7 713 l 1,11,-1
 706.9 713 l 1,12,-1
 706.9 121 l 1,0,-1
187.6 0 m 1,13,-1
 187.6 121 l 1,14,-1
 360.4 121 l 1,15,-1
 360.4 713 l 1,16,-1
 168.7 713 l 1,17,-1
 168.7 850 l 1,18,-1
 360.4 850 l 1,19,-1
 360.4 1372 l 1,20,-1
 187.6 1372 l 1,21,-1
 187.6 1493 l 1,22,-1
 878.8 1493 l 2,23,24
 1238.8 1493 1238.8 1493 1430.05 1301.5 c 128,-1,25
 1621.3 1110 1621.3 1110 1621.3 748 c 0,26,27
 1621.3 385 1621.3 385 1430.05 192.5 c 128,-1,28
 1238.8 0 1238.8 0 878.8 0 c 2,29,-1
 187.6 0 l 1,13,-1
EndSplineSet
KernsSLIF: 221 -36 0 0 193 -36 0 0 194 -36 0 0 376 -36 0 0 195 -36 0 0 192 -36 0 0 196 -36 0 0 89 -36 0 0 86 -36 0 0 65 -36 0 0 46 -73 0 0 45 75 0 0 44 -73 0 0
EndChar
StartChar: multiply
Encoding: 215 215 239
Width: 1630
Flags: HW
Fore
1392.6 1081 m 1,0,-1
 996.6 641 l 1,1,-1
 1392.6 201 l 1,2,-1
 1254 47 l 1,3,-1
 858 487 l 1,4,-1
 462 47 l 1,5,-1
 323.4 201 l 1,6,-1
 720.3 641 l 1,7,-1
 323.4 1081 l 1,8,-1
 462 1237 l 1,9,-1
 858 797 l 1,10,-1
 1254 1237 l 1,11,-1
 1392.6 1081 l 1,0,-1
EndSplineSet
EndChar
StartChar: Oslash
Encoding: 216 216 145
Width: 1694
Flags: HW
Fore
570.6 479 m 1,0,-1
 1179.9 1157 l 1,1,2
 1142.1 1276 1142.1 1276 1068.75 1337.5 c 128,-1,3
 995.4 1399 995.4 1399 891 1399 c 0,4,5
 720 1399 720 1399 635.85 1236.5 c 128,-1,6
 551.7 1074 551.7 1074 551.7 745 c 0,7,8
 551.7 669 551.7 669 556.2 603 c 128,-1,9
 560.7 537 560.7 537 570.6 479 c 1,0,-1
603 334 m 1,10,11
 643.5 212 643.5 212 715.05 152 c 128,-1,12
 786.6 92 786.6 92 891 92 c 0,13,14
 1066.5 92 1066.5 92 1149.3 259 c 128,-1,15
 1232.1 426 1232.1 426 1232.1 784 c 0,16,17
 1232.1 849 1232.1 849 1226.7 899.5 c 128,-1,18
 1221.3 950 1221.3 950 1209.6 993 c 1,19,-1
 603 334 l 1,10,11
1453.5 1280 m 1,20,21
 1534.5 1176 1534.5 1176 1575 1042.5 c 128,-1,22
 1615.5 909 1615.5 909 1615.5 745 c 0,23,24
 1615.5 383 1615.5 383 1422.45 177 c 128,-1,25
 1229.4 -29 1229.4 -29 891 -29 c 0,26,27
 748.8 -29 748.8 -29 629.55 10 c 128,-1,28
 510.3 49 510.3 49 414.9 127 c 1,29,-1
 231.3 -78 l 1,30,-1
 150.3 12 l 1,31,-1
 330.3 213 l 1,32,33
 248.4 315 248.4 315 207.45 448.5 c 128,-1,34
 166.5 582 166.5 582 166.5 745 c 0,35,36
 166.5 1107 166.5 1107 359.55 1313.5 c 128,-1,37
 552.6 1520 552.6 1520 891 1520 c 0,38,39
 1035 1520 1035 1520 1154.7 1481.5 c 128,-1,40
 1274.4 1443 1274.4 1443 1368 1366 c 1,41,-1
 1550.7 1569 l 1,42,-1
 1631.7 1479 l 1,43,-1
 1453.5 1280 l 1,20,21
EndSplineSet
KernsSLIF: 88 -36 0 0 86 -36 0 0 46 -120 0 0 45 75 0 0 44 -120 0 0
EndChar
StartChar: Thorn
Encoding: 222 222 236
Width: 1474
Flags: HW
Fore
165.65 0 m 1,0,-1
 165.65 121 l 1,1,-1
 337.55 121 l 1,2,-1
 337.55 1372 l 1,3,-1
 165.65 1372 l 1,4,-1
 165.65 1493 l 1,5,-1
 899.15 1493 l 1,6,-1
 899.15 1372 l 1,7,-1
 684.05 1372 l 1,8,-1
 684.05 1202 l 1,9,-1
 930.65 1202 l 2,10,11
 1154.75 1202 1154.75 1202 1287.05 1083.5 c 128,-1,12
 1419.35 965 1419.35 965 1419.35 766 c 0,13,14
 1419.35 567 1419.35 567 1286.6 447.5 c 128,-1,15
 1153.85 328 1153.85 328 930.65 328 c 2,16,-1
 684.05 328 l 1,17,-1
 684.05 121 l 1,18,-1
 900.95 121 l 1,19,-1
 900.95 0 l 1,20,-1
 165.65 0 l 1,0,-1
684.05 449 m 1,21,-1
 784.85 449 l 2,22,23
 901.85 449 901.85 449 971.6 535 c 128,-1,24
 1041.35 621 1041.35 621 1041.35 766 c 0,25,26
 1041.35 910 1041.35 910 972.05 995.5 c 128,-1,27
 902.75 1081 902.75 1081 784.85 1081 c 2,28,-1
 684.05 1081 l 1,29,-1
 684.05 449 l 1,21,-1
EndSplineSet
KernsSLIF: 46 -301 0 0 45 38 0 0 44 -264 0 0
EndChar
StartChar: germandbls
Encoding: 223 223 137
Width: 1478
Flags: HW
Fore
975.05 1221 m 1,0,1
 968.75 1345 968.75 1345 925.55 1394.5 c 128,-1,2
 882.35 1444 882.35 1444 781.55 1444 c 0,3,4
 683.45 1444 683.45 1444 639.35 1384.5 c 128,-1,5
 595.25 1325 595.25 1325 595.25 1190 c 2,6,-1
 595.25 0 l 1,7,-1
 140.75 0 l 1,8,-1
 140.75 121 l 1,9,-1
 276.65 121 l 1,10,-1
 276.65 1147 l 2,11,12
 276.65 1348 276.65 1348 402.65 1452 c 128,-1,13
 528.65 1556 528.65 1556 770.75 1556 c 0,14,15
 1007.45 1556 1007.45 1556 1128.5 1450.5 c 128,-1,16
 1249.55 1345 1249.55 1345 1273.85 1116 c 1,17,-1
 1254.05 1116 l 2,18,19
 1114.55 1116 1114.55 1116 1043 1070.5 c 128,-1,20
 971.45 1025 971.45 1025 971.45 936 c 0,21,22
 971.45 896 971.45 896 992.15 862.5 c 128,-1,23
 1012.85 829 1012.85 829 1087.55 768 c 2,24,-1
 1166.75 705 l 2,25,26
 1326.05 577 1326.05 577 1370.15 498 c 128,-1,27
 1414.25 419 1414.25 419 1414.25 311 c 0,28,29
 1414.25 151 1414.25 151 1302.2 61 c 128,-1,30
 1190.15 -29 1190.15 -29 988.55 -29 c 0,31,32
 916.55 -29 916.55 -29 837.8 -14 c 128,-1,33
 759.05 1 759.05 1 669.05 31 c 1,34,-1
 669.05 289 l 1,35,-1
 777.95 289 l 1,36,37
 789.65 182 789.65 182 833.75 133 c 128,-1,38
 877.85 84 877.85 84 962.45 84 c 0,39,40
 1030.85 84 1030.85 84 1073.15 128 c 128,-1,41
 1115.45 172 1115.45 172 1115.45 244 c 0,42,43
 1115.45 349 1115.45 349 967.85 466 c 0,44,45
 948.95 481 948.95 481 939.05 489 c 2,46,-1
 858.95 553 l 2,47,48
 767.15 627 767.15 627 726.65 705.5 c 128,-1,49
 686.15 784 686.15 784 686.15 889 c 0,50,51
 686.15 1023 686.15 1023 758.15 1105.5 c 128,-1,52
 830.15 1188 830.15 1188 975.05 1221 c 1,0,1
EndSplineSet
EndChar
StartChar: ae
Encoding: 230 230 160
Width: 1896
Flags: HW
Fore
1461 600 m 1,0,1
 1461 810 1461 810 1425.9 894.5 c 128,-1,2
 1390.8 979 1390.8 979 1306.2 979 c 0,3,4
 1224.3 979 1224.3 979 1188.75 896 c 128,-1,5
 1153.2 813 1153.2 813 1153.2 618 c 2,6,-1
 1153.2 600 l 1,7,-1
 1461 600 l 1,0,1
976.8 936 m 1,8,9
 1046.1 1014 1046.1 1014 1129.35 1053 c 128,-1,10
 1212.6 1092 1212.6 1092 1312.5 1092 c 0,11,12
 1549.2 1092 1549.2 1092 1676.1 937 c 128,-1,13
 1803 782 1803 782 1811.1 481 c 1,14,-1
 1153.2 481 l 1,15,-1
 1153.2 473 l 2,16,17
 1153.2 267 1153.2 267 1209 175.5 c 128,-1,18
 1264.8 84 1264.8 84 1389.9 84 c 0,19,20
 1492.5 84 1492.5 84 1555.5 144.5 c 128,-1,21
 1618.5 205 1618.5 205 1636.5 322 c 1,22,-1
 1787.7 322 l 1,23,24
 1749 141 1749 141 1634.25 56 c 128,-1,25
 1519.5 -29 1519.5 -29 1312.5 -29 c 0,26,27
 1191.9 -29 1191.9 -29 1098.3 9.5 c 128,-1,28
 1004.7 48 1004.7 48 934.5 127 c 1,29,30
 854.4 49 854.4 49 759.45 10 c 128,-1,31
 664.5 -29 664.5 -29 552.9 -29 c 0,32,33
 367.5 -29 367.5 -29 271.2 57.5 c 128,-1,34
 174.9 144 174.9 144 174.9 309 c 0,35,36
 174.9 489 174.9 489 289.65 577.5 c 128,-1,37
 404.4 666 404.4 666 637.5 666 c 2,38,-1
 804.9 666 l 1,39,-1
 804.9 729 l 2,40,41
 804.9 845 804.9 845 741.45 912 c 128,-1,42
 678 979 678 979 567.3 979 c 0,43,44
 474.6 979 474.6 979 423.3 935.5 c 128,-1,45
 372 892 372 892 350.4 795 c 1,46,-1
 248.7 795 l 1,47,-1
 248.7 1024 l 1,48,49
 334.2 1058 334.2 1058 426 1075 c 128,-1,50
 517.8 1092 517.8 1092 619.5 1092 c 0,51,52
 742.8 1092 742.8 1092 831 1053.5 c 128,-1,53
 919.2 1015 919.2 1015 976.8 936 c 1,8,9
804.9 330 m 2,54,-1
 804.9 547 l 1,55,-1
 685.2 547 l 2,56,57
 587.1 547 587.1 547 539.4 492 c 128,-1,58
 491.7 437 491.7 437 491.7 324 c 0,59,60
 491.7 211 491.7 211 527.25 163 c 128,-1,61
 562.8 115 562.8 115 642.9 115 c 0,62,63
 720.3 115 720.3 115 762.6 171 c 128,-1,64
 804.9 227 804.9 227 804.9 330 c 2,54,-1
EndSplineSet
EndChar
StartChar: eth
Encoding: 240 240 233
Width: 1297
Flags: HW
Fore
873.9 1337 m 1,0,1
 1043.1 1188 1043.1 1188 1133.55 986.5 c 128,-1,2
 1224 785 1224 785 1224 557 c 0,3,4
 1224 282 1224 282 1080.9 126.5 c 128,-1,5
 937.8 -29 937.8 -29 684 -29 c 0,6,7
 436.5 -29 436.5 -29 290.25 117.5 c 128,-1,8
 144 264 144 264 144 508 c 0,9,10
 144 738 144 738 287.55 889 c 128,-1,11
 431.1 1040 431.1 1040 650.7 1040 c 0,12,13
 688.5 1040 688.5 1040 727.2 1034 c 128,-1,14
 765.9 1028 765.9 1028 805.5 1016 c 1,15,16
 786.6 1079 786.6 1079 757.35 1134 c 128,-1,17
 728.1 1189 728.1 1189 685.8 1241 c 1,18,-1
 398.7 1092 l 1,19,-1
 353.7 1192 l 1,20,-1
 604.8 1323 l 1,21,22
 558 1361 558 1361 489.15 1392 c 128,-1,23
 420.3 1423 420.3 1423 330.3 1446 c 1,24,-1
 355.5 1556 l 1,25,26
 481.5 1539 481.5 1539 586.8 1502.5 c 128,-1,27
 692.1 1466 692.1 1466 774 1411 c 1,28,-1
 1071 1565 l 1,29,-1
 1113.3 1462 l 1,30,-1
 873.9 1337 l 1,0,1
822.6 891 m 1,31,32
 780.3 910 780.3 910 746.55 919 c 128,-1,33
 712.8 928 712.8 928 684 928 c 0,34,35
 584.1 928 584.1 928 541.8 832.5 c 128,-1,36
 499.5 737 499.5 737 499.5 508 c 0,37,38
 499.5 274 499.5 274 541.8 179 c 128,-1,39
 584.1 84 584.1 84 684 84 c 0,40,41
 783.9 84 783.9 84 825.3 178 c 128,-1,42
 866.7 272 866.7 272 866.7 508 c 0,43,44
 866.7 615 866.7 615 855.45 710.5 c 128,-1,45
 844.2 806 844.2 806 822.6 891 c 1,31,32
EndSplineSet
KernsSLIF: 46 -36 0 0
EndChar
StartChar: divide
Encoding: 247 247 184
Width: 1630
Flags: HW
Fore
723.9 1012 m 0,0,1
 723.9 1073 723.9 1073 763.5 1117 c 128,-1,2
 803.1 1161 803.1 1161 858 1161 c 0,3,4
 913.8 1161 913.8 1161 953.4 1117 c 128,-1,5
 993 1073 993 1073 993 1012 c 0,6,7
 993 950 993 950 953.4 906 c 128,-1,8
 913.8 862 913.8 862 858 862 c 0,9,10
 803.1 862 803.1 862 763.5 906 c 128,-1,11
 723.9 950 723.9 950 723.9 1012 c 0,0,1
723.9 272 m 0,12,13
 723.9 334 723.9 334 763.5 378 c 128,-1,14
 803.1 422 803.1 422 858 422 c 0,15,16
 913.8 422 913.8 422 953.4 378 c 128,-1,17
 993 334 993 334 993 272 c 0,18,19
 993 211 993 211 953.4 167 c 128,-1,20
 913.8 123 913.8 123 858 123 c 0,21,22
 803.1 123 803.1 123 763.5 167 c 128,-1,23
 723.9 211 723.9 211 723.9 272 c 0,12,13
281.1 756 m 1,24,-1
 1434.9 756 l 1,25,-1
 1434.9 528 l 1,26,-1
 281.1 528 l 1,27,-1
 281.1 756 l 1,24,-1
EndSplineSet
EndChar
StartChar: oslash
Encoding: 248 248 161
Width: 1297
Flags: HW
Fore
501.2 416 m 1,0,-1
 849.5 801 l 1,1,2
 834.2 891 834.2 891 793.7 935 c 128,-1,3
 753.2 979 753.2 979 683.9 979 c 0,4,5
 584.9 979 584.9 979 543.05 883.5 c 128,-1,6
 501.2 788 501.2 788 501.2 553 c 2,7,-1
 501.2 416 l 1,0,-1
518.3 262 m 1,8,9
 531.8 173 531.8 173 573.2 128.5 c 128,-1,10
 614.6 84 614.6 84 683.9 84 c 0,11,12
 782 84 782 84 823.4 178 c 128,-1,13
 864.8 272 864.8 272 864.8 508 c 2,14,-1
 864.8 649 l 1,15,-1
 518.3 262 l 1,8,9
1104.2 913 m 1,16,17
 1163.6 841 1163.6 841 1193.75 745.5 c 128,-1,18
 1223.9 650 1223.9 650 1223.9 532 c 0,19,20
 1223.9 270 1223.9 270 1080.35 120.5 c 128,-1,21
 936.8 -29 936.8 -29 683.9 -29 c 0,22,23
 584 -29 584 -29 500.3 -4.5 c 128,-1,24
 416.6 20 416.6 20 344.6 70 c 1,25,-1
 189.8 -102 l 1,26,-1
 114.2 -16 l 1,27,-1
 261.8 147 l 1,28,29
 203.3 222 203.3 222 173.6 318.5 c 128,-1,30
 143.9 415 143.9 415 143.9 532 c 0,31,32
 143.9 795 143.9 795 287.45 943.5 c 128,-1,33
 431 1092 431 1092 683.9 1092 c 0,34,35
 788.3 1092 788.3 1092 873.35 1067 c 128,-1,36
 958.4 1042 958.4 1042 1023.2 993 c 1,37,-1
 1174.4 1161 l 1,38,-1
 1251.8 1075 l 1,39,-1
 1104.2 913 l 1,16,17
EndSplineSet
KernsSLIF: 46 -36 0 0
EndChar
StartChar: thorn
Encoding: 254 254 237
Width: 1358
Flags: HW
Fore
567.55 584 m 2,0,-1
 567.55 479 l 2,1,2
 567.55 293 567.55 293 610.3 210 c 128,-1,3
 653.05 127 653.05 127 748.45 127 c 0,4,5
 846.55 127 846.55 127 886.6 215 c 128,-1,6
 926.65 303 926.65 303 926.65 532 c 0,7,8
 926.65 761 926.65 761 886.6 848.5 c 128,-1,9
 846.55 936 846.55 936 748.45 936 c 0,10,11
 653.05 936 653.05 936 610.3 853 c 128,-1,12
 567.55 770 567.55 770 567.55 584 c 2,0,-1
248.95 1436 m 1,13,-1
 112.15 1436 l 1,14,-1
 112.15 1556 l 1,15,-1
 567.55 1556 l 1,16,-1
 567.55 928 l 1,17,18
 608.05 1011 608.05 1011 676.45 1051.5 c 128,-1,19
 744.85 1092 744.85 1092 845.65 1092 c 0,20,21
 1049.95 1092 1049.95 1092 1167.4 942.5 c 128,-1,22
 1284.85 793 1284.85 793 1284.85 532 c 0,23,24
 1284.85 271 1284.85 271 1167.4 121 c 128,-1,25
 1049.95 -29 1049.95 -29 845.65 -29 c 0,26,27
 744.85 -29 744.85 -29 676.45 11.5 c 128,-1,28
 608.05 52 608.05 52 567.55 135 c 1,29,-1
 567.55 -305 l 1,30,-1
 715.15 -305 l 1,31,-1
 715.15 -426 l 1,32,-1
 112.15 -426 l 1,33,-1
 112.15 -305 l 1,34,-1
 248.95 -305 l 1,35,-1
 248.95 1436 l 1,13,-1
EndSplineSet
KernsSLIF: 46 -102 0 0 44 -36 0 0
EndChar
StartChar: Dcroat
Encoding: 272 272 257
Width: 1700
Flags: HW
Fore
706.9 121 m 1,0,-1
 832 121 l 2,1,2
 1042.6 121 1042.6 121 1139.35 270.5 c 128,-1,3
 1236.1 420 1236.1 420 1236.1 748 c 0,4,5
 1236.1 1074 1236.1 1074 1139.35 1223 c 128,-1,6
 1042.6 1372 1042.6 1372 832 1372 c 2,7,-1
 706.9 1372 l 1,8,-1
 706.9 850 l 1,9,-1
 1005.7 850 l 1,10,-1
 1005.7 713 l 1,11,-1
 706.9 713 l 1,12,-1
 706.9 121 l 1,0,-1
187.6 0 m 1,13,-1
 187.6 121 l 1,14,-1
 360.4 121 l 1,15,-1
 360.4 713 l 1,16,-1
 168.7 713 l 1,17,-1
 168.7 850 l 1,18,-1
 360.4 850 l 1,19,-1
 360.4 1372 l 1,20,-1
 187.6 1372 l 1,21,-1
 187.6 1493 l 1,22,-1
 878.8 1493 l 2,23,24
 1238.8 1493 1238.8 1493 1430.05 1301.5 c 128,-1,25
 1621.3 1110 1621.3 1110 1621.3 748 c 0,26,27
 1621.3 385 1621.3 385 1430.05 192.5 c 128,-1,28
 1238.8 0 1238.8 0 878.8 0 c 2,29,-1
 187.6 0 l 1,13,-1
EndSplineSet
EndChar
StartChar: dcroat
Encoding: 273 273 255
Width: 1363
Flags: HW
Fore
865.55 479 m 2,0,-1
 865.55 584 l 2,1,2
 865.55 770 865.55 770 822.35 853 c 128,-1,3
 779.15 936 779.15 936 684.65 936 c 0,4,5
 585.65 936 585.65 936 545.6 848.5 c 128,-1,6
 505.55 761 505.55 761 505.55 532 c 0,7,8
 505.55 303 505.55 303 546.05 215 c 128,-1,9
 586.55 127 586.55 127 684.65 127 c 0,10,11
 779.15 127 779.15 127 822.35 210 c 128,-1,12
 865.55 293 865.55 293 865.55 479 c 2,0,-1
1184.15 121 m 1,13,-1
 1320.05 121 l 1,14,-1
 1320.05 0 l 1,15,-1
 865.55 0 l 1,16,-1
 865.55 135 l 1,17,18
 825.05 52 825.05 52 756.2 11.5 c 128,-1,19
 687.35 -29 687.35 -29 586.55 -29 c 0,20,21
 383.15 -29 383.15 -29 266.6 121 c 128,-1,22
 150.05 271 150.05 271 150.05 532 c 0,23,24
 150.05 794 150.05 794 266.6 943 c 128,-1,25
 383.15 1092 383.15 1092 586.55 1092 c 0,26,27
 687.35 1092 687.35 1092 756.2 1051.5 c 128,-1,28
 825.05 1011 825.05 1011 865.55 928 c 1,29,-1
 865.55 1223 l 1,30,-1
 573.95 1223 l 1,31,-1
 573.95 1343 l 1,32,-1
 865.55 1343 l 1,33,-1
 865.55 1436 l 1,34,-1
 728.75 1436 l 1,35,-1
 728.75 1556 l 1,36,-1
 1184.15 1556 l 1,37,-1
 1184.15 1343 l 1,38,-1
 1338.95 1343 l 1,39,-1
 1338.95 1223 l 1,40,-1
 1184.15 1223 l 1,41,-1
 1184.15 121 l 1,13,-1
EndSplineSet
EndChar
StartChar: dotlessi
Encoding: 305 305 214
Width: 740
Flags: HW
Fore
557.35 121 m 1,0,-1
 694.15 121 l 1,1,-1
 694.15 0 l 1,2,-1
 102.85 0 l 1,3,-1
 102.85 121 l 1,4,-1
 238.75 121 l 1,5,-1
 238.75 942 l 1,6,-1
 102.85 942 l 1,7,-1
 102.85 1063 l 1,8,-1
 557.35 1063 l 1,9,-1
 557.35 121 l 1,0,-1
EndSplineSet
EndChar
StartChar: Lslash
Encoding: 321 321 225
Width: 1379
Flags: HW
Fore
169.35 0 m 1,0,-1
 169.35 121 l 1,1,-1
 342.15 121 l 1,2,-1
 342.15 549 l 1,3,-1
 148.65 422 l 1,4,-1
 85.6504 539 l 1,5,-1
 342.15 707 l 1,6,-1
 342.15 1372 l 1,7,-1
 169.35 1372 l 1,8,-1
 169.35 1493 l 1,9,-1
 860.55 1493 l 1,10,-1
 860.55 1372 l 1,11,-1
 688.65 1372 l 1,12,-1
 688.65 938 l 1,13,-1
 994.65 1139 l 1,14,-1
 1057.65 1022 l 1,15,-1
 688.65 778 l 1,16,-1
 688.65 137 l 1,17,-1
 1217.85 137 l 1,18,-1
 1217.85 373 l 1,19,-1
 1339.35 373 l 1,20,-1
 1339.35 0 l 1,21,-1
 169.35 0 l 1,0,-1
EndSplineSet
KernsSLIF: 366 -112 0 0 356 -167 0 0 253 -73 0 0 221 -131 0 0 217 -112 0 0 219 -112 0 0 218 -112 0 0 376 -131 0 0 255 -73 0 0 8217 -311 0 0 8221 -301 0 0 220 -112 0 0 121 -73 0 0 89 -131 0 0 87 -139 0 0 86 -243 0 0 85 -112 0 0 84 -167 0 0
EndChar
StartChar: lslash
Encoding: 322 322 226
Width: 749
Flags: HW
Fore
562.35 121 m 1,0,-1
 698.25 121 l 1,1,-1
 698.25 0 l 1,2,-1
 106.95 0 l 1,3,-1
 106.95 121 l 1,4,-1
 242.85 121 l 1,5,-1
 242.85 653 l 1,6,-1
 103.35 557 l 1,7,-1
 47.5498 662 l 1,8,-1
 242.85 795 l 1,9,-1
 242.85 1436 l 1,10,-1
 106.95 1436 l 1,11,-1
 106.95 1556 l 1,12,-1
 562.35 1556 l 1,13,-1
 562.35 999 l 1,14,-1
 701.85 1096 l 1,15,-1
 759.45 991 l 1,16,-1
 562.35 858 l 1,17,-1
 562.35 121 l 1,0,-1
EndSplineSet
EndChar
StartChar: OE
Encoding: 338 338 176
Width: 2295
Flags: HW
Fore
1168.4 121 m 1,0,-1
 1168.4 1372 l 1,1,-1
 1054.1 1372 l 2,2,3
 816.5 1372 816.5 1372 695.9 1215 c 128,-1,4
 575.3 1058 575.3 1058 575.3 748 c 0,5,6
 575.3 434 575.3 434 695 277.5 c 128,-1,7
 814.7 121 814.7 121 1054.1 121 c 2,8,-1
 1168.4 121 l 1,0,-1
2200.7 0 m 1,9,-1
 1011.8 0 l 2,10,11
 825.5 0 825.5 0 703.55 26 c 128,-1,12
 581.6 52 581.6 52 490.7 109 c 1,13,14
 349.4 195 349.4 195 273.35 361 c 128,-1,15
 197.3 527 197.3 527 197.3 748 c 0,16,17
 197.3 968 197.3 968 273.35 1132.5 c 128,-1,18
 349.4 1297 349.4 1297 490.7 1384 c 1,19,20
 580.7 1442 580.7 1442 701.3 1467.5 c 128,-1,21
 821.9 1493 821.9 1493 1011.8 1493 c 2,22,-1
 2184.5 1493 l 1,23,-1
 2184.5 1141 l 1,24,-1
 2061.2 1141 l 1,25,-1
 2061.2 1356 l 1,26,-1
 1516.7 1356 l 1,27,-1
 1516.7 877 l 1,28,-1
 1847 877 l 1,29,-1
 1847 1067 l 1,30,-1
 1970.3 1067 l 1,31,-1
 1970.3 551 l 1,32,-1
 1847 551 l 1,33,-1
 1847 741 l 1,34,-1
 1516.7 741 l 1,35,-1
 1516.7 137 l 1,36,-1
 2077.4 137 l 1,37,-1
 2077.4 352 l 1,38,-1
 2200.7 352 l 1,39,-1
 2200.7 0 l 1,9,-1
EndSplineSet
KernsSLIF: 45 38 0 0
EndChar
StartChar: oe
Encoding: 339 339 177
Width: 1999
Flags: HW
Fore
720.55 84 m 0,0,1
 821.35 84 821.35 84 862.3 180 c 128,-1,2
 903.25 276 903.25 276 903.25 532 c 0,3,4
 903.25 788 903.25 788 862.75 883.5 c 128,-1,5
 822.25 979 822.25 979 720.55 979 c 0,6,7
 618.85 979 618.85 979 577.45 882.5 c 128,-1,8
 536.05 786 536.05 786 536.05 532 c 0,9,10
 536.05 278 536.05 278 577.45 181 c 128,-1,11
 618.85 84 618.85 84 720.55 84 c 0,0,1
1566.55 600 m 1,12,13
 1566.55 810 1566.55 810 1531 894.5 c 128,-1,14
 1495.45 979 1495.45 979 1411.75 979 c 0,15,16
 1330.75 979 1330.75 979 1295.65 897 c 128,-1,17
 1260.55 815 1260.55 815 1260.55 618 c 2,18,-1
 1260.55 600 l 1,19,-1
 1566.55 600 l 1,12,13
1081.45 936 m 1,20,21
 1148.95 1016 1148.95 1016 1232.65 1054 c 128,-1,22
 1316.35 1092 1316.35 1092 1422.55 1092 c 0,23,24
 1656.55 1092 1656.55 1092 1783.45 935 c 128,-1,25
 1910.35 778 1910.35 778 1918.45 482 c 1,26,-1
 1260.55 481 l 1,27,-1
 1260.55 473 l 2,28,29
 1260.55 266 1260.55 266 1315.45 175 c 128,-1,30
 1370.35 84 1370.35 84 1494.55 84 c 0,31,32
 1598.05 84 1598.05 84 1661.95 145 c 128,-1,33
 1725.85 206 1725.85 206 1743.85 322 c 1,34,-1
 1893.25 322 l 1,35,36
 1858.15 148 1858.15 148 1744.75 59.5 c 128,-1,37
 1631.35 -29 1631.35 -29 1443.25 -29 c 0,38,39
 1324.45 -29 1324.45 -29 1235.35 9.5 c 128,-1,40
 1146.25 48 1146.25 48 1081.45 127 c 1,41,42
 1018.45 50 1018.45 50 923.05 10.5 c 128,-1,43
 827.65 -29 827.65 -29 706.15 -29 c 0,44,45
 463.15 -29 463.15 -29 321.85 122 c 128,-1,46
 180.55 273 180.55 273 180.55 532 c 0,47,48
 180.55 795 180.55 795 324.1 943.5 c 128,-1,49
 467.65 1092 467.65 1092 720.55 1092 c 0,50,51
 834.85 1092 834.85 1092 924.4 1053.5 c 128,-1,52
 1013.95 1015 1013.95 1015 1081.45 936 c 1,20,21
EndSplineSet
EndChar
StartChar: florin
Encoding: 402 402 166
Width: 1349
Flags: HW
Fore
572.15 1135 m 1,0,1
 592.85 1323 592.85 1323 697.25 1421.5 c 128,-1,2
 801.65 1520 801.65 1520 981.65 1520 c 0,3,4
 1041.95 1520 1041.95 1520 1110.8 1508 c 128,-1,5
 1179.65 1496 1179.65 1496 1259.75 1473 c 1,6,-1
 1259.75 1239 l 1,7,-1
 1150.85 1239 l 1,8,9
 1150.85 1329 1150.85 1329 1127.45 1368 c 128,-1,10
 1104.05 1407 1104.05 1407 1050.05 1407 c 0,11,12
 982.55 1407 982.55 1407 951.05 1350 c 128,-1,13
 919.55 1293 919.55 1293 900.65 1112 c 1,14,-1
 869.15 821 l 1,15,-1
 1104.95 821 l 1,16,-1
 1104.95 700 l 1,17,-1
 856.55 700 l 1,18,-1
 774.65 -47 l 1,19,20
 755.75 -234 755.75 -234 650 -333 c 128,-1,21
 544.25 -432 544.25 -432 364.25 -432 c 0,22,23
 302.15 -432 302.15 -432 233.3 -420.5 c 128,-1,24
 164.45 -409 164.45 -409 85.25 -385 c 1,25,-1
 85.25 -152 l 1,26,-1
 194.15 -152 l 1,27,28
 194.15 -241 194.15 -241 218.45 -280 c 128,-1,29
 242.75 -319 242.75 -319 295.85 -319 c 0,30,31
 364.25 -319 364.25 -319 395.75 -262.5 c 128,-1,32
 427.25 -206 427.25 -206 447.05 -25 c 2,33,-1
 526.25 700 l 1,34,-1
 308.45 700 l 1,35,-1
 308.45 821 l 1,36,-1
 538.85 821 l 1,37,-1
 572.15 1135 l 1,0,1
EndSplineSet
EndChar
StartChar: uni0237
Encoding: 567 567 218
Width: 687
Flags: HW
Fore
218.15 942 m 1,12,-1
 82.25 942 l 1,13,-1
 82.25 1063 l 1,14,-1
 536.75 1063 l 1,15,-1
 536.75 -125 l 2,16,17
 536.75 -288 536.75 -288 432.8 -371.5 c 128,-1,18
 328.85 -455 328.85 -455 126.35 -455 c 0,19,20
 72.3496 -455 72.3496 -455 11.1504 -445 c 128,-1,21
 -50.0498 -435 -50.0498 -435 -115.75 -416 c 1,22,-1
 -115.75 -190 l 1,23,-1
 -14.0498 -191 l 1,24,25
 -12.25 -271 -12.25 -271 14.2998 -306.5 c 128,-1,26
 40.8496 -342 40.8496 -342 100.25 -342 c 0,27,28
 165.95 -342 165.95 -342 192.05 -295 c 128,-1,29
 218.15 -248 218.15 -248 218.15 -125 c 2,30,-1
 218.15 942 l 1,12,-1
EndSplineSet
EndChar
StartChar: uni02BB
Encoding: 699 699 173
Width: 678
Flags: HW
Fore
571.35 1384 m 1,0,1
 484.95 1317 484.95 1317 445.35 1222.5 c 128,-1,2
 405.75 1128 405.75 1128 405.75 989 c 2,3,-1
 405.75 934 l 1,4,-1
 163.65 934 l 1,5,6
 170.85 1141 170.85 1141 246.45 1282.5 c 128,-1,7
 322.05 1424 322.05 1424 476.85 1520 c 1,8,-1
 571.35 1384 l 1,0,1
EndSplineSet
KernsSLIF: 193 -282 0 0 194 -282 0 0 195 -282 0 0 192 -282 0 0 198 -253 0 0 196 -282 0 0 65 -282 0 0
EndChar
StartChar: circumflex
Encoding: 710 710 215
Width: 972
Flags: HW
Fore
403.1 1638 m 1,0,-1
 620.9 1638 l 1,1,-1
 851.3 1262 l 1,2,-1
 703.7 1262 l 1,3,-1
 512 1487 l 1,4,-1
 320.3 1262 l 1,5,-1
 172.7 1262 l 1,6,-1
 403.1 1638 l 1,0,-1
EndSplineSet
EndChar
StartChar: caron
Encoding: 711 711 224
Width: 972
Flags: HW
Fore
403.1 1262 m 1,0,-1
 172.7 1638 l 1,1,-1
 320.3 1638 l 1,2,-1
 512 1411 l 1,3,-1
 703.7 1638 l 1,4,-1
 851.3 1638 l 1,5,-1
 620.9 1262 l 1,6,-1
 403.1 1262 l 1,0,-1
EndSplineSet
EndChar
StartChar: breve
Encoding: 728 728 218
Width: 972
Flags: HW
Fore
204.2 1589 m 1,0,-1
 316.7 1589 l 1,1,2
 322.1 1516 322.1 1516 372.5 1477 c 128,-1,3
 422.9 1438 422.9 1438 512 1438 c 0,4,5
 601.1 1438 601.1 1438 651.5 1477 c 128,-1,6
 701.9 1516 701.9 1516 707.3 1589 c 1,7,-1
 819.8 1589 l 1,8,9
 819.8 1443 819.8 1443 738.35 1360.5 c 128,-1,10
 656.9 1278 656.9 1278 512 1278 c 0,11,12
 365.3 1278 365.3 1278 285.65 1359 c 128,-1,13
 206 1440 206 1440 204.2 1589 c 1,0,-1
EndSplineSet
Ligature: 0 1 'liga' space uni0306
EndChar
StartChar: dotaccent
Encoding: 729 729 219
Width: 972
Flags: HW
Fore
379.7 1468 m 0,0,1
 379.7 1528 379.7 1528 418.85 1571 c 128,-1,2
 458 1614 458 1614 512 1614 c 0,3,4
 566 1614 566 1614 605.15 1571 c 128,-1,5
 644.3 1528 644.3 1528 644.3 1468 c 0,6,7
 644.3 1409 644.3 1409 605.15 1365 c 128,-1,8
 566 1321 566 1321 512 1321 c 0,9,10
 458 1321 458 1321 418.85 1365 c 128,-1,11
 379.7 1409 379.7 1409 379.7 1468 c 0,0,1
EndSplineSet
Ligature: 0 1 'liga' space uni0307
EndChar
StartChar: ring
Encoding: 730 730 220
Width: 972
Flags: HW
Fore
255.5 1534 m 0,0,1
 255.5 1652 255.5 1652 330.65 1735.5 c 128,-1,2
 405.8 1819 405.8 1819 512 1819 c 0,3,4
 618.2 1819 618.2 1819 693.35 1735.5 c 128,-1,5
 768.5 1652 768.5 1652 768.5 1534 c 0,6,7
 768.5 1416 768.5 1416 693.35 1332.5 c 128,-1,8
 618.2 1249 618.2 1249 512 1249 c 0,9,10
 405.8 1249 405.8 1249 330.65 1332.5 c 128,-1,11
 255.5 1416 255.5 1416 255.5 1534 c 0,0,1
394.1 1534 m 0,12,13
 394.1 1479 394.1 1479 428.75 1441 c 128,-1,14
 463.4 1403 463.4 1403 512 1403 c 0,15,16
 561.5 1403 561.5 1403 595.7 1441.5 c 128,-1,17
 629.9 1480 629.9 1480 629.9 1534 c 0,18,19
 629.9 1588 629.9 1588 595.25 1626.5 c 128,-1,20
 560.6 1665 560.6 1665 512 1665 c 0,21,22
 462.5 1665 462.5 1665 428.3 1626.5 c 128,-1,23
 394.1 1588 394.1 1588 394.1 1534 c 0,12,13
EndSplineSet
LCarets: 0 65535 '    ' 1 0 
Ligature: 0 1 'liga' space uni030A
EndChar
StartChar: ogonek
Encoding: 731 731 223
Width: 974
Flags: HW
Fore
452.85 0 m 1,0,-1
 565.35 0 l 1,1,2
 521.25 -65 521.25 -65 503.7 -102 c 128,-1,3
 486.15 -139 486.15 -139 486.15 -168 c 0,4,5
 486.15 -209 486.15 -209 511.8 -231.5 c 128,-1,6
 537.45 -254 537.45 -254 584.25 -254 c 0,7,8
 619.35 -254 619.35 -254 655.8 -246 c 128,-1,9
 692.25 -238 692.25 -238 726.45 -223 c 1,10,-1
 725.55 -379 l 1,11,12
 676.95 -390 676.95 -390 633.75 -395.5 c 128,-1,13
 590.55 -401 590.55 -401 552.75 -401 c 0,14,15
 451.05 -401 451.05 -401 394.8 -355 c 128,-1,16
 338.55 -309 338.55 -309 338.55 -225 c 0,17,18
 338.55 -173 338.55 -173 366.45 -118.5 c 128,-1,19
 394.35 -64 394.35 -64 452.85 0 c 1,0,-1
EndSplineSet
Ligature: 0 1 'liga' space uni0328
EndChar
StartChar: tilde
Encoding: 732 732 216
Width: 972
Flags: HW
Fore
189.8 1309 m 1,0,-1
 189.8 1325 l 2,1,2
 189.8 1471 189.8 1471 237.5 1546.5 c 128,-1,3
 285.2 1622 285.2 1622 377 1622 c 0,4,5
 410.3 1622 410.3 1622 442.25 1609.5 c 128,-1,6
 474.2 1597 474.2 1597 515.6 1567 c 2,7,-1
 579.5 1520 l 1,8,-1
 582.2 1518 l 2,9,10
 621.8 1489 621.8 1489 654.2 1489 c 0,11,12
 691.1 1489 691.1 1489 713.15 1524 c 128,-1,13
 735.2 1559 735.2 1559 735.2 1620 c 1,14,-1
 834.2 1620 l 1,15,-1
 834.2 1604 l 2,16,17
 834.2 1458 834.2 1458 786.5 1382.5 c 128,-1,18
 738.8 1307 738.8 1307 647 1307 c 0,19,20
 613.7 1307 613.7 1307 581.75 1319.5 c 128,-1,21
 549.8 1332 549.8 1332 508.4 1362 c 2,22,-1
 443.6 1409 l 1,23,-1
 442.7 1410 l 2,24,25
 402.2 1440 402.2 1440 369.8 1440 c 0,26,27
 332.9 1440 332.9 1440 310.85 1405 c 128,-1,28
 288.8 1370 288.8 1370 288.8 1309 c 1,29,-1
 189.8 1309 l 1,0,-1
EndSplineSet
Ligature: 0 1 'liga' space tildecomb
EndChar
StartChar: hungarumlaut
Encoding: 733 733 222
Width: 983
Flags: HW
Fore
764.05 1638 m 1,0,-1
 976.45 1638 l 1,1,-1
 709.15 1262 l 1,2,-1
 561.55 1262 l 1,3,-1
 764.05 1638 l 1,0,-1
434.65 1638 m 1,4,-1
 629.95 1638 l 1,5,-1
 410.35 1262 l 1,6,-1
 264.55 1262 l 1,7,-1
 434.65 1638 l 1,4,-1
EndSplineSet
Ligature: 0 1 'liga' space uni030B
EndChar
StartChar: uni0326
Encoding: 806 806 223
Width: 971
Flags: HW
Fore
332.3 -389 m 1,0,1
 402.5 -347 402.5 -347 435.8 -295 c 128,-1,2
 469.1 -243 469.1 -243 469.1 -174 c 2,3,-1
 469.1 -131 l 1,4,-1
 661.7 -131 l 1,5,-1
 661.7 -135 l 2,6,7
 661.7 -246 661.7 -246 598.7 -325 c 128,-1,8
 536.6 -405 536.6 -405 407 -460 c 1,9,-1
 332.3 -389 l 1,0,1
EndSplineSet
EndChar
StartChar: Omega
Encoding: 937 937 159
Width: 1731
Flags: HW
Fore
1215.25 184 m 1,0,-1
 1515.85 184 l 1,1,-1
 1515.85 309 l 1,2,-1
 1639.15 309 l 1,3,-1
 1639.15 0 l 1,4,-1
 979.45 0 l 1,5,-1
 979.45 193 l 1,6,7
 1119.85 225 1119.85 225 1191.85 377 c 128,-1,8
 1263.85 529 1263.85 529 1263.85 795 c 0,9,10
 1263.85 1090 1263.85 1090 1173.85 1244.5 c 128,-1,11
 1083.85 1399 1083.85 1399 911.05 1399 c 0,12,13
 738.25 1399 738.25 1399 648.7 1244.5 c 128,-1,14
 559.15 1090 559.15 1090 559.15 793 c 0,15,16
 559.15 532 559.15 532 632.05 378.5 c 128,-1,17
 704.95 225 704.95 225 843.55 193 c 1,18,-1
 843.55 0 l 1,19,-1
 182.95 0 l 1,20,-1
 182.95 309 l 1,21,-1
 305.35 309 l 1,22,-1
 305.35 184 l 1,23,-1
 606.85 184 l 1,24,25
 393.55 276 393.55 276 283.75 436.5 c 128,-1,26
 173.95 597 173.95 597 173.95 817 c 0,27,28
 173.95 1133 173.95 1133 376 1326.5 c 128,-1,29
 578.05 1520 578.05 1520 911.05 1520 c 0,30,31
 1244.05 1520 1244.05 1520 1446.55 1326.5 c 128,-1,32
 1649.05 1133 1649.05 1133 1649.05 817 c 0,33,34
 1649.05 597 1649.05 597 1539.25 436.5 c 128,-1,35
 1429.45 276 1429.45 276 1215.25 184 c 1,0,-1
EndSplineSet
EndChar
StartChar: pi
Encoding: 960 960 155
Width: 1424
Flags: HW
Fore
138 0 m 1,0,-1
 138 121 l 1,1,-1
 273.9 121 l 1,2,-1
 273.9 942 l 1,3,-1
 138 942 l 1,4,-1
 138 1063 l 1,5,-1
 1362 1063 l 1,6,-1
 1362 942 l 1,7,-1
 1225.2 942 l 1,8,-1
 1225.2 121 l 1,9,-1
 1362 121 l 1,10,-1
 1362 0 l 1,11,-1
 788.7 0 l 1,12,-1
 788.7 121 l 1,13,-1
 906.6 121 l 1,14,-1
 906.6 942 l 1,15,-1
 592.5 942 l 1,16,-1
 592.5 121 l 1,17,-1
 709.5 121 l 1,18,-1
 709.5 0 l 1,19,-1
 138 0 l 1,0,-1
EndSplineSet
EndChar
StartChar: afii10051
Encoding: 1026 1026 158
Width: 1740
Flags: HW
Fore
1582.75 436 m 2,0,1
 1582.75 635.995 1582.75 635.995 1450 755.5 c 0,2,3
 1317.26 875 1317.26 875 1099.45 875 c 2,4,-1
 747.55 875 l 1,5,-1
 747.55 1356 l 1,6,-1
 1264.15 1356 l 1,7,-1
 1264.15 1120 l 1,8,-1
 1385.65 1120 l 1,9,-1
 1385.65 1493 l 1,10,-1
 -5.75 1493 l 1,11,-1
 -5.75 1120 l 1,12,-1
 117.55 1120 l 1,13,-1
 117.55 1356 l 1,14,-1
 399.25 1356 l 1,15,-1
 399.25 121 l 1,16,-1
 229.15 121 l 1,17,-1
 229.15 0 l 1,18,-1
 905.05 0 l 1,19,-1
 905.05 121 l 1,20,-1
 749.35 121 l 1,21,-1
 747.55 754 l 1,22,-1
 985.15 754 l 2,23,24
 1102.15 754 1102.15 754 1171.9 667.5 c 0,25,26
 1241.65 581.005 1241.65 581.005 1241.65 436 c 2,27,-1
 1241.65 85 l 2,28,29
 1241.65 -143.189 1241.65 -143.189 1211.9 -230.145 c 1,30,31
 1207 -242.5 l 1,32,33
 1172.35 -317 1172.35 -317 1085.05 -317 c 0,34,35
 1016.66 -317 1016.66 -317 982 -273 c 0,36,37
 947.35 -229.001 947.35 -229.001 941.95 -135 c 1,38,-1
 824.95 -135 l 1,39,-1
 824.95 -370 l 1,40,41
 903.25 -404 903.25 -404 978.85 -421 c 0,42,43
 1054.45 -438 1054.45 -438 1129.15 -438 c 0,44,45
 1362.25 -438 1362.25 -438 1472.5 -326 c 0,46,47
 1550.23 -247.039 1550.23 -247.039 1574.69 -53.501 c 0,48,49
 1582.75 10.3252 1582.75 10.3252 1582.75 77 c 2,50,-1
 1582.75 436 l 2,0,1
EndSplineSet
EndChar
StartChar: afii10053
Encoding: 1028 1028 160
Width: 1546
Flags: HW
Fore
1454 426 m 1,0,1
 1400.91 195.005 1400.91 195.005 1263.2 83 c 0,2,3
 1125.5 -29 1125.5 -29 893.3 -29 c 0,4,5
 553.1 -29 553.1 -29 355.55 179.5 c 0,6,7
 158 388 158 388 158 745 c 0,8,9
 158 1103 158 1103 355.55 1311.5 c 0,10,11
 553.1 1520 553.1 1520 893.3 1520 c 0,12,13
 1012.98 1520 1012.98 1520 1142.6 1488 c 0,14,15
 1272.16 1456.02 1272.16 1456.02 1417.1 1391 c 1,16,-1
 1417.1 1024 l 1,17,-1
 1302.8 1024 l 1,18,19
 1267.7 1212.01 1267.7 1212.01 1175 1305.5 c 0,20,21
 1082.29 1399 1082.29 1399 930.2 1399 c 0,22,23
 734 1399 734 1399 638.6 1238.5 c 0,24,25
 553.9 1096 553.9 1096 544.486 830 c 1,26,-1
 1142.6 830 l 1,27,-1
 1142.6 669 l 1,28,-1
 543.782 669 l 1,29,30
 549.648 417.671 549.648 417.671 625.58 275.084 c 0,31,32
 631.795 263.413 631.795 263.413 638.6 252 c 0,33,34
 734 92 734 92 932 92 c 0,35,36
 1066.1 92 1066.1 92 1151.15 175 c 0,37,38
 1236.19 257.994 1236.19 257.994 1274.9 426 c 1,39,-1
 1454 426 l 1,0,1
EndSplineSet
EndChar
StartChar: afii10054
Encoding: 1029 1029 161
Width: 1405
Flags: HW
Fore
216.75 72 m 1,0,-1
 216.75 426 l 1,1,-1
 331.05 426 l 1,2,3
 357.15 258 357.15 258 454.35 175 c 0,4,5
 551.55 92.001 551.55 92.001 723.45 92 c 0,6,7
 862.95 92 862.95 92 935.85 151 c 0,8,9
 1008.75 209.999 1008.75 209.999 1008.75 324 c 0,10,11
 1008.75 414.005 1008.75 414.005 959.25 464 c 0,12,13
 909.749 514 909.749 514 754.95 557 c 2,14,-1
 553.35 612 l 1,15,16
 356.25 667.999 356.25 667.999 276.15 767.5 c 0,17,18
 196.05 867 196.05 867 196.05 1051 c 0,19,20
 196.05 1273 196.05 1273 328.8 1396.5 c 0,21,22
 461.556 1520 461.556 1520 700.95 1520 c 0,23,24
 818.88 1520 818.88 1520 946.2 1498 c 0,25,26
 1073.57 1475.99 1073.57 1475.99 1210.35 1432 c 1,27,-1
 1210.35 1102 l 1,28,-1
 1096.05 1102 l 1,29,30
 1069.96 1255.98 1069.96 1255.98 981.75 1327.5 c 0,31,32
 893.557 1399 893.557 1399 730.65 1399 c 0,33,34
 597.456 1399 597.456 1399 529.5 1347.5 c 0,35,36
 461.55 1296 461.55 1296 461.55 1194 c 0,37,38
 461.55 1100.99 461.55 1100.99 508.35 1052.5 c 0,39,40
 555.156 1004 555.156 1004 737.85 952 c 1,41,-1
 939.45 897 l 2,42,43
 1126.66 845 1126.66 845 1210.8 735 c 0,44,45
 1294.95 624.995 1294.95 624.995 1294.95 432 c 0,46,47
 1294.95 206 1294.95 206 1154.55 88.5 c 0,48,49
 1014.15 -29 1014.15 -29 741.45 -29 c 0,50,51
 610.05 -29 610.05 -29 480.45 -4 c 0,52,53
 350.85 21 350.85 21 216.75 72 c 1,0,-1
EndSplineSet
EndChar
StartChar: afii10055
Encoding: 1030 1030 162
Width: 910
Flags: HW
Fore
134.4 0 m 1,0,-1
 134.4 121 l 1,1,-1
 306.3 121 l 1,2,-1
 306.3 1372 l 1,3,-1
 134.4 1372 l 1,4,-1
 134.4 1493 l 1,5,-1
 825.6 1493 l 1,6,-1
 825.6 1372 l 1,7,-1
 652.8 1372 l 1,8,-1
 652.8 121 l 1,9,-1
 825.6 121 l 1,10,-1
 825.6 0 l 1,11,-1
 134.4 0 l 1,0,-1
EndSplineSet
EndChar
StartChar: afii10057
Encoding: 1032 1032 164
Width: 909
Flags: HW
Fore
-97.9502 -358 m 1,0,-1
 -97.9502 -123 l 1,1,-1
 19.0498 -123 l 1,2,3
 24.4502 -217.001 24.4502 -217.001 59.0996 -261 c 0,4,5
 93.75 -305 93.75 -305 162.15 -305 c 0,6,7
 249.45 -305 249.45 -305 284.1 -230.5 c 0,8,9
 318.75 -156 318.75 -156 318.75 49 c 2,10,-1
 318.75 1372 l 1,11,-1
 123.45 1372 l 1,12,-1
 123.45 1493 l 1,13,-1
 838.95 1493 l 1,14,-1
 838.95 1372 l 1,15,-1
 667.05 1372 l 1,16,-1
 667.05 41 l 2,17,18
 667.05 -202 667.05 -202 556.8 -314 c 0,19,20
 446.55 -426 446.55 -426 206.25 -426 c 0,21,22
 131.552 -426 131.552 -426 55.9502 -409 c 0,23,24
 -19.6504 -392 -19.6504 -392 -97.9502 -358 c 1,0,-1
EndSplineSet
EndChar
StartChar: afii10058
Encoding: 1033 1033 165
Width: 2447
Flags: HW
Fore
1261.85 1356 m 1,0,-1
 849.65 1356 l 1,1,-1
 849.65 447 l 2,2,3
 849.65 204 849.65 204 739.4 92 c 0,4,5
 629.15 -20 629.15 -20 393.35 -20 c 0,6,7
 318.651 -20 318.651 -20 243.05 -3 c 0,8,9
 167.45 13.999 167.45 13.999 89.1504 48 c 1,10,-1
 89.1504 283 l 1,11,-1
 206.15 283 l 1,12,13
 211.55 188.999 211.55 188.999 246.2 145 c 0,14,15
 280.851 101 280.851 101 349.25 101 c 0,16,17
 436.55 101 436.55 101 471.2 175.5 c 0,18,19
 506.455 251.3 506.455 251.3 505.85 455 c 1,20,-1
 505.85 1372 l 1,21,-1
 322.25 1372 l 1,22,-1
 322.25 1493 l 1,23,-1
 1781.15 1493 l 1,24,-1
 1781.15 1372 l 1,25,-1
 1608.35 1372 l 1,26,-1
 1607.45 870 l 1,27,-1
 1675.85 870 l 2,28,29
 1821.29 870 1821.29 870 1941.35 847 c 0,30,31
 2121.58 812.475 2121.58 812.475 2248.7 697.866 c 0,32,33
 2250.28 696.438 2250.28 696.438 2251.85 695 c 0,34,35
 2359.85 596 2359.85 596 2359.85 432 c 0,36,37
 2359.85 209.997 2359.85 209.997 2209.1 105 c 0,38,39
 2099.34 28.5537 2099.34 28.5537 1952.42 9.33594 c 0,40,41
 1881.04 0 1881.04 0 1786.55 0 c 2,42,-1
 1089.05 0 l 1,43,-1
 1089.05 121 l 1,44,-1
 1260.95 121 l 1,45,-1
 1261.85 1356 l 1,0,-1
1607.45 121 m 1,35,-1
 1686.65 121 l 2,36,37
 1789.3 121 1789.3 121 1843.75 157.497 c 0,38,39
 1862.55 170.106 1862.55 170.106 1891.85 197 c 0,40,41
 1974.65 273.005 1974.65 273.005 1974.65 432 c 0,42,43
 1974.65 592 1974.65 592 1890.95 671 c 0,44,45
 1837.57 721.382 1837.57 721.382 1796.85 735.575 c 1,46,47
 1756.33 745.42 l 1,48,49
 1726.92 750 1726.92 750 1686.65 750 c 2,50,-1
 1607.45 750 l 1,51,-1
 1607.45 121 l 1,35,-1
EndSplineSet
EndChar
StartChar: afii10059
Encoding: 1034 1034 166
Width: 2452
Flags: HW
Fore
1096.6 1493 m 9,11,-1
 1786.9 1493 l 1,12,-1
 1786.9 1372 l 1,13,-1
 1614.1 1372 l 1,14,-1
 1614.1 870 l 1,15,-1
 1682.5 870 l 2,16,17
 1827.94 870 1827.94 870 1948 847 c 0,18,19
 2128.22 812.475 2128.22 812.475 2255.35 697.866 c 0,20,21
 2256.93 696.438 2256.93 696.438 2258.5 695 c 0,22,23
 2366.5 596 2366.5 596 2366.5 432 c 0,24,25
 2366.5 209.997 2366.5 209.997 2215.75 105 c 0,26,27
 2106 28.5537 2106 28.5537 1959.07 9.33594 c 0,28,29
 1887.69 0 1887.69 0 1793.2 0 c 2,30,-1
 1096.6 0 l 1,31,-1
 1096.6 121 l 1,32,-1
 1268.5 121 l 1,33,-1
 1268.5 733 l 1,34,-1
 733.9 733 l 1,35,-1
 733.9 121 l 1,36,-1
 906.7 121 l 1,37,-1
 906.7 0 l 1,38,-1
 215.5 0 l 1,39,-1
 215.5 121 l 1,40,-1
 387.4 121 l 1,41,-1
 387.4 1372 l 1,42,-1
 215.5 1372 l 1,43,-1
 215.5 1493 l 1,44,-1
 906.7 1493 l 1,45,-1
 906.7 1372 l 1,46,-1
 733.9 1372 l 1,47,-1
 733.9 870 l 1,48,-1
 1268.5 870 l 1,49,-1
 1268.5 1372 l 1,50,-1
 1096.6 1372 l 1,51,-1
 1096.6 1493 l 9,11,-1
1614.1 121 m 1,17,-1
 1693.3 121 l 2,18,19
 1795.95 121 1795.95 121 1850.4 157.497 c 0,20,21
 1869.21 170.106 1869.21 170.106 1898.5 197 c 0,22,23
 1981.3 273.005 1981.3 273.005 1981.3 432 c 0,24,25
 1981.3 592 1981.3 592 1897.6 671 c 0,26,27
 1844.22 721.382 1844.22 721.382 1803.5 735.575 c 1,28,29
 1762.98 745.42 l 1,30,31
 1733.57 750 1733.57 750 1693.3 750 c 2,32,-1
 1614.1 750 l 1,33,-1
 1614.1 121 l 1,17,-1
EndSplineSet
EndChar
StartChar: afii10060
Encoding: 1035 1035 167
Width: 1863
Flags: HW
Fore
757.1 1356 m 1,0,-1
 1273.7 1356 l 1,1,-1
 1273.7 1120 l 1,2,-1
 1395.2 1120 l 1,3,-1
 1395.2 1493 l 1,4,-1
 3.7998 1493 l 1,5,-1
 3.7998 1120 l 1,6,-1
 127.1 1120 l 1,7,-1
 127.1 1356 l 1,8,-1
 408.8 1356 l 1,9,-1
 408.8 121 l 1,10,-1
 238.7 121 l 1,11,-1
 238.7 0 l 1,12,-1
 914.6 0 l 1,13,-1
 914.6 121 l 1,14,-1
 758.9 121 l 1,15,-1
 757.1 754 l 1,16,-1
 994.7 754 l 2,17,18
 1111.7 754 1111.7 754 1181.45 667.5 c 0,19,20
 1251.2 581.005 1251.2 581.005 1251.2 436 c 2,21,-1
 1251.2 121 l 1,22,-1
 1099.1 121 l 1,23,-1
 1099.1 0 l 1,24,-1
 1764.2 0 l 1,25,-1
 1764.2 121 l 1,26,-1
 1592.3 121 l 1,27,-1
 1592.3 436 l 2,28,29
 1592.3 635.995 1592.3 635.995 1459.55 755.5 c 0,30,31
 1326.81 875 1326.81 875 1109 875 c 2,32,-1
 757.1 875 l 1,33,-1
 757.1 1356 l 1,0,-1
EndSplineSet
EndChar
StartChar: afii10145
Encoding: 1039 1039 171
Width: 1838
Flags: HW
Fore
183.35 0 m 1,0,-1
 183.35 121 l 1,1,-1
 355.25 121 l 1,2,-1
 355.25 1372 l 1,3,-1
 183.35 1372 l 1,4,-1
 183.35 1493 l 1,5,-1
 874.55 1493 l 1,6,-1
 874.55 1372 l 1,7,-1
 701.75 1372 l 1,8,-1
 701.75 137 l 1,9,-1
 1236.35 137 l 1,10,-1
 1236.35 1372 l 1,11,-1
 1064.45 1372 l 1,12,-1
 1064.45 1493 l 1,13,-1
 1755.65 1493 l 1,14,-1
 1755.65 1372 l 1,15,-1
 1582.85 1372 l 1,16,-1
 1582.85 121 l 1,17,-1
 1755.65 121 l 1,18,-1
 1755.65 0 l 1,19,-1
 1095.95 0 l 1,20,-1
 1095.95 -358 l 1,21,-1
 843.05 -358 l 1,22,-1
 843.05 0 l 1,23,-1
 183.35 0 l 1,0,-1
EndSplineSet
EndChar
StartChar: afii10017
Encoding: 1040 1040 172
Width: 1509
Flags: HW
Fore
65.4004 0 m 1,0,-1
 65.4004 121 l 1,1,-1
 175.2 121 l 1,2,-1
 681 1493 l 1,3,-1
 896.1 1493 l 1,4,-1
 1402.8 121 l 1,5,-1
 1530.6 121 l 1,6,-1
 1530.6 0 l 1,7,-1
 901.5 0 l 1,8,-1
 901.5 121 l 1,9,-1
 1032.9 121 l 1,10,-1
 922.2 426 l 1,11,-1
 417.3 426 l 1,12,-1
 304.8 121 l 1,13,-1
 465 121 l 1,14,-1
 465 0 l 1,15,-1
 65.4004 0 l 1,0,-1
461.4 547 m 1,16,-1
 878.1 547 l 1,17,-1
 671.1 1118 l 1,18,-1
 461.4 547 l 1,16,-1
EndSplineSet
EndChar
StartChar: afii10018
Encoding: 1041 1041 173
Width: 1661
Flags: HW
Fore
691.45 1356 m 1,0,-1
 691.45 870 l 1,1,-1
 810.25 870 l 2,2,3
 994.147 870 994.147 870 1120.56 852.375 c 0,4,5
 1132.58 850.698 1132.58 850.698 1141.45 849 c 0,6,7
 1319 814.987 1319 814.987 1448.8 697.868 c 0,8,9
 1450.38 696.44 1450.38 696.44 1451.95 695 c 0,10,11
 1559.95 596 1559.95 596 1559.95 432 c 0,12,13
 1559.95 209.997 1559.95 209.997 1409.2 105 c 0,14,15
 1258.44 0 1258.44 0 920.95 0 c 2,16,-1
 173.05 0 l 1,17,-1
 173.05 121 l 1,18,-1
 344.95 121 l 1,19,-1
 344.95 1372 l 1,20,-1
 173.05 1372 l 1,21,-1
 173.05 1493 l 1,22,-1
 1478.05 1493 l 1,23,-1
 1478.05 1120 l 1,24,-1
 1356.55 1120 l 1,25,-1
 1356.55 1356 l 1,26,-1
 691.45 1356 l 1,0,-1
691.45 121 m 1,20,-1
 821.05 121 l 2,21,22
 1002.61 121 1002.61 121 1086.87 192.523 c 0,23,24
 1089.48 194.733 1089.48 194.733 1091.95 197 c 0,25,26
 1174.75 273.005 1174.75 273.005 1174.75 432 c 0,27,28
 1174.75 592 1174.75 592 1091.05 671 c 0,29,30
 1011.29 746.282 1011.29 746.282 835.718 749.852 c 0,31,32
 828.424 750 828.424 750 821.05 750 c 2,33,-1
 691.45 750 l 1,34,-1
 691.45 121 l 1,20,-1
EndSplineSet
EndChar
StartChar: afii10019
Encoding: 1042 1042 174
Width: 1643
Flags: HW
Fore
172.1 0 m 1,0,-1
 172.1 121 l 1,1,-1
 344 121 l 1,2,-1
 344 1372 l 1,3,-1
 172.1 1372 l 1,4,-1
 172.1 1493 l 1,5,-1
 968.6 1493 l 2,6,7
 1214.3 1493 1214.3 1493 1337.6 1401 c 0,8,9
 1460.9 1309 1460.9 1309 1460.9 1124 c 0,10,11
 1460.9 991 1460.9 991 1375.85 913 c 0,12,13
 1290.8 835 1290.8 835 1123.4 815 c 1,14,15
 1325.9 794 1325.9 794 1433.9 695 c 0,16,17
 1541.9 596 1541.9 596 1541.9 432 c 0,18,19
 1541.9 209.997 1541.9 209.997 1391.15 105 c 0,20,21
 1240.39 0 1240.39 0 919.1 0 c 2,22,-1
 172.1 0 l 1,0,-1
690.5 870 m 1,19,-1
 808.4 870 l 2,20,21
 963.205 870 963.205 870 1037.9 932.5 c 0,22,23
 1112.6 995.004 1112.6 995.004 1112.6 1124 c 0,24,25
 1112.6 1254.01 1112.6 1254.01 1040.15 1313 c 0,26,27
 967.689 1372 967.689 1372 808.4 1372 c 2,28,-1
 690.5 1372 l 1,29,-1
 690.5 870 l 1,19,-1
690.5 121 m 1,28,-1
 819.2 121 l 2,29,30
 991.109 121 991.109 121 1073.9 197 c 0,31,32
 1156.7 273.005 1156.7 273.005 1156.7 432 c 0,33,34
 1156.7 592 1156.7 592 1073 671 c 0,35,36
 989.3 750 989.3 750 819.2 750 c 2,37,-1
 690.5 750 l 1,38,-1
 690.5 121 l 1,28,-1
EndSplineSet
EndChar
StartChar: afii10020
Encoding: 1043 1043 175
Width: 1384
Flags: HW
Fore
682.75 121 m 1,0,-1
 894.25 121 l 1,1,-1
 894.25 0 l 1,2,-1
 162.55 0 l 1,3,-1
 162.55 121 l 1,4,-1
 334.45 121 l 1,5,-1
 334.45 1372 l 1,6,-1
 162.55 1372 l 1,7,-1
 162.55 1493 l 1,8,-1
 1360.45 1493 l 1,9,-1
 1360.45 1141 l 1,10,-1
 1237.15 1141 l 1,11,-1
 1237.15 1356 l 1,12,-1
 682.75 1356 l 1,13,-1
 682.75 121 l 1,0,-1
EndSplineSet
EndChar
StartChar: afii10021
Encoding: 1044 1044 176
Width: 1841
Flags: HW
Fore
1495.1 -151 m 1,0,-1
 518.6 -151 l 1,1,2
 418.048 -196.116 418.048 -196.116 391.829 -353.124 c 0,3,4
 382.457 -409.24 382.457 -409.24 376.269 -542.923 c 0,5,6
 372.663 -620.815 372.663 -620.815 372.8 -642 c 1,7,-1
 177.5 -642 l 1,8,-1
 177.5 7 l 1,9,-1
 400.003 7 l 1,10,11
 431.231 25.6191 431.231 25.6191 448.85 63.5 c 0,12,13
 474.965 119.648 474.965 119.648 482.21 364.55 c 0,14,15
 483.627 412.4 483.627 412.4 483.5 455 c 1,16,-1
 483.5 1372 l 1,17,-1
 299.9 1372 l 1,18,-1
 299.9 1493 l 1,19,-1
 1758.8 1493 l 1,20,-1
 1758.8 1372 l 1,21,-1
 1586 1372 l 1,22,-1
 1586 7 l 1,23,-1
 1824.5 7 l 1,24,-1
 1824.5 -642 l 1,25,-1
 1629.2 -642 l 1,26,27
 1623.84 -555.298 1623.84 -555.298 1618.63 -469.45 c 0,28,29
 1609.53 -317.168 1609.53 -317.168 1570.99 -236.178 c 0,30,31
 1543.48 -178.376 1543.48 -178.376 1495.1 -151 c 1,0,-1
740.57 7 m 1,32,-1
 1239.5 7 l 1,33,-1
 1239.5 1356 l 1,34,-1
 827.3 1356 l 1,35,-1
 827.3 447 l 2,36,37
 827.3 274.52 827.3 274.52 790.143 127.87 c 0,38,39
 768.789 43.5947 768.789 43.5947 740.57 7 c 1,32,-1
EndSplineSet
EndChar
StartChar: afii10022
Encoding: 1045 1045 177
Width: 1482
Flags: HW
Fore
164 0 m 1,0,-1
 164 121 l 1,1,-1
 335.9 121 l 1,2,-1
 335.9 1372 l 1,3,-1
 164 1372 l 1,4,-1
 164 1493 l 1,5,-1
 1371.8 1493 l 1,6,-1
 1371.8 1141 l 1,7,-1
 1247.6 1141 l 1,8,-1
 1247.6 1356 l 1,9,-1
 682.4 1356 l 1,10,-1
 682.4 877 l 1,11,-1
 1034.3 877 l 1,12,-1
 1034.3 1067 l 1,13,-1
 1157.6 1067 l 1,14,-1
 1157.6 551 l 1,15,-1
 1034.3 551 l 1,16,-1
 1034.3 741 l 1,17,-1
 682.4 741 l 1,18,-1
 682.4 137 l 1,19,-1
 1264.7 137 l 1,20,-1
 1264.7 352 l 1,21,-1
 1388 352 l 1,22,-1
 1388 0 l 1,23,-1
 164 0 l 1,0,-1
EndSplineSet
EndChar
StartChar: afii10024
Encoding: 1046 1046 178
Width: 2560
Flags: HW
Fore
1665.6 1493 m 1,5,-1
 1665.6 1372 l 1,6,-1
 1492.8 1372 l 1,7,-1
 1492.8 827 l 1,8,-1
 1972.5 1372 l 1,9,-1
 1828.5 1372 l 1,10,-1
 1828.5 1493 l 1,11,-1
 2329.8 1493 l 1,12,-1
 2329.8 1372 l 1,13,-1
 2150.7 1372 l 1,14,-1
 1758.3 911 l 1,15,-1
 2324.4 121 l 1,16,-1
 2456.7 121 l 1,17,-1
 2456.7 0 l 1,18,-1
 2001.3 0 l 1,19,-1
 1492.8 725 l 1,20,-1
 1492.8 121 l 1,21,-1
 1665.6 121 l 1,22,-1
 1665.6 0 l 1,23,-1
 974.4 0 l 1,24,-1
 974.4 121 l 1,25,-1
 1147.2 121 l 1,26,-1
 1147.2 725 l 1,27,-1
 638.7 0 l 1,28,-1
 183.3 0 l 1,29,-1
 183.3 121 l 1,30,-1
 315.6 121 l 1,31,-1
 881.7 911 l 1,32,-1
 489.3 1372 l 1,33,-1
 310.2 1372 l 1,34,-1
 310.2 1493 l 1,35,-1
 811.5 1493 l 1,36,-1
 811.5 1372 l 1,37,-1
 667.5 1372 l 1,38,-1
 1147.2 827 l 1,39,-1
 1147.2 1372 l 1,40,-1
 974.4 1372 l 1,41,-1
 974.4 1493 l 1,42,-1
 1665.6 1493 l 1,5,-1
EndSplineSet
EndChar
StartChar: afii10025
Encoding: 1047 1047 179
Width: 1354
Flags: HW
Fore
230.25 1450 m 1,0,1
 349.05 1484.99 349.05 1484.99 460.65 1502.5 c 0,2,3
 572.219 1520 572.219 1520 678.45 1520 c 0,4,5
 921.443 1520 921.443 1520 1051.5 1423.5 c 0,6,7
 1181.55 1327 1181.55 1327 1181.55 1147 c 0,8,9
 1181.55 1012.01 1181.55 1012.01 1106.85 928 c 0,10,11
 1032.16 844 1032.16 844 888.15 815 c 1,12,13
 1063.65 784 1063.65 784 1150.05 682 c 0,14,15
 1236.45 580 1236.45 580 1236.45 403 c 0,16,17
 1236.45 194.003 1236.45 194.003 1087.5 82.5 c 0,18,19
 938.555 -29 938.555 -29 655.95 -29 c 0,20,21
 549.751 -29 549.751 -29 436.8 -9 c 0,22,23
 323.85 11 323.85 11 200.55 51 c 1,24,-1
 200.55 379 l 1,25,-1
 309.45 379 l 1,26,27
 319.349 237.001 319.349 237.001 389.55 162.5 c 0,28,29
 459.75 87.999 459.75 87.999 583.95 88 c 0,30,31
 720.75 88 720.75 88 795.45 172.5 c 0,32,33
 870.15 257 870.15 257 870.15 412 c 0,34,35
 870.15 574 870.15 574 792.3 662 c 0,36,37
 714.45 750 714.45 750 571.35 750 c 2,38,-1
 511.95 750 l 1,39,-1
 511.95 870 l 1,40,-1
 558.75 870 l 2,41,42
 691.05 870 691.05 870 757.65 938 c 0,43,44
 824.25 1006 824.25 1006 824.25 1141 c 0,45,46
 824.25 1268 824.25 1268 761.7 1335.5 c 0,47,48
 699.15 1403 699.15 1403 582.15 1403 c 0,49,50
 475.95 1403 475.95 1403 413.85 1338.5 c 0,51,52
 351.75 1274 351.75 1274 339.15 1151 c 1,53,-1
 230.25 1151 l 1,54,-1
 230.25 1450 l 1,0,1
EndSplineSet
EndChar
StartChar: afii10026
Encoding: 1048 1048 180
Width: 1838
Flags: HW
Fore
183.35 0 m 1,0,-1
 183.35 121 l 1,1,-1
 355.25 121 l 1,2,-1
 355.25 1372 l 1,3,-1
 183.35 1372 l 1,4,-1
 183.35 1493 l 1,5,-1
 874.55 1493 l 1,6,-1
 874.55 1372 l 1,7,-1
 701.75 1372 l 1,8,-1
 701.75 565 l 1,9,-1
 1236.35 1265 l 1,10,-1
 1236.35 1372 l 1,11,-1
 1064.45 1372 l 1,12,-1
 1064.45 1493 l 1,13,-1
 1755.65 1493 l 1,14,-1
 1755.65 1372 l 1,15,-1
 1582.85 1372 l 1,16,-1
 1582.85 121 l 1,17,-1
 1755.65 121 l 1,18,-1
 1755.65 0 l 1,19,-1
 1064.45 0 l 1,20,-1
 1064.45 121 l 1,21,-1
 1236.35 121 l 1,22,-1
 1236.35 956 l 1,23,-1
 701.75 256 l 1,24,-1
 701.75 121 l 1,25,-1
 874.55 121 l 1,26,-1
 874.55 0 l 1,27,-1
 183.35 0 l 1,0,-1
EndSplineSet
EndChar
StartChar: afii10028
Encoding: 1050 1050 182
Width: 1698
Flags: HW
Fore
183.35 0 m 1,0,-1
 183.35 121 l 1,1,-1
 355.25 121 l 1,2,-1
 355.25 1372 l 1,3,-1
 183.35 1372 l 1,4,-1
 183.35 1493 l 1,5,-1
 874.55 1493 l 1,6,-1
 874.55 1372 l 1,7,-1
 701.75 1372 l 1,8,-1
 701.75 827 l 1,9,-1
 1271.45 1372 l 1,10,-1
 1127.45 1372 l 1,11,-1
 1127.45 1493 l 1,12,-1
 1628.75 1493 l 1,13,-1
 1628.75 1372 l 1,14,-1
 1449.65 1372 l 1,15,-1
 967.25 911 l 1,16,-1
 1623.35 121 l 1,17,-1
 1755.65 121 l 1,18,-1
 1755.65 0 l 1,19,-1
 1300.25 0 l 1,20,-1
 701.75 725 l 1,21,-1
 701.75 121 l 1,22,-1
 874.55 121 l 1,23,-1
 874.55 0 l 1,24,-1
 183.35 0 l 1,0,-1
EndSplineSet
EndChar
StartChar: afii10029
Encoding: 1051 1051 183
Width: 1831
Flags: HW
Fore
817.5 1356 m 1,0,-1
 1229.7 1356 l 1,1,-1
 1229.7 121 l 1,2,-1
 1057.8 121 l 1,3,-1
 1057.8 0 l 1,4,-1
 1749 0 l 1,5,-1
 1749 121 l 1,6,-1
 1576.2 121 l 1,7,-1
 1576.2 1372 l 1,8,-1
 1749 1372 l 1,9,-1
 1749 1493 l 1,10,-1
 290.1 1493 l 1,11,-1
 290.1 1372 l 1,12,-1
 473.7 1372 l 1,13,-1
 473.7 455 l 1,14,15
 474.305 251.3 474.305 251.3 439.05 175.5 c 0,16,17
 404.4 101 404.4 101 317.1 101 c 0,18,19
 248.701 101 248.701 101 214.05 145 c 0,20,21
 179.399 188.999 179.399 188.999 174 283 c 1,22,-1
 57 283 l 1,23,-1
 57 48 l 1,24,25
 135.3 13.999 135.3 13.999 210.9 -3 c 0,26,27
 286.502 -20 286.502 -20 361.2 -20 c 0,28,29
 597 -20 597 -20 707.25 92 c 0,30,31
 817.5 204 817.5 204 817.5 447 c 2,32,-1
 817.5 1356 l 1,0,-1
EndSplineSet
EndChar
StartChar: afii10030
Encoding: 1052 1052 184
Width: 2153
Flags: HW
Fore
190.25 0 m 1,0,-1
 190.25 121 l 1,1,-1
 361.25 121 l 1,2,-1
 361.25 1372 l 1,3,-1
 190.25 1372 l 1,4,-1
 190.25 1493 l 1,5,-1
 744.65 1493 l 1,6,-1
 1128.05 535 l 1,7,-1
 1513.25 1493 l 1,8,-1
 2066.75 1493 l 1,9,-1
 2066.75 1372 l 1,10,-1
 1894.85 1372 l 1,11,-1
 1894.85 121 l 1,12,-1
 2066.75 121 l 1,13,-1
 2066.75 0 l 1,14,-1
 1375.55 0 l 1,15,-1
 1375.55 121 l 1,16,-1
 1546.55 121 l 1,17,-1
 1546.55 1260 l 1,18,-1
 1129.85 219 l 1,19,-1
 902.15 219 l 1,20,-1
 487.25 1260 l 1,21,-1
 487.25 121 l 1,22,-1
 658.25 121 l 1,23,-1
 658.25 0 l 1,24,-1
 190.25 0 l 1,0,-1
EndSplineSet
EndChar
StartChar: afii10031
Encoding: 1053 1053 185
Width: 1838
Flags: HW
Fore
183.35 0 m 1,0,-1
 183.35 121 l 1,1,-1
 355.25 121 l 1,2,-1
 355.25 1372 l 1,3,-1
 183.35 1372 l 1,4,-1
 183.35 1493 l 1,5,-1
 874.55 1493 l 1,6,-1
 874.55 1372 l 1,7,-1
 701.75 1372 l 1,8,-1
 701.75 870 l 1,9,-1
 1236.35 870 l 1,10,-1
 1236.35 1372 l 1,11,-1
 1064.45 1372 l 1,12,-1
 1064.45 1493 l 1,13,-1
 1755.65 1493 l 1,14,-1
 1755.65 1372 l 1,15,-1
 1582.85 1372 l 1,16,-1
 1582.85 121 l 1,17,-1
 1755.65 121 l 1,18,-1
 1755.65 0 l 1,19,-1
 1064.45 0 l 1,20,-1
 1064.45 121 l 1,21,-1
 1236.35 121 l 1,22,-1
 1236.35 733 l 1,23,-1
 701.75 733 l 1,24,-1
 701.75 121 l 1,25,-1
 874.55 121 l 1,26,-1
 874.55 0 l 1,27,-1
 183.35 0 l 1,0,-1
EndSplineSet
EndChar
StartChar: afii10032
Encoding: 1054 1054 186
Width: 1694
Flags: HW
Fore
891 92 m 0,0,1
 1062.9 92 1062.9 92 1146.6 253 c 0,2,3
 1230.3 414 1230.3 414 1230.3 745 c 0,4,5
 1230.3 1077.01 1230.3 1077.01 1146.6 1238 c 0,6,7
 1062.9 1399 1062.9 1399 891 1399 c 0,8,9
 720.002 1399 720.002 1399 635.85 1236.5 c 0,10,11
 551.7 1074 551.7 1074 551.7 745 c 0,12,13
 551.7 417 551.7 417 635.85 254.5 c 0,14,15
 720 92 720 92 891 92 c 0,0,1
891 -29 m 0,12,13
 551.7 -29 551.7 -29 359.1 177 c 0,14,15
 166.5 382.999 166.5 382.999 166.5 745 c 0,16,17
 166.5 1106.99 166.5 1106.99 359.55 1313.5 c 0,18,19
 552.596 1520 552.596 1520 891 1520 c 0,20,21
 1230.29 1520 1230.29 1520 1422.9 1314 c 0,22,23
 1615.5 1108.01 1615.5 1108.01 1615.5 745 c 0,24,25
 1615.5 383 1615.5 383 1422.45 177 c 0,26,27
 1229.4 -29 1229.4 -29 891 -29 c 0,12,13
EndSplineSet
EndChar
StartChar: afii10033
Encoding: 1055 1055 187
Width: 1838
Flags: HW
Fore
183.35 1493 m 1,0,-1
 183.35 1372 l 1,1,-1
 355.25 1372 l 1,2,-1
 355.25 121 l 1,3,-1
 183.35 121 l 1,4,-1
 183.35 0 l 1,5,-1
 874.55 0 l 1,6,-1
 874.55 121 l 1,7,-1
 701.75 121 l 1,8,-1
 701.75 1356 l 1,9,-1
 1236.35 1356 l 1,10,-1
 1236.35 121 l 1,11,-1
 1064.45 121 l 1,12,-1
 1064.45 0 l 1,13,-1
 1755.65 0 l 1,14,-1
 1755.65 121 l 1,15,-1
 1582.85 121 l 1,16,-1
 1582.85 1372 l 1,17,-1
 1755.65 1372 l 1,18,-1
 1755.65 1493 l 1,19,-1
 183.35 1493 l 1,0,-1
EndSplineSet
EndChar
StartChar: afii10034
Encoding: 1056 1056 188
Width: 1465
Flags: HW
Fore
165.65 0 m 1,0,-1
 165.65 121 l 1,1,-1
 337.55 121 l 1,2,-1
 337.55 1372 l 1,3,-1
 165.65 1372 l 1,4,-1
 165.65 1493 l 1,5,-1
 930.65 1493 l 2,6,7
 1154.75 1493 1154.75 1493 1287.05 1374.5 c 0,8,9
 1419.35 1256 1419.35 1256 1419.35 1057 c 0,10,11
 1419.35 857.005 1419.35 857.005 1286.6 737.5 c 0,12,13
 1153.86 618 1153.86 618 930.65 618 c 2,14,-1
 684.05 618 l 1,15,-1
 684.05 121 l 1,16,-1
 900.95 121 l 1,17,-1
 900.95 0 l 1,18,-1
 165.65 0 l 1,0,-1
684.05 739 m 1,17,-1
 784.85 739 l 2,18,19
 901.85 739 901.85 739 971.6 825.5 c 0,20,21
 1041.35 911.995 1041.35 911.995 1041.35 1057 c 0,22,23
 1041.35 1200.99 1041.35 1200.99 972.05 1286.5 c 0,24,25
 902.75 1372 902.75 1372 784.85 1372 c 2,26,-1
 684.05 1372 l 1,27,-1
 684.05 739 l 1,17,-1
EndSplineSet
EndChar
StartChar: afii10035
Encoding: 1057 1057 189
Width: 1547
Flags: HW
Fore
1454 426 m 1,0,1
 1400.91 195.005 1400.91 195.005 1263.2 83 c 0,2,3
 1125.5 -29 1125.5 -29 893.3 -29 c 0,4,5
 553.1 -29 553.1 -29 355.55 179.5 c 0,6,7
 158 388 158 388 158 745 c 0,8,9
 158 1103 158 1103 355.55 1311.5 c 0,10,11
 553.1 1520 553.1 1520 893.3 1520 c 0,12,13
 1012.98 1520 1012.98 1520 1142.6 1488 c 0,14,15
 1272.16 1456.02 1272.16 1456.02 1417.1 1391 c 1,16,-1
 1417.1 1024 l 1,17,-1
 1302.8 1024 l 1,18,19
 1267.7 1212.01 1267.7 1212.01 1175 1305.5 c 0,20,21
 1082.29 1399 1082.29 1399 930.2 1399 c 0,22,23
 734 1399 734 1399 638.6 1238.5 c 0,24,25
 543.2 1078 543.2 1078 543.2 745 c 0,26,27
 543.2 412 543.2 412 638.6 252 c 0,28,29
 734 92 734 92 932 92 c 0,30,31
 1066.1 92 1066.1 92 1151.15 175 c 0,32,33
 1236.19 257.994 1236.19 257.994 1274.9 426 c 1,34,-1
 1454 426 l 1,0,1
EndSplineSet
EndChar
StartChar: afii10036
Encoding: 1058 1058 190
Width: 1447
Flags: HW
Fore
410.2 0 m 1,0,-1
 410.2 121 l 1,1,-1
 588.4 121 l 1,2,-1
 588.4 1356 l 1,3,-1
 220.3 1356 l 1,4,-1
 220.3 1120 l 1,5,-1
 97 1120 l 1,6,-1
 97 1493 l 1,7,-1
 1429 1493 l 1,8,-1
 1429 1120 l 1,9,-1
 1307.5 1120 l 1,10,-1
 1307.5 1356 l 1,11,-1
 936.7 1356 l 1,12,-1
 936.7 121 l 1,13,-1
 1115.8 121 l 1,14,-1
 1115.8 0 l 1,15,-1
 410.2 0 l 1,0,-1
EndSplineSet
EndChar
StartChar: afii10037
Encoding: 1059 1059 191
Width: 1577
Flags: HW
Fore
638.55 258 m 2,0,-1
 720.45 468 l 1,1,-1
 268.65 1356 l 1,2,-1
 127.35 1356 l 1,3,-1
 127.35 1493 l 1,4,-1
 639.45 1493 l 1,5,-1
 639.45 1356 l 1,6,-1
 508.95 1356 l 1,7,-1
 823.05 740 l 1,8,-1
 1055.25 1356 l 1,9,-1
 921.15 1356 l 1,10,-1
 921.15 1493 l 1,11,-1
 1501.65 1493 l 1,12,-1
 1501.65 1356 l 1,13,-1
 1376.55 1356 l 1,14,-1
 886.95 78 l 2,15,16
 857.25 0 857.25 0 755.55 0 c 2,17,-1
 457.65 0 l 1,18,-1
 457.65 188 l 1,19,-1
 511.65 188 l 2,20,21
 598.72 188 598.72 188 628.438 237.082 c 0,22,23
 634.069 246.382 634.069 246.382 638.55 258 c 2,0,-1
EndSplineSet
EndChar
StartChar: afii10038
Encoding: 1060 1060 192
Width: 2041
Flags: HW
Fore
1224.45 92 m 2,0,1
 1395 92 1395 92 1480.05 254 c 1,2,3
 1563.75 417.5 1563.75 417.5 1563.75 745 c 0,4,5
 1563.75 1074 1563.75 1074 1480.05 1236 c 0,6,7
 1395.26 1399 1395.26 1399 1224.45 1399 c 2,8,-1
 1184.85 1399 l 1,9,-1
 1184.85 92 l 1,10,-1
 1224.45 92 l 2,0,1
908.55 -29 m 2,11,12
 569.25 -29 569.25 -29 376.65 177 c 0,13,14
 184.05 382.999 184.05 382.999 184.05 745 c 0,15,16
 184.05 1106.99 184.05 1106.99 377.1 1313.5 c 0,17,18
 570.146 1520 570.146 1520 908.55 1520 c 2,19,-1
 946.35 1520 l 1,20,-1
 946.35 1698 l 1,21,-1
 774.45 1698 l 1,22,-1
 774.45 1819 l 1,23,-1
 1357.65 1819 l 1,24,-1
 1357.65 1698 l 1,25,-1
 1184.85 1698 l 1,26,-1
 1184.85 1520 l 1,27,-1
 1224.45 1520 l 2,28,29
 1563.28 1520 1563.28 1520 1755.45 1314 c 0,30,31
 1948.95 1107.96 1948.95 1107.96 1948.95 745 c 0,32,33
 1948.95 382.021 1948.95 382.021 1756.35 177 c 0,34,35
 1562.83 -29 1562.83 -29 1224.45 -29 c 2,36,-1
 1184.85 -29 l 1,37,-1
 1184.85 -230 l 1,38,-1
 1357.65 -230 l 1,39,-1
 1357.65 -351 l 1,40,-1
 774.45 -351 l 1,41,-1
 774.45 -230 l 1,42,-1
 946.35 -230 l 1,43,-1
 946.35 -29 l 1,44,-1
 908.55 -29 l 2,11,12
946.35 92 m 1,45,-1
 946.35 1399 l 1,46,-1
 908.55 1399 l 2,47,48
 737.552 1399 737.552 1399 653.4 1236.5 c 0,49,50
 569.25 1074 569.25 1074 569.25 745 c 0,51,52
 569.25 417 569.25 417 653.4 254.5 c 0,53,54
 737.55 92 737.55 92 908.55 92 c 2,55,-1
 946.35 92 l 1,45,-1
EndSplineSet
EndChar
StartChar: afii10039
Encoding: 1061 1061 193
Width: 1509
Flags: HW
Fore
704.45 575 m 1,0,-1
 424.55 121 l 1,1,-1
 590.15 121 l 1,2,-1
 590.15 0 l 1,3,-1
 113.15 0 l 1,4,-1
 113.15 121 l 1,5,-1
 278.75 121 l 1,6,-1
 632.45 692 l 1,7,-1
 212.15 1372 l 1,8,-1
 88.8496 1372 l 1,9,-1
 88.8496 1493 l 1,10,-1
 756.65 1493 l 1,11,-1
 756.65 1372 l 1,12,-1
 609.05 1372 l 1,13,-1
 869.15 952 l 1,14,-1
 1126.55 1372 l 1,15,-1
 969.95 1372 l 1,16,-1
 969.95 1493 l 1,17,-1
 1437.95 1493 l 1,18,-1
 1437.95 1372 l 1,19,-1
 1272.35 1372 l 1,20,-1
 940.25 836 l 1,21,-1
 1381.25 121 l 1,22,-1
 1508.15 121 l 1,23,-1
 1508.15 0 l 1,24,-1
 837.65 0 l 1,25,-1
 837.65 121 l 1,26,-1
 987.05 121 l 1,27,-1
 704.45 575 l 1,0,-1
EndSplineSet
EndChar
StartChar: afii10040
Encoding: 1062 1062 194
Width: 1839
Flags: HW
Fore
1781.3 121 m 1,0,-1
 1584.2 121 l 1,1,-1
 1584.2 1372 l 1,2,-1
 1757 1372 l 1,3,-1
 1757 1493 l 1,4,-1
 1065.8 1493 l 1,5,-1
 1065.8 1372 l 1,6,-1
 1237.7 1372 l 1,7,-1
 1237.7 137 l 1,8,-1
 703.1 137 l 1,9,-1
 703.1 1372 l 1,10,-1
 875.9 1372 l 1,11,-1
 875.9 1493 l 1,12,-1
 184.7 1493 l 1,13,-1
 184.7 1372 l 1,14,-1
 356.6 1372 l 1,15,-1
 356.6 121 l 1,16,-1
 184.7 121 l 1,17,-1
 184.7 0 l 1,18,-1
 1465.4 0 l 1,19,-1
 1465.4 -358 l 1,20,-1
 1781.3 -358 l 1,21,-1
 1781.3 121 l 1,0,-1
EndSplineSet
EndChar
StartChar: afii10041
Encoding: 1063 1063 195
Width: 1768
Flags: HW
Fore
1673.25 1493 m 1,0,-1
 1673.25 1372 l 1,1,-1
 1501.35 1372 l 1,2,-1
 1501.35 121 l 1,3,-1
 1673.25 121 l 1,4,-1
 1673.25 0 l 1,5,-1
 937.95 0 l 1,6,-1
 937.95 121 l 1,7,-1
 1154.85 121 l 1,8,-1
 1154.85 618 l 1,9,-1
 802.95 618 l 2,10,11
 585.145 618 585.145 618 452.4 737.5 c 0,12,13
 319.65 857.005 319.65 857.005 319.65 1057 c 2,14,-1
 319.65 1372 l 1,15,-1
 147.75 1372 l 1,16,-1
 147.75 1493 l 1,17,-1
 812.85 1493 l 1,18,-1
 812.85 1372 l 1,19,-1
 660.75 1372 l 1,20,-1
 660.75 1057 l 2,21,22
 660.75 911.995 660.75 911.995 730.5 825.5 c 0,23,24
 800.25 739 800.25 739 917.25 739 c 2,25,-1
 1154.85 739 l 1,26,-1
 1153.05 1372 l 1,27,-1
 997.35 1372 l 1,28,-1
 997.35 1493 l 1,29,-1
 1673.25 1493 l 1,0,-1
EndSplineSet
EndChar
StartChar: afii10042
Encoding: 1064 1064 196
Width: 2173
Flags: HW
Fore
200.05 0 m 1,0,-1
 200.05 121 l 1,1,-1
 371.95 121 l 1,2,-1
 371.95 1372 l 1,3,-1
 200.05 1372 l 1,4,-1
 200.05 1493 l 1,5,-1
 891.25 1493 l 1,6,-1
 891.25 1372 l 1,7,-1
 718.45 1372 l 1,8,-1
 718.45 137 l 1,9,-1
 1037.05 137 l 1,10,-1
 1037.05 1200 l 1,11,-1
 1235.05 1200 l 1,12,-1
 1235.05 137 l 1,13,-1
 1553.65 137 l 1,14,-1
 1553.65 1372 l 1,15,-1
 1381.75 1372 l 1,16,-1
 1381.75 1493 l 1,17,-1
 2072.95 1493 l 1,18,-1
 2072.95 1372 l 1,19,-1
 1900.15 1372 l 1,20,-1
 1900.15 121 l 1,21,-1
 2072.95 121 l 1,22,-1
 2072.95 0 l 1,23,-1
 200.05 0 l 1,0,-1
EndSplineSet
EndChar
StartChar: afii10043
Encoding: 1065 1065 197
Width: 2203
Flags: HW
Fore
2098.6 121 m 1,0,-1
 2098.6 -358 l 1,1,-1
 1782.7 -358 l 1,2,-1
 1782.7 0 l 1,3,-1
 201.4 0 l 1,4,-1
 201.4 121 l 1,5,-1
 373.3 121 l 1,6,-1
 373.3 1372 l 1,7,-1
 201.4 1372 l 1,8,-1
 201.4 1493 l 1,9,-1
 892.6 1493 l 1,10,-1
 892.6 1372 l 1,11,-1
 719.8 1372 l 1,12,-1
 719.8 137 l 1,13,-1
 1038.4 137 l 1,14,-1
 1038.4 1200 l 1,15,-1
 1236.4 1200 l 1,16,-1
 1236.4 137 l 1,17,-1
 1555 137 l 1,18,-1
 1555 1372 l 1,19,-1
 1383.1 1372 l 1,20,-1
 1383.1 1493 l 1,21,-1
 2074.3 1493 l 1,22,-1
 2074.3 1372 l 1,23,-1
 1901.5 1372 l 1,24,-1
 1901.5 121 l 1,25,-1
 2098.6 121 l 1,0,-1
EndSplineSet
EndChar
StartChar: afii10044
Encoding: 1066 1066 198
Width: 1703
Flags: HW
Fore
12.2998 1493 m 9,0,-1
 1022.1 1493 l 1,1,-1
 1022.1 1372 l 1,2,-1
 849.3 1372 l 1,3,-1
 849.3 870 l 1,4,-1
 917.7 870 l 2,5,6
 1063.14 870 1063.14 870 1183.2 847 c 0,7,8
 1363.42 812.475 1363.42 812.475 1490.55 697.866 c 0,9,10
 1492.13 696.438 1492.13 696.438 1493.7 695 c 0,11,12
 1601.7 596 1601.7 596 1601.7 432 c 0,13,14
 1601.7 209.997 1601.7 209.997 1450.95 105 c 0,15,16
 1341.2 28.5537 1341.2 28.5537 1194.27 9.33594 c 0,17,18
 1122.89 0 1122.89 0 1028.4 0 c 2,19,-1
 330.9 0 l 1,20,-1
 330.9 121 l 1,21,-1
 502.8 121 l 1,22,-1
 503.7 1356 l 1,23,-1
 135.6 1356 l 1,24,-1
 135.6 1120 l 1,25,-1
 12.2998 1120 l 1,26,-1
 12.2998 1493 l 9,0,-1
849.3 121 m 1,20,-1
 928.5 121 l 2,21,22
 1031.15 121 1031.15 121 1085.59 157.497 c 0,23,24
 1104.41 170.106 1104.41 170.106 1133.7 197 c 0,25,26
 1216.5 273.005 1216.5 273.005 1216.5 432 c 0,27,28
 1216.5 592 1216.5 592 1132.8 671 c 0,29,30
 1079.42 721.382 1079.42 721.382 1038.71 735.575 c 1,31,32
 998.178 745.42 l 1,33,34
 968.767 750 968.767 750 928.5 750 c 2,35,-1
 849.3 750 l 1,36,-1
 849.3 121 l 1,20,-1
EndSplineSet
EndChar
StartChar: afii10045
Encoding: 1067 1067 199
Width: 2313
Flags: HW
Fore
1496.7 0 m 1,0,-1
 1496.7 121 l 1,1,-1
 1668.6 121 l 1,2,-1
 1668.6 1372 l 1,3,-1
 1496.7 1372 l 1,4,-1
 1496.7 1493 l 1,5,-1
 2187.9 1493 l 1,6,-1
 2187.9 1372 l 1,7,-1
 2015.1 1372 l 1,8,-1
 2015.1 121 l 1,9,-1
 2187.9 121 l 1,10,-1
 2187.9 0 l 1,11,-1
 1496.7 0 l 1,0,-1
1058.4 847 m 128,-1,12
 1238.62 812.475 1238.62 812.475 1365.75 697.866 c 0,13,14
 1367.33 696.438 1367.33 696.438 1368.9 695 c 0,15,16
 1476.9 596 1476.9 596 1476.9 432 c 0,17,18
 1476.9 209.997 1476.9 209.997 1326.15 105 c 0,19,20
 1216.4 28.5537 1216.4 28.5537 1069.47 9.33594 c 0,21,22
 998.096 0 998.096 0 903.6 0 c 2,23,-1
 206.1 0 l 1,24,-1
 206.1 121 l 1,25,-1
 378 121 l 1,26,-1
 378 1372 l 1,27,-1
 206.1 1372 l 1,28,-1
 206.1 1493 l 1,29,-1
 897.3 1493 l 1,30,-1
 897.3 1372 l 1,31,-1
 724.5 1372 l 1,32,-1
 724.5 870 l 1,33,-1
 792.9 870 l 2,34,35
 938.344 870 938.344 870 1058.4 847 c 128,-1,12
724.5 121 m 1,29,-1
 803.7 121 l 2,30,31
 906.353 121 906.353 121 960.793 157.497 c 0,32,33
 979.602 170.106 979.602 170.106 1008.9 197 c 0,34,35
 1091.7 273.005 1091.7 273.005 1091.7 432 c 0,36,37
 1091.7 592 1091.7 592 1008 671 c 0,38,39
 954.621 721.382 954.621 721.382 913.904 735.575 c 0,40,41
 872.523 750 872.523 750 803.7 750 c 2,42,-1
 724.5 750 l 1,43,-1
 724.5 121 l 1,29,-1
EndSplineSet
EndChar
StartChar: afii10046
Encoding: 1068 1068 200
Width: 1539
Flags: HW
Fore
1018.9 847 m 128,-1,0
 1199.12 812.475 1199.12 812.475 1326.25 697.866 c 0,1,2
 1327.83 696.438 1327.83 696.438 1329.4 695 c 0,3,4
 1437.4 596 1437.4 596 1437.4 432 c 0,5,6
 1437.4 209.997 1437.4 209.997 1286.65 105 c 0,7,8
 1176.9 28.5537 1176.9 28.5537 1029.97 9.33594 c 0,9,10
 958.596 0 958.596 0 864.1 0 c 2,11,-1
 166.6 0 l 1,12,-1
 166.6 121 l 1,13,-1
 338.5 121 l 1,14,-1
 338.5 1372 l 1,15,-1
 166.6 1372 l 1,16,-1
 166.6 1493 l 1,17,-1
 857.8 1493 l 1,18,-1
 857.8 1372 l 1,19,-1
 685 1372 l 1,20,-1
 685 870 l 1,21,-1
 753.4 870 l 2,22,23
 898.844 870 898.844 870 1018.9 847 c 128,-1,0
685 121 m 1,17,-1
 764.2 121 l 2,18,19
 866.853 121 866.853 121 921.293 157.497 c 0,20,21
 940.102 170.106 940.102 170.106 969.4 197 c 0,22,23
 1052.2 273.005 1052.2 273.005 1052.2 432 c 0,24,25
 1052.2 592 1052.2 592 968.5 671 c 0,26,27
 915.121 721.382 915.121 721.382 874.404 735.575 c 0,28,29
 833.023 750 833.023 750 764.2 750 c 2,30,-1
 685 750 l 1,31,-1
 685 121 l 1,17,-1
EndSplineSet
EndChar
StartChar: afii10047
Encoding: 1069 1069 201
Width: 1546
Flags: HW
Fore
158 426 m 1,0,1
 210.407 196.066 210.407 196.066 348.8 83 c 0,2,3
 485.888 -29 485.888 -29 718.7 -29 c 0,4,5
 1059.84 -29 1059.84 -29 1256 180 c 1,6,7
 1454 386.531 1454 386.531 1454 745 c 0,8,9
 1454 1102.48 1454 1102.48 1256 1312 c 0,10,11
 1057.95 1520 1057.95 1520 718.7 1520 c 0,12,13
 601.058 1520 601.058 1520 469.4 1488 c 0,14,15
 343.728 1457.45 343.728 1457.45 194.9 1391 c 1,16,-1
 194.9 1024 l 1,17,-1
 309.2 1024 l 1,18,19
 344.405 1212.06 344.405 1212.06 437 1306 c 0,20,21
 530.15 1399 530.15 1399 681.8 1399 c 0,22,23
 878.142 1399 878.142 1399 973.4 1238 c 0,24,25
 1057.48 1096.36 1057.48 1096.36 1067.9 830 c 1,26,-1
 469.4 830 l 1,27,-1
 469.4 669 l 1,28,-1
 1067.9 669 l 1,29,30
 1062.09 415.64 1062.09 415.64 985.217 272.825 c 0,31,32
 979.547 262.297 979.547 262.297 973.4 252 c 0,33,34
 877.849 92 877.849 92 680 92 c 0,35,36
 547.324 92 547.324 92 460.4 175 c 1,37,38
 376.268 257.927 376.268 257.927 337.1 426 c 1,39,-1
 158 426 l 1,0,1
EndSplineSet
EndChar
StartChar: afii10048
Encoding: 1070 1070 202
Width: 2502
Flags: HW
Fore
216.95 0 m 1,0,-1
 216.95 121 l 1,1,-1
 388.85 121 l 1,2,-1
 388.85 1372 l 1,3,-1
 216.95 1372 l 1,4,-1
 216.95 1493 l 1,5,-1
 908.15 1493 l 1,6,-1
 908.15 1372 l 1,7,-1
 735.35 1372 l 1,8,-1
 735.35 828 l 1,9,-1
 947.721 828 l 1,10,11
 967.755 1131.28 967.755 1131.28 1138.1 1313.5 c 0,12,13
 1331.14 1520 1331.14 1520 1669.55 1520 c 0,14,15
 2008.84 1520 2008.84 1520 2201.45 1314 c 0,16,17
 2394.05 1108.01 2394.05 1108.01 2394.05 745 c 0,18,19
 2394.05 383 2394.05 383 2201 177 c 0,20,21
 2007.95 -29 2007.95 -29 1669.55 -29 c 0,22,23
 1330.25 -29 1330.25 -29 1137.65 177 c 0,24,25
 966.306 360.265 966.306 360.265 947.396 667 c 1,26,-1
 735.35 667 l 1,27,-1
 735.35 121 l 1,28,-1
 908.15 121 l 1,29,-1
 908.15 0 l 1,30,-1
 216.95 0 l 1,0,-1
1669.55 92 m 0,31,32
 1841.45 92 1841.45 92 1925.15 253 c 0,33,34
 2008.85 414 2008.85 414 2008.85 745 c 0,35,36
 2008.85 1077 2008.85 1077 1925.15 1238 c 0,37,38
 1841.45 1399 1841.45 1399 1669.55 1399 c 0,39,40
 1498.55 1399 1498.55 1399 1414.4 1236.5 c 0,41,42
 1330.25 1074 1330.25 1074 1330.25 745 c 0,43,44
 1330.25 417 1330.25 417 1414.4 254.5 c 0,45,46
 1498.55 92.001 1498.55 92.001 1669.55 92 c 0,31,32
EndSplineSet
EndChar
StartChar: afii10049
Encoding: 1071 1071 203
Width: 1622
Flags: HW
Fore
741.2 729 m 1,0,1
 661.1 715.999 661.1 715.999 606.2 670 c 0,2,3
 551.3 624 551.3 624 510.8 537 c 2,4,-1
 314.6 121 l 1,5,-1
 176.9 121 l 1,6,-1
 176.9 0 l 1,7,-1
 618.8 0 l 1,8,-1
 833 451 l 1,9,10
 895.1 591 895.1 591 938.75 629.5 c 0,11,12
 982.399 668 982.399 668 1059.8 668 c 2,13,-1
 1114.7 668 l 1,14,-1
 1114.7 121 l 1,15,-1
 941.9 121 l 1,16,-1
 941.9 0 l 1,17,-1
 1633.1 0 l 1,18,-1
 1633.1 121 l 1,19,-1
 1461.2 121 l 1,20,-1
 1461.2 1372 l 1,21,-1
 1633.1 1372 l 1,22,-1
 1633.1 1493 l 1,23,-1
 866.3 1493 l 2,24,25
 632.294 1493 632.294 1493 504.95 1388.5 c 0,26,27
 377.6 1283.99 377.6 1283.99 377.6 1092 c 0,28,29
 377.6 936 377.6 936 468.05 845.5 c 0,30,31
 558.501 754.999 558.501 754.999 741.2 729 c 1,0,1
1114.7 788 m 1,28,-1
 996.8 788 l 2,29,30
 870.799 788 870.799 788 802.85 864 c 0,31,32
 734.9 940 734.9 940 734.9 1081 c 0,33,34
 734.9 1222 734.9 1222 802.85 1297 c 0,35,36
 870.8 1372 870.8 1372 996.8 1372 c 2,37,-1
 1114.7 1372 l 1,38,-1
 1114.7 788 l 1,28,-1
EndSplineSet
EndChar
StartChar: afii10065
Encoding: 1072 1072 204
Width: 1262
Flags: HW
Fore
1083.4 653 m 2,0,-1
 1083.4 121 l 1,1,-1
 1220.2 121 l 1,2,-1
 1220.2 0 l 1,3,-1
 764.8 0 l 1,4,-1
 764.8 135 l 1,5,6
 701.8 51 701.8 51 624.4 11 c 0,7,8
 547.001 -29 547.001 -29 448 -29 c 0,9,10
 301.3 -29 301.3 -29 222.55 58.5 c 0,11,12
 143.801 145.999 143.801 145.999 143.8 309 c 0,13,14
 143.8 488.001 143.8 488.001 256.75 577 c 0,15,16
 369.701 666 369.701 666 597.4 666 c 2,17,-1
 764.8 666 l 1,18,-1
 764.8 729 l 2,19,20
 764.8 858 764.8 858 709.9 919.5 c 0,21,22
 655 981 655 981 539.8 981 c 0,23,24
 444.4 981 444.4 981 392.65 937.5 c 0,25,26
 340.9 894 340.9 894 319.3 795 c 1,27,-1
 217.6 795 l 1,28,-1
 217.6 1024 l 1,29,30
 303.099 1058 303.099 1058 394.9 1075 c 0,31,32
 486.727 1092 486.727 1092 588.4 1092 c 0,33,34
 844.906 1092 844.906 1092 964.15 986 c 0,35,36
 1083.4 879.995 1083.4 879.995 1083.4 653 c 2,0,-1
764.8 334 m 1,30,-1
 764.8 547 l 1,31,-1
 645.1 547 l 2,32,33
 556 547 556 547 508.3 493 c 0,34,35
 460.6 439 460.6 439 460.6 338 c 0,36,37
 460.6 236.999 460.6 236.999 495.25 187 c 0,38,39
 529.901 137 529.901 137 601 137 c 0,40,41
 674.8 137 674.8 137 719.8 191 c 0,42,43
 764.8 245 764.8 245 764.8 334 c 1,30,-1
EndSplineSet
EndChar
StartChar: afii10066
Encoding: 1073 1073 205
Width: 1297
Flags: HW
Fore
684 1092 m 0,0,1
 937.8 1092 937.8 1092 1080.9 943.5 c 0,2,3
 1224 795 1224 795 1224 532 c 0,4,5
 1224 270.005 1224 270.005 1080.45 120.5 c 0,6,7
 936.904 -29 936.904 -29 684 -29 c 0,8,9
 431.099 -29 431.099 -29 287.55 120.5 c 0,10,11
 144 270.001 144 270.001 144 532 c 0,12,13
 144 795 144 795 287.55 943.5 c 0,14,15
 341.969 999.795 341.969 999.795 412.101 1034.75 c 1,16,17
 285.92 1062.11 285.92 1062.11 233.804 1156.6 c 0,18,19
 210.863 1198.19 210.863 1198.19 209.7 1243 c 0,20,21
 205.893 1389.65 205.893 1389.65 335.327 1461.94 c 0,22,23
 339.92 1464.5 339.92 1464.5 344.7 1467 c 0,24,25
 438.429 1515.98 438.429 1515.98 641.276 1512.62 c 0,26,27
 801.063 1509.97 801.063 1509.97 812.627 1510.54 c 0,28,29
 816.83 1510.74 816.83 1510.74 820.8 1511 c 2,30,31
 1023.06 1518.21 l 1,32,33
 1091.76 1524.25 1091.76 1524.25 1152 1548 c 1,34,-1
 1111.5 1336 l 1,35,36
 1041.68 1308.04 1041.68 1308.04 977.247 1305.95 c 0,37,38
 934.125 1304.55 934.125 1304.55 911.7 1302 c 0,39,40
 850.629 1295.06 850.629 1295.06 727.036 1298.21 c 0,41,42
 696.193 1299 696.193 1299 670.5 1299 c 0,43,44
 561.874 1299 561.874 1299 525.09 1248.85 c 0,45,46
 512.627 1231.85 512.627 1231.85 513 1212 c 0,47,48
 513.781 1170.31 513.781 1170.31 535.142 1150.9 c 0,49,50
 538.021 1148.28 538.021 1148.28 553.5 1136 c 0,51,52
 588.996 1107.83 588.996 1107.83 659.592 1094.76 c 0,53,54
 674.483 1092 674.483 1092 684 1092 c 0,0,1
684 84 m 0,55,56
 784.8 84 784.8 84 825.75 180 c 0,57,58
 866.7 276 866.7 276 866.7 532 c 0,59,60
 866.7 788 866.7 788 826.2 883.5 c 0,61,62
 785.7 979 785.7 979 684 979 c 0,63,64
 582.3 979 582.3 979 540.9 882.5 c 0,65,66
 499.5 786.002 499.5 786.002 499.5 532 c 0,67,68
 499.5 278 499.5 278 540.9 181 c 0,69,70
 582.3 83.999 582.3 83.999 684 84 c 0,55,56
EndSplineSet
EndChar
StartChar: afii10067
Encoding: 1074 1074 206
Width: 1427
Flags: HW
Fore
169.3 0 m 1,0,-1
 169.3 121 l 1,1,-1
 324.1 121 l 1,2,-1
 324.1 942 l 1,3,-1
 169.3 942 l 1,4,-1
 169.3 1063 l 1,5,-1
 827.2 1063 l 2,6,7
 1030.18 1063 1030.18 1063 1143.1 998 c 1,8,9
 1253.8 932 1253.8 932 1253.8 800 c 0,10,11
 1253.8 705.175 1253.8 705.175 1177.3 650 c 0,12,13
 1098.5 593.165 1098.5 593.165 965.8 580 c 1,14,15
 1131.06 566.398 1131.06 566.398 1229.5 495 c 0,16,17
 1326.7 424.5 1326.7 424.5 1326.7 308 c 0,18,19
 1326.7 149.752 1326.7 149.752 1190.8 75 c 0,20,21
 1055.8 0 1055.8 0 782.2 0 c 2,22,-1
 169.3 0 l 1,0,-1
635.5 654 m 1,19,-1
 706.6 654 l 2,20,21
 813.921 654 813.921 654 874.637 689.775 c 0,22,23
 881.74 693.96 881.74 693.96 889.3 699 c 0,24,25
 932.391 727.727 932.391 727.727 941.554 739.965 c 0,26,27
 956.8 760.325 956.8 760.325 956.8 800 c 0,28,29
 956.8 850.142 956.8 850.142 929.624 873.492 c 0,30,31
 922.335 879.755 922.335 879.755 891.1 900 c 0,32,33
 833.089 937.6 833.089 937.6 739.633 941.375 c 0,34,35
 724.171 942 724.171 942 706.6 942 c 2,36,-1
 635.5 942 l 1,37,-1
 635.5 654 l 1,19,-1
635.5 121 m 1,28,-1
 716.5 121 l 2,29,30
 837.147 121 837.147 121 904.588 163.386 c 0,31,32
 913.003 168.675 913.003 168.675 921.7 175 c 0,33,34
 969.072 209.453 969.072 209.453 982.099 234.145 c 0,35,36
 996.4 261.259 996.4 261.259 996.4 308 c 0,37,38
 996.4 372.84 996.4 372.84 963.543 407.228 c 1,39,40
 933.258 433.517 l 2,41,42
 928.515 437.183 928.515 437.183 920.8 443 c 0,43,44
 855.814 490.708 855.814 490.708 763.95 497.407 c 1,45,46
 716.5 499 l 1,47,-1
 635.5 499 l 1,48,-1
 635.5 121 l 1,28,-1
EndSplineSet
EndChar
StartChar: afii10068
Encoding: 1075 1075 207
Width: 1236
Flags: HW
Fore
1009.9 942 m 1,0,-1
 1009.9 774 l 1,1,-1
 1118.8 774 l 1,2,-1
 1118.8 1063 l 1,3,-1
 125.2 1063 l 1,4,-1
 125.2 942 l 1,5,-1
 261.1 942 l 1,6,-1
 261.1 121 l 1,7,-1
 125.2 121 l 1,8,-1
 125.2 0 l 1,9,-1
 696.7 0 l 1,10,-1
 696.7 121 l 1,11,-1
 579.7 121 l 1,12,-1
 579.7 942 l 1,13,-1
 1009.9 942 l 1,0,-1
EndSplineSet
EndChar
StartChar: afii10069
Encoding: 1076 1076 208
Width: 1695
Flags: HW
Fore
1371.9 0 m 1,0,-1
 1590.6 0 l 1,1,-1
 1590.6 -530 l 1,2,-1
 1425.9 -530 l 1,3,4
 1429.18 -321.142 1429.18 -321.142 1384.76 -221.842 c 0,5,6
 1355.2 -155.74 1355.2 -155.74 1301.7 -118 c 1,7,-1
 477.3 -118 l 1,8,9
 375.188 -190.39 375.188 -190.39 354.888 -337.659 c 0,10,11
 344.1 -530 l 1,14,-1
 179.4 -530 l 1,15,-1
 179.4 0 l 1,16,-1
 408 0 l 1,17,18
 415.2 10 415.2 10 418.8 16 c 0,19,20
 437.842 50.5205 437.842 50.5205 445.335 242.784 c 0,21,22
 446.7 277.826 446.7 277.826 446.7 304 c 2,23,-1
 446.7 942 l 1,24,-1
 310.8 942 l 1,25,-1
 310.8 1063 l 1,26,-1
 1508.7 1063 l 1,27,-1
 1508.7 942 l 1,28,-1
 1371.9 942 l 1,29,-1
 1371.9 0 l 1,0,-1
687.9 0 m 1,30,-1
 1053.3 0 l 1,31,-1
 1053.3 942 l 1,32,-1
 736.5 942 l 1,33,-1
 736.5 304 l 2,34,35
 736.5 191.163 736.5 191.163 713.967 79.9014 c 0,36,37
 702.277 22.1885 702.277 22.1885 687.9 0 c 1,30,-1
EndSplineSet
EndChar
StartChar: afii10070
Encoding: 1077 1077 209
Width: 1237
Flags: HW
Fore
803.6 600 m 1,0,1
 803.6 810 803.6 810 768.5 894.5 c 0,2,3
 733.4 979 733.4 979 648.8 979 c 0,4,5
 566.9 979 566.9 979 531.35 896 c 0,6,7
 495.8 813 495.8 813 495.8 618 c 1,8,-1
 495.8 600 l 1,9,-1
 803.6 600 l 1,0,1
1153.7 481 m 1,8,-1
 495.8 481 l 1,9,-1
 495.8 473 l 2,10,11
 495.8 267 495.8 267 551.6 175.5 c 0,12,13
 607.4 84 607.4 84 731.6 84 c 0,14,15
 835.1 84 835.1 84 899 145 c 0,16,17
 962.905 206.006 962.905 206.006 980.9 322 c 1,18,-1
 1130.3 322 l 1,19,20
 1091.6 141.001 1091.6 141.001 976.4 56 c 0,21,22
 861.2 -29 861.2 -29 654.2 -29 c 0,23,24
 405.8 -29 405.8 -29 273.05 116.5 c 0,25,26
 140.3 262.001 140.3 262.001 140.3 532 c 0,27,28
 140.3 796 140.3 796 276.2 944 c 0,29,30
 412.096 1092 412.096 1092 654.2 1092 c 0,31,32
 891.805 1092 891.805 1092 1018.7 936.5 c 0,33,34
 1145.6 781 1145.6 781 1153.7 481 c 1,8,-1
EndSplineSet
EndChar
StartChar: afii10072
Encoding: 1078 1078 210
Width: 2067
Flags: HW
Fore
1357.1 1063 m 1,6,-1
 1357.1 943 l 1,7,-1
 1236.5 943 l 1,8,-1
 1236.5 557 l 1,9,-1
 1582.1 942 l 1,10,-1
 1467.8 942 l 1,11,-1
 1467.8 1063 l 1,12,-1
 1904.3 1063 l 1,13,-1
 1904.3 942 l 1,14,-1
 1727 942 l 1,15,-1
 1480.4 696 l 1,16,-1
 1883.6 121 l 1,17,-1
 1987.1 121 l 1,18,-1
 1987.1 0 l 1,19,-1
 1438.1 0 l 1,20,-1
 1438.1 121 l 1,21,-1
 1550.6 121 l 1,22,-1
 1296.8 483 l 1,23,-1
 1236.5 412 l 1,24,-1
 1236.5 121 l 1,25,-1
 1357.1 121 l 1,26,-1
 1357.1 0 l 1,27,-1
 800.9 0 l 1,28,-1
 800.9 121 l 1,29,-1
 921.5 121 l 1,30,-1
 921.5 412 l 1,31,-1
 862.1 483 l 1,32,-1
 607.4 121 l 1,33,-1
 719.9 121 l 1,34,-1
 719.9 0 l 1,35,-1
 170.9 0 l 1,36,-1
 170.9 121 l 1,37,-1
 274.4 121 l 1,38,-1
 677.6 696 l 1,39,-1
 431 942 l 1,40,-1
 253.7 942 l 1,41,-1
 253.7 1063 l 1,42,-1
 690.2 1063 l 1,43,-1
 690.2 942 l 1,44,-1
 575.9 942 l 1,45,-1
 921.5 557 l 1,46,-1
 921.5 943 l 1,47,-1
 800.9 943 l 1,48,-1
 800.9 1063 l 1,49,-1
 1357.1 1063 l 1,6,-1
EndSplineSet
EndChar
StartChar: afii10073
Encoding: 1079 1079 211
Width: 1182
Flags: HW
Fore
177.8 1028 m 1,0,1
 282.396 1052.39 282.396 1052.39 390.2 1065 c 0,2,3
 489 1078 489 1078 590.9 1078 c 0,4,5
 785.761 1078 785.761 1078 902.281 1015.03 c 0,6,7
 907.699 1012.1 907.699 1012.1 913.1 1009 c 0,8,9
 1032.8 940.258 1032.8 940.258 1032.8 812 c 0,10,11
 1032.8 715.608 1032.8 715.608 964.4 656 c 0,12,13
 899.462 600.824 899.462 600.824 819.353 582.642 c 2,14,15
 784.4 576 l 1,16,17
 912.125 558.26 912.125 558.26 988.133 494.938 c 0,18,19
 995.981 488.4 995.981 488.4 1004 481 c 0,20,21
 1083.2 409.407 1083.2 409.407 1083.2 283 c 0,22,23
 1083.2 132.98 1083.2 132.98 946.4 54 c 0,24,25
 811.619 -22.3467 811.619 -22.3467 588.658 -24.8955 c 0,26,27
 579.545 -25 579.545 -25 570.2 -25 c 0,28,29
 476.4 -25 476.4 -25 368.6 -11 c 0,30,31
 258.922 4.82617 258.922 4.82617 150.8 32 c 1,32,-1
 150.8 266 l 1,33,-1
 250.7 266 l 1,34,35
 256.263 205.955 256.263 205.955 291.083 170.633 c 0,36,37
 300.944 160.63 300.944 160.63 324.5 141 c 0,38,39
 389.917 88 389.917 88 504.5 88 c 0,40,41
 630.609 88 630.609 88 698.9 149 c 0,42,43
 744.602 188.827 744.602 188.827 757.025 219.272 c 0,44,45
 768.2 246.655 768.2 246.655 768.2 289 c 0,46,47
 768.2 359.864 768.2 359.864 731.828 402.188 c 0,48,49
 719.676 416.33 719.676 416.33 696.2 437 c 0,50,51
 624.65 500 624.65 500 492.8 500 c 2,52,-1
 437.9 500 l 1,53,-1
 437.9 637 l 1,54,-1
 481.1 637 l 2,55,56
 603.228 637 603.228 637 664.7 686 c 0,57,58
 708.907 720.929 708.907 720.929 719.584 756.835 c 0,59,60
 725.9 778.08 725.9 778.08 725.9 808 c 0,61,62
 725.9 861.083 725.9 861.083 698.029 890.451 c 1,63,64
 668.3 917 l 1,65,66
 610.25 965 610.25 965 502.7 965 c 0,67,68
 406.34 965 406.34 965 347 919 c 1,69,70
 306.867 886.086 306.867 886.086 297.506 872.242 c 0,71,72
 282.961 850.73 282.961 850.73 278.6 815 c 1,73,-1
 177.8 815 l 1,74,-1
 177.8 1028 l 1,0,1
EndSplineSet
EndChar
StartChar: afii10074
Encoding: 1080 1080 212
Width: 1424
Flags: HW
Fore
1225.2 942 m 1,0,-1
 1225.2 121 l 1,1,-1
 1362 121 l 1,2,-1
 1362 0 l 1,3,-1
 788.7 0 l 1,4,-1
 788.7 121 l 1,5,-1
 906.6 121 l 1,6,-1
 906.6 597 l 1,7,-1
 592.5 234 l 1,8,-1
 592.5 121 l 1,9,-1
 709.5 121 l 1,10,-1
 709.5 0 l 1,11,-1
 138 0 l 1,12,-1
 138 121 l 1,13,-1
 273.9 121 l 1,14,-1
 273.9 942 l 1,15,-1
 138 942 l 1,16,-1
 138 1063 l 1,17,-1
 709.5 1063 l 1,18,-1
 709.5 942 l 1,19,-1
 592.5 942 l 1,20,-1
 592.5 460 l 1,21,-1
 906.6 823 l 1,22,-1
 906.6 942 l 1,23,-1
 788.7 942 l 1,24,-1
 788.7 1063 l 1,25,-1
 1362 1063 l 1,26,-1
 1362 942 l 1,27,-1
 1225.2 942 l 1,0,-1
EndSplineSet
EndChar
StartChar: afii10076
Encoding: 1082 1082 214
Width: 1353
Flags: HW
Fore
714.3 0 m 1,0,-1
 139.2 0 l 1,1,-1
 139.2 121 l 1,2,-1
 275.1 121 l 1,3,-1
 275.1 943 l 1,4,-1
 139.2 943 l 1,5,-1
 139.2 1063 l 1,6,-1
 714.3 1063 l 1,7,-1
 714.3 943 l 1,8,-1
 593.7 943 l 1,9,-1
 593.7 557 l 1,10,-1
 979.8 942 l 1,11,-1
 865.5 942 l 1,12,-1
 865.5 1063 l 1,13,-1
 1302 1063 l 1,14,-1
 1302 942 l 1,15,-1
 1124.7 942 l 1,16,-1
 878.1 696 l 1,17,-1
 1281.3 121 l 1,18,-1
 1384.8 121 l 1,19,-1
 1384.8 0 l 1,20,-1
 835.8 0 l 1,21,-1
 835.8 121 l 1,22,-1
 948.3 121 l 1,23,-1
 682.8 500 l 1,24,-1
 593.7 412 l 1,25,-1
 593.7 121 l 1,26,-1
 714.3 121 l 1,27,-1
 714.3 0 l 1,0,-1
EndSplineSet
EndChar
StartChar: afii10077
Encoding: 1083 1083 215
Width: 1414
Flags: HW
Fore
607.15 942 m 1,0,-1
 896.95 942 l 1,1,-1
 896.95 121 l 1,2,-1
 779.05 121 l 1,3,-1
 779.05 0 l 1,4,-1
 1352.35 0 l 1,5,-1
 1352.35 121 l 1,6,-1
 1215.55 121 l 1,7,-1
 1215.55 942 l 1,8,-1
 1352.35 942 l 1,9,-1
 1352.35 1063 l 1,10,-1
 154.45 1063 l 1,11,-1
 154.45 942 l 1,12,-1
 290.35 942 l 1,13,-1
 290.35 304 l 1,14,15
 290.148 183.878 290.148 183.878 262.45 134 c 0,16,17
 236.351 87.001 236.351 87.001 170.65 87 c 0,18,19
 111.25 87 111.25 87 84.7002 122.5 c 0,20,21
 58.1494 158.001 58.1494 158.001 56.3496 238 c 1,22,-1
 -45.3496 239 l 1,23,-1
 -45.3496 13 l 1,24,25
 20.3428 -5.99805 20.3428 -5.99805 81.5498 -16 c 0,26,27
 142.75 -26.001 142.75 -26.001 196.75 -26 c 0,28,29
 399.25 -26 399.25 -26 503.2 57.5 c 0,30,31
 606.875 140.779 606.875 140.779 607.15 304 c 1,32,-1
 607.15 942 l 1,0,-1
EndSplineSet
EndChar
StartChar: afii10078
Encoding: 1084 1084 216
Width: 2070
Flags: HW
Fore
253.421 0 m 1,0,-1
 253.421 117.152 l 1,1,-1
 394.067 117.152 l 1,2,-1
 394.067 946.863 l 1,3,-1
 253.421 946.863 l 1,4,-1
 253.421 1063.02 l 1,5,-1
 747.755 1063.02 l 1,6,-1
 1101.45 350.92 l 1,7,-1
 1456.79 1063.02 l 1,8,-1
 1952.99 1063.02 l 1,9,-1
 1952.99 946.863 l 1,10,-1
 1808.81 946.863 l 1,11,-1
 1808.81 117.152 l 1,12,-1
 1952.99 117.152 l 1,13,-1
 1952.99 0 l 1,14,-1
 1373.86 0 l 1,15,-1
 1373.86 117.152 l 1,16,-1
 1487.51 117.152 l 1,17,-1
 1487.51 867.12 l 1,18,-1
 1103.1 156.928 l 1,19,-1
 893.048 156.928 l 1,20,-1
 510.303 867.12 l 1,21,-1
 510.303 117.152 l 1,22,-1
 634.751 117.152 l 1,23,-1
 634.751 0 l 1,24,-1
 253.421 0 l 1,0,-1
EndSplineSet
EndChar
StartChar: afii10079
Encoding: 1085 1085 217
Width: 1424
Flags: HW
Fore
1225.2 942 m 1,0,-1
 1225.2 121 l 1,1,-1
 1362 121 l 1,2,-1
 1362 0 l 1,3,-1
 788.7 0 l 1,4,-1
 788.7 121 l 1,5,-1
 906.6 121 l 1,6,-1
 906.6 502 l 1,7,-1
 592.5 502 l 1,8,-1
 592.5 121 l 1,9,-1
 709.5 121 l 1,10,-1
 709.5 0 l 1,11,-1
 138 0 l 1,12,-1
 138 121 l 1,13,-1
 273.9 121 l 1,14,-1
 273.9 942 l 1,15,-1
 138 942 l 1,16,-1
 138 1063 l 1,17,-1
 709.5 1063 l 1,18,-1
 709.5 942 l 1,19,-1
 592.5 942 l 1,20,-1
 592.5 623 l 1,21,-1
 906.6 623 l 1,22,-1
 906.6 942 l 1,23,-1
 788.7 942 l 1,24,-1
 788.7 1063 l 1,25,-1
 1362 1063 l 1,26,-1
 1362 942 l 1,27,-1
 1225.2 942 l 1,0,-1
EndSplineSet
EndChar
StartChar: afii10080
Encoding: 1086 1086 218
Width: 1297
Flags: HW
Fore
684 84 m 0,0,1
 784.8 84 784.8 84 825.75 180 c 0,2,3
 866.7 276 866.7 276 866.7 532 c 0,4,5
 866.7 788 866.7 788 826.2 883.5 c 0,6,7
 785.7 979 785.7 979 684 979 c 0,8,9
 582.3 979 582.3 979 540.9 882.5 c 0,10,11
 499.5 786.002 499.5 786.002 499.5 532 c 0,12,13
 499.5 278 499.5 278 540.9 181 c 0,14,15
 582.3 83.999 582.3 83.999 684 84 c 0,0,1
684 -29 m 0,12,13
 431.099 -29 431.099 -29 287.55 120.5 c 0,14,15
 144 270.001 144 270.001 144 532 c 0,16,17
 144 795 144 795 287.55 943.5 c 0,18,19
 431.1 1092 431.1 1092 684 1092 c 0,20,21
 937.8 1092 937.8 1092 1080.9 943.5 c 0,22,23
 1224 795 1224 795 1224 532 c 0,24,25
 1224 270.005 1224 270.005 1080.45 120.5 c 0,26,27
 936.904 -29 936.904 -29 684 -29 c 0,12,13
EndSplineSet
EndChar
StartChar: afii10081
Encoding: 1087 1087 219
Width: 1424
Flags: HW
Fore
138 0 m 1,0,-1
 138 121 l 1,1,-1
 273.9 121 l 1,2,-1
 273.9 942 l 1,3,-1
 138 942 l 1,4,-1
 138 1063 l 1,5,-1
 1362 1063 l 1,6,-1
 1362 942 l 1,7,-1
 1225.2 942 l 1,8,-1
 1225.2 121 l 1,9,-1
 1362 121 l 1,10,-1
 1362 0 l 1,11,-1
 788.7 0 l 1,12,-1
 788.7 121 l 1,13,-1
 906.6 121 l 1,14,-1
 906.6 942 l 1,15,-1
 592.5 942 l 1,16,-1
 592.5 121 l 1,17,-1
 709.5 121 l 1,18,-1
 709.5 0 l 1,19,-1
 138 0 l 1,0,-1
EndSplineSet
EndChar
StartChar: afii10082
Encoding: 1088 1088 220
Width: 1358
Flags: HW
Fore
567.55 584 m 1,0,-1
 567.55 479 l 2,1,2
 567.55 293 567.55 293 610.3 210 c 0,3,4
 653.051 127 653.051 127 748.45 127 c 0,5,6
 846.55 127 846.55 127 886.6 215 c 0,7,8
 926.65 303 926.65 303 926.65 532 c 0,9,10
 926.65 761 926.65 761 886.6 848.5 c 0,11,12
 846.549 936 846.549 936 748.45 936 c 0,13,14
 653.051 936 653.051 936 610.3 853 c 0,15,16
 567.55 770 567.55 770 567.55 584 c 1,0,-1
248.95 942 m 1,13,-1
 112.15 942 l 1,14,-1
 112.15 1063 l 1,15,-1
 567.55 1063 l 1,16,-1
 567.55 928 l 1,17,18
 608.05 1011 608.05 1011 676.45 1051.5 c 0,19,20
 744.85 1092 744.85 1092 845.65 1092 c 0,21,22
 1049.95 1092 1049.95 1092 1167.4 942.5 c 0,23,24
 1284.85 793 1284.85 793 1284.85 532 c 0,25,26
 1284.85 271 1284.85 271 1167.4 121 c 0,27,28
 1049.95 -29 1049.95 -29 845.65 -29 c 0,29,30
 744.85 -29 744.85 -29 676.45 11.5 c 0,31,32
 608.05 52 608.05 52 567.55 135 c 1,33,-1
 567.55 -305 l 1,34,-1
 715.15 -305 l 1,35,-1
 715.15 -426 l 1,36,-1
 112.15 -426 l 1,37,-1
 112.15 -305 l 1,38,-1
 248.95 -305 l 1,39,-1
 248.95 942 l 1,13,-1
EndSplineSet
EndChar
StartChar: afii10083
Encoding: 1089 1089 221
Width: 1184
Flags: HW
Fore
1101.45 332 m 1,0,1
 1067.26 150.01 1067.26 150.01 961.5 60.5 c 0,2,3
 855.75 -29 855.75 -29 673.95 -29 c 0,4,5
 418.35 -29 418.35 -29 277.95 118 c 0,6,7
 137.55 265 137.55 265 137.55 532 c 0,8,9
 137.55 796 137.55 796 276.15 944 c 0,10,11
 414.745 1092 414.745 1092 661.35 1092 c 0,12,13
 761.25 1092 761.25 1092 862.95 1071 c 0,14,15
 964.65 1050 964.65 1050 1069.95 1008 c 1,16,-1
 1069.95 713 l 1,17,-1
 969.15 713 l 1,18,19
 954.75 848 954.75 848 898.05 913.5 c 0,20,21
 841.35 979 841.35 979 738.75 979 c 0,22,23
 605.55 979 605.55 979 549.3 879 c 0,24,25
 493.05 779 493.05 779 493.05 532 c 0,26,27
 493.05 291 493.05 291 547.95 187.5 c 0,28,29
 602.85 84 602.85 84 727.05 84 c 0,30,31
 823.35 84 823.35 84 881.4 148 c 0,32,33
 939.451 212.001 939.451 212.001 952.05 332 c 1,34,-1
 1101.45 332 l 1,0,1
EndSplineSet
EndChar
StartChar: afii10084
Encoding: 1090 1090 222
Width: 1204
Flags: HW
Fore
121.4 1063 m 1,0,-1
 121.4 774 l 1,1,-1
 230.3 774 l 1,2,-1
 230.3 942 l 1,3,-1
 460.7 942 l 1,4,-1
 460.7 121 l 1,5,-1
 324.8 121 l 1,6,-1
 324.8 0 l 1,7,-1
 896.3 0 l 1,8,-1
 896.3 121 l 1,9,-1
 779.3 121 l 1,10,-1
 779.3 942 l 1,11,-1
 1009.7 942 l 1,12,-1
 1009.7 774 l 1,13,-1
 1118.6 774 l 1,14,-1
 1118.6 1063 l 1,15,-1
 121.4 1063 l 1,0,-1
EndSplineSet
EndChar
StartChar: afii10085
Encoding: 1091 1091 223
Width: 1131
Flags: HW
Fore
635.7 -240 m 1,0,1
 592.5 -357 592.5 -357 531.3 -406 c 0,2,3
 470.1 -455 470.1 -455 366.6 -455 c 0,4,5
 322.5 -455 322.5 -455 268.5 -444 c 0,6,7
 214.503 -433.001 214.503 -433.001 150.6 -412 c 1,8,-1
 150.6 -190 l 1,9,-1
 252.3 -191 l 1,10,11
 255 -267.999 255 -267.999 285.15 -305 c 0,12,13
 315.3 -342 315.3 -342 375.6 -342 c 0,14,15
 434.1 -342 434.1 -342 470.1 -306.5 c 0,16,17
 506.099 -271.001 506.099 -271.001 542.1 -172 c 1,18,-1
 556.5 -135 l 1,19,-1
 139.8 942 l 1,20,-1
 36.2998 942 l 1,21,-1
 36.2998 1063 l 1,22,-1
 588 1063 l 1,23,-1
 588 942 l 1,24,-1
 473.7 942 l 1,25,-1
 716.7 313 l 1,26,-1
 943.5 942 l 1,27,-1
 816.6 942 l 1,28,-1
 816.6 1063 l 1,29,-1
 1175.7 1063 l 1,30,-1
 1175.7 942 l 1,31,-1
 1059.6 942 l 1,32,-1
 635.7 -240 l 1,0,1
EndSplineSet
EndChar
StartChar: afii10086
Encoding: 1092 1092 224
Width: 1589
Flags: HW
Fore
965.2 84 m 2,0,1
 1066.67 84 1066.67 84 1108.3 181 c 0,2,3
 1149.7 277.452 1149.7 277.452 1149.7 532 c 0,4,5
 1149.7 787.032 1149.7 787.032 1108.3 882 c 0,6,7
 1066.67 979 1066.67 979 965.2 979 c 2,8,-1
 952.6 979 l 1,9,-1
 952.6 84 l 1,10,-1
 965.2 84 l 2,0,1
605.2 1426 m 1,11,-1
 1070.5 1426 l 1,12,-1
 1070.5 1305 l 1,13,-1
 952.6 1305 l 1,14,-1
 952.6 1092 l 1,15,-1
 965.2 1092 l 2,16,17
 1217.13 1092 1217.13 1092 1361.2 944 c 0,18,19
 1505.2 794.467 1505.2 794.467 1505.2 532 c 0,20,21
 1505.2 269.533 1505.2 269.533 1361.2 120 c 0,22,23
 1217.61 -29 1217.61 -29 965.2 -29 c 2,24,-1
 952.6 -29 l 1,25,-1
 952.6 -254 l 1,26,-1
 1070.5 -254 l 1,27,-1
 1070.5 -375 l 1,28,-1
 605.2 -375 l 1,29,-1
 605.2 -254 l 1,30,-1
 723.1 -254 l 1,31,-1
 723.1 -29 l 1,32,-1
 698.8 -29 l 2,33,34
 446.382 -29 446.382 -29 302.8 120 c 0,35,36
 158.8 269.533 158.8 269.533 158.8 532 c 0,37,38
 158.8 794.467 158.8 794.467 302.8 944 c 0,39,40
 446.874 1092 446.874 1092 698.8 1092 c 2,41,-1
 723.1 1092 l 1,42,-1
 723.1 1305 l 1,43,-1
 605.2 1305 l 1,44,-1
 605.2 1426 l 1,11,-1
723.1 84 m 1,45,-1
 723.1 979 l 1,46,-1
 698.8 979 l 2,47,48
 597.336 979 597.336 979 555.7 882 c 0,49,50
 514.3 787.032 514.3 787.032 514.3 532 c 0,51,52
 514.3 277.452 514.3 277.452 555.7 181 c 0,53,54
 597.336 84 597.336 84 698.8 84 c 2,55,-1
 723.1 84 l 1,45,-1
EndSplineSet
EndChar
StartChar: afii10087
Encoding: 1093 1093 225
Width: 1160
Flags: HW
Fore
708.85 678 m 1,0,-1
 878.05 942 l 1,1,-1
 760.15 942 l 1,2,-1
 760.15 1063 l 1,3,-1
 1132.75 1063 l 1,4,-1
 1132.75 942 l 1,5,-1
 1005.85 942 l 1,6,-1
 761.95 563 l 1,7,-1
 1046.35 121 l 1,8,-1
 1173.25 121 l 1,9,-1
 1173.25 0 l 1,10,-1
 564.85 0 l 1,11,-1
 564.85 121 l 1,12,-1
 688.15 121 l 1,13,-1
 508.15 401 l 1,14,-1
 327.25 121 l 1,15,-1
 455.95 121 l 1,16,-1
 455.95 0 l 1,17,-1
 61.75 0 l 1,18,-1
 61.75 121 l 1,19,-1
 198.55 121 l 1,20,-1
 452.35 518 l 1,21,-1
 177.85 942 l 1,22,-1
 70.75 942 l 1,23,-1
 70.75 1063 l 1,24,-1
 654.85 1063 l 1,25,-1
 654.85 942 l 1,26,-1
 538.75 942 l 1,27,-1
 708.85 678 l 1,0,-1
EndSplineSet
EndChar
StartChar: afii10088
Encoding: 1094 1094 226
Width: 1425
Flags: HW
Fore
139.75 1063 m 1,0,-1
 139.75 942 l 1,1,-1
 275.65 942 l 1,2,-1
 275.65 121 l 1,3,-1
 139.75 121 l 1,4,-1
 139.75 0 l 1,5,-1
 1083.85 0 l 1,6,-1
 1083.85 -332 l 1,7,-1
 1395.25 -332 l 1,8,-1
 1395.25 121 l 1,9,-1
 1226.95 121 l 1,10,-1
 1226.95 942 l 1,11,-1
 1363.75 942 l 1,12,-1
 1363.75 1063 l 1,13,-1
 790.45 1063 l 1,14,-1
 790.45 942 l 1,15,-1
 908.35 942 l 1,16,-1
 908.35 121 l 1,17,-1
 594.25 121 l 1,18,-1
 594.25 942 l 1,19,-1
 711.25 942 l 1,20,-1
 711.25 1063 l 1,21,-1
 139.75 1063 l 1,0,-1
EndSplineSet
EndChar
StartChar: afii10089
Encoding: 1095 1095 227
Width: 1424
Flags: HW
Fore
729.3 401 m 2,13,-1
 906.6 401 l 1,14,-1
 906.6 121 l 1,15,-1
 788.7 121 l 1,16,-1
 788.7 0 l 1,17,-1
 1362 0 l 1,18,-1
 1362 121 l 1,19,-1
 1225.2 121 l 1,20,-1
 1225.2 942 l 1,21,-1
 1362 942 l 1,22,-1
 1362 1063 l 1,23,-1
 788.7 1063 l 1,24,-1
 788.7 942 l 1,25,-1
 906.6 942 l 1,26,-1
 906.6 522 l 1,27,-1
 709.5 522 l 2,28,29
 667.604 526.284 l 1,30,31
 631.415 533.444 631.415 533.444 615 550 c 0,32,33
 591.146 574.277 591.146 574.277 592.5 640 c 1,34,-1
 592.5 942 l 1,35,-1
 709.5 942 l 1,36,-1
 709.5 1063 l 1,37,-1
 138 1063 l 1,38,-1
 138 942 l 1,39,-1
 273.9 942 l 1,40,-1
 273.9 656 l 2,41,42
 273.9 550.852 273.9 550.852 345.389 493.779 c 0,43,44
 365.307 477.877 365.307 477.877 403.5 456 c 0,45,46
 504.334 398.242 504.334 398.242 707.215 400.447 c 0,47,48
 729.3 401 l 2,13,-1
EndSplineSet
EndChar
StartChar: afii10090
Encoding: 1096 1096 228
Width: 1944
Flags: HW
Fore
1850.3 0 m 1,0,-1
 1850.3 121 l 1,1,-1
 1714.4 121 l 1,2,-1
 1714.4 942 l 1,3,-1
 1850.3 942 l 1,4,-1
 1850.3 1063 l 1,5,-1
 1278.8 1063 l 1,6,-1
 1278.8 942 l 1,7,-1
 1395.8 942 l 1,8,-1
 1395.8 121 l 1,9,-1
 1126.7 121 l 1,10,-1
 1126.7 809 l 1,11,-1
 1185.2 809 l 1,12,-1
 1185.2 930 l 1,13,-1
 828.8 930 l 1,14,-1
 828.8 809 l 1,15,-1
 887.3 809 l 1,16,-1
 887.3 121 l 1,17,-1
 618.2 121 l 1,18,-1
 618.2 942 l 1,19,-1
 735.2 942 l 1,20,-1
 735.2 1063 l 1,21,-1
 163.7 1063 l 1,22,-1
 163.7 942 l 1,23,-1
 299.6 942 l 1,24,-1
 299.6 121 l 1,25,-1
 163.7 121 l 1,26,-1
 163.7 0 l 1,27,-1
 1850.3 0 l 1,0,-1
EndSplineSet
EndChar
StartChar: afii10091
Encoding: 1097 1097 229
Width: 1978
Flags: HW
Fore
165.45 1063 m 1,0,-1
 165.45 942 l 1,1,-1
 301.35 942 l 1,2,-1
 301.35 121 l 1,3,-1
 165.45 121 l 1,4,-1
 165.45 0 l 1,5,-1
 1572.15 0 l 1,6,-1
 1572.15 -332 l 1,7,-1
 1883.55 -332 l 1,8,-1
 1883.55 121 l 1,9,-1
 1715.25 121 l 1,10,-1
 1715.25 942 l 1,11,-1
 1852.05 942 l 1,12,-1
 1852.05 1063 l 1,13,-1
 1278.75 1063 l 1,14,-1
 1278.75 942 l 1,15,-1
 1396.65 942 l 1,16,-1
 1396.65 121 l 1,17,-1
 1128.45 121 l 1,18,-1
 1128.45 809 l 1,19,-1
 1186.95 809 l 1,20,-1
 1186.95 930 l 1,21,-1
 830.55 930 l 1,22,-1
 830.55 809 l 1,23,-1
 889.05 809 l 1,24,-1
 889.05 121 l 1,25,-1
 619.95 121 l 1,26,-1
 619.95 942 l 1,27,-1
 736.95 942 l 1,28,-1
 736.95 1063 l 1,29,-1
 165.45 1063 l 1,0,-1
EndSplineSet
EndChar
StartChar: afii10092
Encoding: 1098 1098 230
Width: 1338
Flags: HW
Fore
697.7 624 m 130,-1,2
 647.3 624 l 1,3,-1
 647.3 942 l 1,4,-1
 770.6 942 l 1,5,-1
 770.6 1063 l 1,6,-1
 46.0996 1063 l 1,7,-1
 46.0996 749 l 1,8,-1
 169.4 749 l 1,9,-1
 169.4 942 l 1,10,-1
 338.6 942 l 1,11,-1
 338.6 121 l 1,12,-1
 216.2 121 l 1,13,-1
 216.2 0 l 1,14,-1
 834.5 0 l 2,15,16
 997.562 0 997.562 0 1099.96 53.293 c 0,17,18
 1117.55 62.4512 1117.55 62.4512 1136 74 c 0,19,20
 1253.9 149.287 1253.9 149.287 1253.9 286 c 0,21,22
 1253.9 392.649 1253.9 392.649 1190.01 458.328 c 0,23,24
 1180.66 467.94 1180.66 467.94 1170.2 476 c 2,25,26
 1087.24 540.736 l 1,27,28
 1018.45 589.236 1018.45 589.236 949.7 603 c 0,29,30
 845.12 624 845.12 624 697.7 624 c 130,-1,2
647.3 502 m 1,28,-1
 756.2 502 l 2,29,30
 822.666 502 822.666 502 859.15 475.738 c 0,31,32
 867.301 469.872 867.301 469.872 893 448 c 0,33,34
 955.1 394 955.1 394 955.1 293 c 0,35,36
 955.1 236.219 955.1 236.219 927.266 206.004 c 1,37,38
 893 175 l 1,39,40
 850.479 138.812 850.479 138.812 829.101 130.875 c 0,41,42
 802.505 121 802.505 121 756.2 121 c 2,43,-1
 647.3 121 l 1,44,-1
 647.3 502 l 1,28,-1
EndSplineSet
EndChar
StartChar: afii10093
Encoding: 1099 1099 231
Width: 1938
Flags: HW
Fore
659.4 616 m 130,-1,2
 609 616 l 1,3,-1
 609 942 l 1,4,-1
 732.3 942 l 1,5,-1
 732.3 1063 l 1,6,-1
 177.9 1063 l 1,7,-1
 177.9 942 l 1,8,-1
 300.3 942 l 1,9,-1
 300.3 121 l 1,10,-1
 177.9 121 l 1,11,-1
 177.9 0 l 1,12,-1
 796.2 0 l 2,13,14
 959.265 0 959.265 0 1061.66 53.293 c 0,15,16
 1079.25 62.4512 1079.25 62.4512 1097.7 74 c 0,17,18
 1215.6 149.287 1215.6 149.287 1215.6 286 c 0,19,20
 1215.6 392.649 1215.6 392.649 1151.71 458.328 c 0,21,22
 1142.36 467.94 1142.36 467.94 1131.9 476 c 0,23,24
 1051.77 537.744 1051.77 537.744 1015.17 557.357 c 0,25,26
 964.904 584.288 964.904 584.288 911.4 595 c 0,27,28
 806.82 616 806.82 616 659.4 616 c 130,-1,2
609 502 m 1,28,-1
 717.9 502 l 2,29,30
 784.366 502 784.366 502 820.85 475.738 c 0,31,32
 829 469.872 829 469.872 854.7 448 c 0,33,34
 916.8 394 916.8 394 916.8 293 c 0,35,36
 916.8 236.219 916.8 236.219 888.966 206.004 c 1,37,38
 854.7 175 l 1,39,40
 812.18 138.812 812.18 138.812 790.801 130.875 c 0,41,42
 764.205 121 764.205 121 717.9 121 c 2,43,-1
 609 121 l 1,44,-1
 609 502 l 1,28,-1
1276.8 1063 m 1,21,-1
 1276.8 942 l 1,22,-1
 1412.7 942 l 1,23,-1
 1412.7 121 l 1,24,-1
 1276.8 121 l 1,25,-1
 1276.8 0 l 1,26,-1
 1868.1 0 l 1,27,-1
 1868.1 121 l 1,28,-1
 1732.2 121 l 1,29,-1
 1732.2 942 l 1,30,-1
 1868.1 942 l 1,31,-1
 1868.1 1063 l 1,32,-1
 1276.8 1063 l 1,21,-1
EndSplineSet
EndChar
StartChar: afii10094
Encoding: 1100 1100 232
Width: 1291
Flags: HW
Fore
639.15 614 m 130,-1,2
 588.75 614 l 1,3,-1
 588.75 942 l 1,4,-1
 712.05 942 l 1,5,-1
 712.05 1063 l 1,6,-1
 157.65 1063 l 1,7,-1
 157.65 942 l 1,8,-1
 280.05 942 l 1,9,-1
 280.05 121 l 1,10,-1
 157.65 121 l 1,11,-1
 157.65 0 l 1,12,-1
 775.95 0 l 2,13,14
 939.015 0 939.015 0 1041.41 53.293 c 0,15,16
 1059 62.4512 1059 62.4512 1077.45 74 c 0,17,18
 1195.35 149.287 1195.35 149.287 1195.35 286 c 0,19,20
 1195.35 392.649 1195.35 392.649 1131.46 458.328 c 0,21,22
 1122.11 467.94 1122.11 467.94 1111.65 476 c 0,23,24
 1028.86 539.801 1028.86 539.801 983.544 561.786 c 0,25,26
 938.913 583.438 938.913 583.438 891.15 593 c 0,27,28
 786.57 614 786.57 614 639.15 614 c 130,-1,2
588.75 502 m 1,28,-1
 697.65 502 l 2,29,30
 764.116 502 764.116 502 800.6 475.738 c 0,31,32
 808.75 469.872 808.75 469.872 834.45 448 c 0,33,34
 896.55 394 896.55 394 896.55 293 c 0,35,36
 896.55 236.219 896.55 236.219 868.716 206.004 c 1,37,38
 834.45 175 l 1,39,40
 791.93 138.812 791.93 138.812 770.551 130.875 c 0,41,42
 743.955 121 743.955 121 697.65 121 c 2,43,-1
 588.75 121 l 1,44,-1
 588.75 502 l 1,28,-1
EndSplineSet
EndChar
StartChar: afii10095
Encoding: 1101 1101 233
Width: 1184
Flags: HW
Fore
137.55 332 m 1,0,1
 171.411 149.907 171.411 149.907 277.95 60 c 0,2,3
 383.845 -29 383.845 -29 565.05 -29 c 0,4,5
 820.65 -29 820.65 -29 961.05 118 c 0,6,7
 1101.45 265 1101.45 265 1101.45 532 c 0,8,9
 1101.45 795.981 1101.45 795.981 962.85 944 c 0,10,11
 824.268 1092 824.268 1092 577.65 1092 c 0,12,13
 477.3 1092 477.3 1092 376.05 1071 c 0,14,15
 273.862 1049.81 273.862 1049.81 169.05 1008 c 1,16,-1
 169.05 713 l 1,17,-1
 269.85 713 l 1,18,19
 284.766 848.601 284.766 848.601 340.95 914 c 0,20,21
 398.089 979 398.089 979 500.25 979 c 0,22,23
 633.731 979 633.731 979 690.15 879 c 0,24,25
 739.984 789.21 739.984 789.21 745.05 595 c 1,26,-1
 381.45 595 l 1,27,28
 380.554 596.966 380.554 596.966 381.45 476 c 1,29,-1
 745.05 476 l 1,30,31
 736.199 271.133 736.199 271.133 691.05 188 c 0,32,33
 636.228 84 636.228 84 511.95 84 c 0,34,35
 416.089 84 416.089 84 357.15 148 c 1,36,37
 298.867 214.301 298.867 214.301 286.95 332 c 1,38,-1
 137.55 332 l 1,0,1
EndSplineSet
EndChar
